<svg id="_ÎÓÈ_1" data-name="—ÎÓÈ_1" xmlns="http://www.w3.org/2000/svg" viewBox="0 0 34 56.33"><defs><style>.cls-1{fill:#fff;}.cls-2{opacity:0.75;}.cls-3{opacity:0.5;}</style></defs><title>Artboard 7</title><path class="cls-1" d="M4.4,10a.1.1,0,0,1-.1.1.09.09,0,0,1-.1-.1.1.1,0,0,1,.1-.1A.11.11,0,0,1,4.4,10Z"/><path class="cls-1" d="M4.3,22.38a.1.1,0,0,1-.1.1.09.09,0,0,1-.1-.1.1.1,0,0,1,.1-.1A.11.11,0,0,1,4.3,22.38Z"/><path class="cls-1" d="M4,23.3a.11.11,0,0,1-.1.1.1.1,0,0,1-.1-.1.09.09,0,0,1,.1-.1A.1.1,0,0,1,4,23.3Z"/><path class="cls-1" d="M5.73,18.21a.09.09,0,0,1-.1.1.1.1,0,0,1-.1-.1.11.11,0,0,1,.1-.1A.1.1,0,0,1,5.73,18.21Z"/><path class="cls-1" d="M4.59,20.22a.11.11,0,0,1-.1.1.1.1,0,0,1-.1-.1.09.09,0,0,1,.1-.1A.1.1,0,0,1,4.59,20.22Z"/><path class="cls-1" d="M9.08,16.07a.1.1,0,0,1-.1.1.11.11,0,0,1-.1-.1A.1.1,0,0,1,9,16,.09.09,0,0,1,9.08,16.07Z"/><path class="cls-1" d="M8.51,9.21a.1.1,0,0,1-.1.1.11.11,0,0,1-.1-.1.1.1,0,0,1,.1-.1A.09.09,0,0,1,8.51,9.21Z"/><path class="cls-1" d="M9.24,11a.1.1,0,0,1-.1.1A.1.1,0,0,1,9,11a.11.11,0,0,1,.11-.1A.11.11,0,0,1,9.24,11Z"/><path class="cls-1" d="M14.69,14.22a.11.11,0,0,1-.1.1.1.1,0,0,1-.1-.1.1.1,0,0,1,.1-.11A.11.11,0,0,1,14.69,14.22Z"/><path class="cls-1" d="M13.92,12.86a.1.1,0,0,1-.1.1.09.09,0,0,1-.1-.1.1.1,0,0,1,.1-.1A.11.11,0,0,1,13.92,12.86Z"/><path class="cls-1" d="M19.22,13.9a.11.11,0,0,1-.1.1.1.1,0,0,1-.1-.1.09.09,0,0,1,.1-.1A.1.1,0,0,1,19.22,13.9Z"/><path class="cls-1" d="M13.72,17.68a.11.11,0,0,1-.1.1.1.1,0,0,1-.1-.1.09.09,0,0,1,.1-.1A.1.1,0,0,1,13.72,17.68Z"/><path class="cls-1" d="M11.94,19.76a.1.1,0,0,1-.1.1.09.09,0,0,1-.1-.1.1.1,0,0,1,.1-.1A.11.11,0,0,1,11.94,19.76Z"/><path class="cls-1" d="M12.56,20.15a.1.1,0,0,1-.1.1.09.09,0,0,1-.1-.1.1.1,0,0,1,.1-.1A.11.11,0,0,1,12.56,20.15Z"/><path class="cls-1" d="M16.55,23.32a.11.11,0,0,1-.1.1.1.1,0,0,1-.1-.1.09.09,0,0,1,.1-.1A.1.1,0,0,1,16.55,23.32Z"/><path class="cls-1" d="M15,27.06a.11.11,0,0,1-.1.1.1.1,0,0,1-.1-.1.09.09,0,0,1,.1-.1A.1.1,0,0,1,15,27.06Z"/><path class="cls-1" d="M15.45,28.57a.09.09,0,0,1-.1.1.1.1,0,0,1-.1-.1.11.11,0,0,1,.1-.1A.1.1,0,0,1,15.45,28.57Z"/><path class="cls-1" d="M18.12,28.86a.18.18,0,0,1-.18.18.19.19,0,1,1,0-.37A.18.18,0,0,1,18.12,28.86Z"/><path class="cls-1" d="M19.48,29a.2.2,0,0,1-.19.19.19.19,0,0,1-.18-.19.18.18,0,0,1,.18-.18A.19.19,0,0,1,19.48,29Z"/><path class="cls-1" d="M13.36,27a.1.1,0,0,1-.2,0,.1.1,0,0,1,.2,0Z"/><path class="cls-1" d="M15.29,42.06a.15.15,0,0,1-.14.15.15.15,0,1,1,0-.3A.15.15,0,0,1,15.29,42.06Z"/><path class="cls-1" d="M18.25,48.14a.15.15,0,0,1-.15.15.15.15,0,0,1,0-.3A.15.15,0,0,1,18.25,48.14Z"/><path class="cls-1" d="M18.62,43.47a.14.14,0,0,1-.14.14.14.14,0,0,1-.15-.14.15.15,0,0,1,.15-.15A.15.15,0,0,1,18.62,43.47Z"/><path class="cls-1" d="M18.48,45.63a.15.15,0,1,1-.15-.15A.15.15,0,0,1,18.48,45.63Z"/><path class="cls-1" d="M16.93,46.6a.15.15,0,1,1-.3,0,.15.15,0,0,1,.3,0Z"/><path class="cls-1" d="M13,45.17a.15.15,0,1,1-.3,0,.15.15,0,0,1,.3,0Z"/><path class="cls-1" d="M15.52,47a.15.15,0,0,1-.15.15.15.15,0,0,1-.14-.15.14.14,0,0,1,.14-.14A.15.15,0,0,1,15.52,47Z"/><path class="cls-1" d="M14.55,48.79a.15.15,0,0,1-.3,0,.15.15,0,0,1,.3,0Z"/><path class="cls-1" d="M16.07,40.08a.1.1,0,0,1-.1.1.09.09,0,0,1-.1-.1A.1.1,0,0,1,16,40,.11.11,0,0,1,16.07,40.08Z"/><path class="cls-1" d="M15.57,41.35a.1.1,0,0,1-.1.1.11.11,0,0,1-.1-.1.11.11,0,0,1,.1-.11A.1.1,0,0,1,15.57,41.35Z"/><path class="cls-1" d="M19.25,42.9a.11.11,0,0,1-.1.1.1.1,0,0,1-.1-.1.09.09,0,0,1,.1-.1A.1.1,0,0,1,19.25,42.9Z"/><path class="cls-1" d="M18,45.73a.1.1,0,0,1-.1.1.09.09,0,0,1-.1-.1.1.1,0,0,1,.1-.1A.11.11,0,0,1,18,45.73Z"/><path class="cls-1" d="M17.26,47.85a.1.1,0,1,1-.2,0,.1.1,0,1,1,.2,0Z"/><path class="cls-1" d="M11.29,46.6a.1.1,0,0,1-.1.1.09.09,0,0,1-.1-.1.1.1,0,0,1,.1-.1A.11.11,0,0,1,11.29,46.6Z"/><path class="cls-1" d="M12.89,48.89a.1.1,0,0,1-.11.1.1.1,0,1,1,0-.2A.1.1,0,0,1,12.89,48.89Z"/><path class="cls-1" d="M13.43,48.39a.11.11,0,0,1-.1.1.1.1,0,0,1-.1-.1.09.09,0,0,1,.1-.1A.1.1,0,0,1,13.43,48.39Z"/><path class="cls-1" d="M15.62,49.26a.1.1,0,0,1-.1.1.09.09,0,0,1-.1-.1.1.1,0,0,1,.1-.1A.11.11,0,0,1,15.62,49.26Z"/><path class="cls-1" d="M15.57,50.82a.09.09,0,0,1-.1.1.1.1,0,0,1,0-.2A.09.09,0,0,1,15.57,50.82Z"/><path class="cls-1" d="M18.77,46.9a.1.1,0,0,1-.1.1.11.11,0,0,1-.1-.1.1.1,0,0,1,.1-.1A.09.09,0,0,1,18.77,46.9Z"/><path class="cls-1" d="M19.64,46.6a.09.09,0,0,1-.1.1.1.1,0,0,1-.1-.1.11.11,0,0,1,.1-.1A.1.1,0,0,1,19.64,46.6Z"/><path class="cls-1" d="M10,50.42a.1.1,0,0,1-.1.1.09.09,0,0,1-.1-.1.1.1,0,0,1,.1-.1A.11.11,0,0,1,10,50.42Z"/><path class="cls-1" d="M9.48,52.31a.1.1,0,0,1-.1.1.11.11,0,0,1-.1-.1.1.1,0,0,1,.1-.1A.09.09,0,0,1,9.48,52.31Z"/><path class="cls-1" d="M19.15,46.23a.1.1,0,0,1-.1.1.1.1,0,0,1,0-.2A.1.1,0,0,1,19.15,46.23Z"/><path class="cls-1" d="M14.75,46.9a.11.11,0,0,1-.1.1.1.1,0,0,1-.1-.1.09.09,0,0,1,.1-.1A.1.1,0,0,1,14.75,46.9Z"/><path class="cls-1" d="M15.67,47.89a.09.09,0,0,1-.1.1.1.1,0,0,1-.1-.1.11.11,0,0,1,.1-.1A.1.1,0,0,1,15.67,47.89Z"/><path class="cls-1" d="M16.07,48.62a.1.1,0,0,1-.1.1.09.09,0,0,1-.1-.1.1.1,0,0,1,.1-.1A.11.11,0,0,1,16.07,48.62Z"/><path class="cls-1" d="M14.06,47.29a.1.1,0,0,1-.1.1.11.11,0,0,1-.1-.1.11.11,0,0,1,.1-.11A.1.1,0,0,1,14.06,47.29Z"/><path class="cls-1" d="M18.33,44.44a.1.1,0,0,1-.1.1.1.1,0,1,1,0-.2A.1.1,0,0,1,18.33,44.44Z"/><path class="cls-1" d="M17.46,44.34a.1.1,0,1,1-.1-.1A.09.09,0,0,1,17.46,44.34Z"/><path class="cls-1" d="M14.85,44.34a.1.1,0,0,1-.1.1.1.1,0,1,1,0-.2A.1.1,0,0,1,14.85,44.34Z"/><path class="cls-1" d="M14.55,45.07a.1.1,0,0,1-.1.1.09.09,0,0,1-.1-.1.1.1,0,0,1,.1-.1A.11.11,0,0,1,14.55,45.07Z"/><path class="cls-1" d="M14,45.63a.09.09,0,0,1-.1.1.1.1,0,1,1,0-.2A.09.09,0,0,1,14,45.63Z"/><path class="cls-1" d="M15.67,45a.09.09,0,0,1-.1.1.1.1,0,0,1-.1-.1.11.11,0,0,1,.1-.1A.1.1,0,0,1,15.67,45Z"/><path class="cls-1" d="M11.72,45.07a.1.1,0,0,1-.2,0,.1.1,0,0,1,.2,0Z"/><path class="cls-1" d="M15.39,46.08a.1.1,0,0,1-.1.1.11.11,0,0,1-.1-.1.1.1,0,0,1,.1-.1A.09.09,0,0,1,15.39,46.08Z"/><path class="cls-1" d="M13.5,45a.1.1,0,0,1-.1.1.09.09,0,0,1-.1-.1.1.1,0,0,1,.1-.1A.11.11,0,0,1,13.5,45Z"/><path class="cls-1" d="M14.65,40a.1.1,0,0,1-.1.1.09.09,0,0,1-.1-.1.1.1,0,0,1,.1-.1A.11.11,0,0,1,14.65,40Z"/><path class="cls-1" d="M17.37,38a.1.1,0,0,1-.1.1.09.09,0,0,1-.1-.1.1.1,0,0,1,.1-.1A.11.11,0,0,1,17.37,38Z"/><path class="cls-1" d="M18.7,37.56a.11.11,0,0,1-.1.1.1.1,0,0,1-.1-.1.09.09,0,0,1,.1-.1A.1.1,0,0,1,18.7,37.56Z"/><path class="cls-1" d="M18.76,38.92a.1.1,0,0,1-.1.1.11.11,0,0,1-.1-.1.1.1,0,0,1,.1-.1A.09.09,0,0,1,18.76,38.92Z"/><path class="cls-1" d="M29.69,49.71a.09.09,0,0,1-.1.1.1.1,0,0,1-.1-.1.11.11,0,0,1,.1-.1A.1.1,0,0,1,29.69,49.71Z"/><path class="cls-1" d="M23.47,52.07a.11.11,0,0,1-.1.1.1.1,0,0,1-.1-.1.09.09,0,0,1,.1-.1A.1.1,0,0,1,23.47,52.07Z"/><path class="cls-1" d="M21.47,52.07a.1.1,0,0,1-.1.1.11.11,0,0,1-.1-.1.1.1,0,0,1,.1-.1A.09.09,0,0,1,21.47,52.07Z"/><path class="cls-1" d="M23.91,41.15a.16.16,0,1,1-.16-.16A.16.16,0,0,1,23.91,41.15Z"/><path class="cls-1" d="M24.38,50.39a.17.17,0,0,1-.17.16.16.16,0,1,1,0-.32A.17.17,0,0,1,24.38,50.39Z"/><path class="cls-1" d="M21.43,48.77a.16.16,0,1,1-.32,0,.16.16,0,0,1,.32,0Z"/><path class="cls-1" d="M12.6,34a.1.1,0,0,1-.11.1.1.1,0,1,1,0-.2A.1.1,0,0,1,12.6,34Z"/><path class="cls-1" d="M15.79,33.71a.1.1,0,0,1-.1.1.11.11,0,0,1-.1-.1.1.1,0,0,1,.1-.1A.09.09,0,0,1,15.79,33.71Z"/><path class="cls-1" d="M11.62,27.53a.1.1,0,0,1-.1.1.11.11,0,0,1-.1-.1.1.1,0,0,1,.1-.1A.09.09,0,0,1,11.62,27.53Z"/><path class="cls-1" d="M10.75,26.71a.1.1,0,0,1-.1.1.11.11,0,0,1-.1-.1.11.11,0,0,1,.1-.11A.1.1,0,0,1,10.75,26.71Z"/><path class="cls-1" d="M17.51,34.69a.1.1,0,0,1-.09.1.1.1,0,0,1-.1-.1.09.09,0,0,1,.1-.1A.09.09,0,0,1,17.51,34.69Z"/><path class="cls-1" d="M16.31,35.16a.09.09,0,0,1-.1.1.1.1,0,0,1-.1-.1.11.11,0,0,1,.1-.1A.1.1,0,0,1,16.31,35.16Z"/><path class="cls-1" d="M12.36,17.58a.11.11,0,0,1-.1.1.1.1,0,0,1-.1-.1.09.09,0,0,1,.1-.1A.1.1,0,0,1,12.36,17.58Z"/><path class="cls-1" d="M9.92,18.41a.09.09,0,0,1-.1.1.1.1,0,0,1-.1-.1.11.11,0,0,1,.1-.1A.1.1,0,0,1,9.92,18.41Z"/><path class="cls-1" d="M17.62,20.82a.1.1,0,0,1-.11.1.1.1,0,0,1,0-.2A.1.1,0,0,1,17.62,20.82Z"/><path class="cls-1" d="M17.51,18.31a.09.09,0,0,1-.09.1.1.1,0,0,1,0-.2A.09.09,0,0,1,17.51,18.31Z"/><path class="cls-1" d="M14.84,21.72a.1.1,0,0,1-.1.1.11.11,0,0,1-.1-.1.1.1,0,0,1,.1-.1A.09.09,0,0,1,14.84,21.72Z"/><path class="cls-1" d="M12.76,25.11a.1.1,0,0,1-.1.1.09.09,0,0,1-.1-.1.1.1,0,0,1,.1-.1A.11.11,0,0,1,12.76,25.11Z"/><path class="cls-1" d="M10.65,23a.09.09,0,0,1-.1.1.1.1,0,0,1-.1-.1.11.11,0,0,1,.1-.1A.1.1,0,0,1,10.65,23Z"/><path class="cls-1" d="M10.38,25.41a.09.09,0,0,1-.1.1.1.1,0,0,1-.1-.1.11.11,0,0,1,.1-.1A.1.1,0,0,1,10.38,25.41Z"/><path class="cls-1" d="M10,16.4a.09.09,0,0,1-.1.1.1.1,0,0,1-.1-.1.11.11,0,0,1,.1-.1A.1.1,0,0,1,10,16.4Z"/><path class="cls-1" d="M14.91,4.45a.09.09,0,0,1-.1.1.1.1,0,0,1-.1-.1.11.11,0,0,1,.1-.1A.1.1,0,0,1,14.91,4.45Z"/><path class="cls-1" d="M17.08,7.34a.1.1,0,0,1-.1.1.09.09,0,0,1-.1-.1.1.1,0,0,1,.1-.1A.11.11,0,0,1,17.08,7.34Z"/><path class="cls-1" d="M22.41,8a.09.09,0,0,1-.1.1.1.1,0,0,1,0-.2A.09.09,0,0,1,22.41,8Z"/><path class="cls-1" d="M15.73,7.24a.09.09,0,0,1-.1.1.1.1,0,0,1-.1-.1.11.11,0,0,1,.1-.1A.1.1,0,0,1,15.73,7.24Z"/><path class="cls-1" d="M20.07,4.59a.09.09,0,0,1-.1.1.1.1,0,0,1-.1-.1.11.11,0,0,1,.1-.1A.1.1,0,0,1,20.07,4.59Z"/><path class="cls-1" d="M22.54,3.58a.1.1,0,0,1-.1.1.11.11,0,0,1-.1-.1.1.1,0,0,1,.1-.1A.09.09,0,0,1,22.54,3.58Z"/><path class="cls-1" d="M22.48,5.53a.1.1,0,0,1-.1.1.09.09,0,0,1-.1-.1.1.1,0,0,1,.1-.1A.11.11,0,0,1,22.48,5.53Z"/><path class="cls-1" d="M24.74,4.69a.1.1,0,0,1-.1.1.09.09,0,0,1-.1-.1.1.1,0,0,1,.1-.1A.11.11,0,0,1,24.74,4.69Z"/><path class="cls-1" d="M28.5,5.33a.09.09,0,0,1-.1.1.1.1,0,0,1-.1-.1.11.11,0,0,1,.1-.1A.1.1,0,0,1,28.5,5.33Z"/><path class="cls-1" d="M27.92,9.73a.09.09,0,0,1-.1.1.1.1,0,0,1-.1-.1.11.11,0,0,1,.1-.1A.1.1,0,0,1,27.92,9.73Z"/><path class="cls-1" d="M25,12.07a.1.1,0,0,1-.1.1.09.09,0,0,1-.1-.1.1.1,0,0,1,.1-.1A.11.11,0,0,1,25,12.07Z"/><path class="cls-1" d="M23.13,13.22a.09.09,0,0,1-.1.1.1.1,0,0,1-.1-.1.11.11,0,0,1,.1-.1A.1.1,0,0,1,23.13,13.22Z"/><path class="cls-1" d="M25.72,12.44a.1.1,0,0,1-.1.1.09.09,0,0,1-.1-.1.1.1,0,0,1,.1-.1A.11.11,0,0,1,25.72,12.44Z"/><path class="cls-1" d="M27.52,12.17a.1.1,0,0,1-.1.1.09.09,0,0,1-.1-.1.1.1,0,0,1,.1-.1A.11.11,0,0,1,27.52,12.17Z"/><path class="cls-1" d="M29.19,12.89a.11.11,0,0,1-.1.1.1.1,0,0,1-.1-.1.09.09,0,0,1,.1-.1A.1.1,0,0,1,29.19,12.89Z"/><path class="cls-1" d="M28.39,14.3a.1.1,0,0,1-.1.1.11.11,0,0,1-.1-.1.1.1,0,0,1,.1-.1A.09.09,0,0,1,28.39,14.3Z"/><path class="cls-1" d="M27.67,13.78a.1.1,0,1,1-.2,0,.1.1,0,0,1,.2,0Z"/><path class="cls-1" d="M27.39,13.45a.11.11,0,0,1-.1.1.1.1,0,0,1-.1-.1.09.09,0,0,1,.1-.1A.1.1,0,0,1,27.39,13.45Z"/><path class="cls-1" d="M28.24,14.58a.1.1,0,0,1-.1.1.09.09,0,0,1-.1-.1.1.1,0,0,1,.1-.1A.11.11,0,0,1,28.24,14.58Z"/><path class="cls-1" d="M27,14.56a.1.1,0,0,1-.1.1.09.09,0,0,1-.1-.1.1.1,0,0,1,.1-.1A.11.11,0,0,1,27,14.56Z"/><path class="cls-1" d="M28,15.72a.1.1,0,0,1-.1.1.1.1,0,0,1-.11-.1.11.11,0,0,1,.11-.1A.11.11,0,0,1,28,15.72Z"/><path class="cls-1" d="M28.58,15.52a.09.09,0,0,1-.1.1.1.1,0,0,1-.1-.1.11.11,0,0,1,.1-.1A.1.1,0,0,1,28.58,15.52Z"/><path class="cls-1" d="M29.19,15.2a.11.11,0,0,1-.1.1.1.1,0,0,1-.1-.1.1.1,0,0,1,.1-.11A.11.11,0,0,1,29.19,15.2Z"/><path class="cls-1" d="M29.42,14.7a.11.11,0,0,1-.1.1.1.1,0,0,1-.1-.1.09.09,0,0,1,.1-.1A.1.1,0,0,1,29.42,14.7Z"/><path class="cls-1" d="M28.7,14.4a.1.1,0,1,1-.1-.1A.09.09,0,0,1,28.7,14.4Z"/><path class="cls-1" d="M30.17,13.9a.1.1,0,0,1-.1-.1.09.09,0,0,1,.1-.1"/><path class="cls-1" d="M29.83,15.69a.09.09,0,0,1-.1.1.1.1,0,0,1-.1-.1.11.11,0,0,1,.1-.1A.1.1,0,0,1,29.83,15.69Z"/><path class="cls-1" d="M29.19,16.4a.1.1,0,0,1-.1.1.09.09,0,0,1-.1-.1.1.1,0,0,1,.1-.1A.11.11,0,0,1,29.19,16.4Z"/><path class="cls-1" d="M30.17,15.51a.09.09,0,0,1-.1-.1.1.1,0,0,1,.1-.1"/><path class="cls-1" d="M30.07,16.48a.11.11,0,0,1-.1.1.1.1,0,0,1-.1-.1.09.09,0,0,1,.1-.1A.1.1,0,0,1,30.07,16.48Z"/><path class="cls-1" d="M29.73,14.5a.09.09,0,0,1-.1.1.1.1,0,1,1,0-.2A.09.09,0,0,1,29.73,14.5Z"/><path class="cls-1" d="M27.77,16.07a.1.1,0,1,1-.1-.1A.09.09,0,0,1,27.77,16.07Z"/><path class="cls-1" d="M27.57,15.81a.1.1,0,0,1-.1.1.11.11,0,0,1-.1-.1.1.1,0,0,1,.1-.1A.09.09,0,0,1,27.57,15.81Z"/><path class="cls-1" d="M29.54,15.33a.11.11,0,0,1-.11.1.11.11,0,0,1-.1-.1.1.1,0,0,1,.1-.1A.1.1,0,0,1,29.54,15.33Z"/><path class="cls-1" d="M28.48,16.07a.09.09,0,0,1-.1.1.1.1,0,0,1,0-.2A.09.09,0,0,1,28.48,16.07Z"/><path class="cls-1" d="M26.91,17a.1.1,0,0,1-.1.11.11.11,0,0,1-.1-.11.11.11,0,0,1,.1-.1A.1.1,0,0,1,26.91,17Z"/><path class="cls-1" d="M28.68,16.87a.1.1,0,0,1-.1.1.11.11,0,0,1-.1-.1.1.1,0,0,1,.1-.1A.09.09,0,0,1,28.68,16.87Z"/><path class="cls-1" d="M25.1,12.89a.11.11,0,0,1-.1.1.1.1,0,0,1-.1-.1.09.09,0,0,1,.1-.1A.1.1,0,0,1,25.1,12.89Z"/><path class="cls-1" d="M24.26,13.78a.11.11,0,0,1-.1.1.1.1,0,0,1-.1-.1.09.09,0,0,1,.1-.1A.1.1,0,0,1,24.26,13.78Z"/><path class="cls-1" d="M23.33,14.32a.1.1,0,0,1-.1.1.11.11,0,0,1-.1-.1.1.1,0,0,1,.1-.1A.09.09,0,0,1,23.33,14.32Z"/><path class="cls-1" d="M23.76,14.9a.11.11,0,0,1-.1.1.1.1,0,0,1-.1-.1.09.09,0,0,1,.1-.1A.1.1,0,0,1,23.76,14.9Z"/><path class="cls-1" d="M24,14.66a.1.1,0,0,1-.1.1.09.09,0,0,1-.1-.1.1.1,0,0,1,.1-.1A.11.11,0,0,1,24,14.66Z"/><path class="cls-1" d="M25.92,14.3a.1.1,0,1,1-.2,0,.1.1,0,0,1,.2,0Z"/><path class="cls-1" d="M25.3,14.8a.11.11,0,0,1-.1.1.1.1,0,0,1-.1-.1.09.09,0,0,1,.1-.1A.1.1,0,0,1,25.3,14.8Z"/><path class="cls-1" d="M25.3,15.21a.1.1,0,0,1-.1.1.09.09,0,0,1-.1-.1.1.1,0,0,1,.1-.1A.11.11,0,0,1,25.3,15.21Z"/><path class="cls-1" d="M26.9,19.52a.1.1,0,0,1-.1.1.09.09,0,0,1-.1-.1.1.1,0,0,1,.1-.1A.11.11,0,0,1,26.9,19.52Z"/><path class="cls-1" d="M25.5,15.92a.1.1,0,0,1-.2,0,.1.1,0,0,1,.2,0Z"/><path class="cls-1" d="M25.82,15.21a.1.1,0,0,1-.2,0,.1.1,0,1,1,.2,0Z"/><path class="cls-1" d="M26.8,15.31a.1.1,0,0,1-.1.1.09.09,0,0,1-.1-.1.1.1,0,0,1,.1-.1A.11.11,0,0,1,26.8,15.31Z"/><path class="cls-1" d="M26.53,16.07a.09.09,0,0,1-.1.1.1.1,0,0,1,0-.2A.09.09,0,0,1,26.53,16.07Z"/><path class="cls-1" d="M23.76,18.57a.11.11,0,0,1-.1.1.1.1,0,0,1-.1-.1.09.09,0,0,1,.1-.1A.1.1,0,0,1,23.76,18.57Z"/><path class="cls-1" d="M23.33,18.79a.1.1,0,0,1-.1.1.11.11,0,0,1-.1-.1.1.1,0,0,1,.1-.1A.09.09,0,0,1,23.33,18.79Z"/><path class="cls-1" d="M24.46,17.85a.1.1,0,0,1-.1.1.1.1,0,0,1,0-.2A.1.1,0,0,1,24.46,17.85Z"/><path class="cls-1" d="M24.7,18.41a.1.1,0,0,1-.1.1.09.09,0,0,1-.1-.1.1.1,0,0,1,.1-.1A.11.11,0,0,1,24.7,18.41Z"/><path class="cls-1" d="M24.56,18.92a.11.11,0,0,1-.1.1.1.1,0,0,1-.1-.1.09.09,0,0,1,.1-.1A.1.1,0,0,1,24.56,18.92Z"/><path class="cls-1" d="M24.8,19.21a.1.1,0,0,1-.1.1.09.09,0,0,1-.1-.1.1.1,0,0,1,.1-.1A.11.11,0,0,1,24.8,19.21Z"/><path class="cls-1" d="M24.06,19.72a.11.11,0,0,1-.1.1.1.1,0,0,1-.1-.1.09.09,0,0,1,.1-.1A.1.1,0,0,1,24.06,19.72Z"/><path class="cls-1" d="M23.66,19.47a.11.11,0,0,1-.1.1.1.1,0,0,1-.1-.1.09.09,0,0,1,.1-.1A.1.1,0,0,1,23.66,19.47Z"/><path class="cls-1" d="M24,20.15a.1.1,0,0,1-.1.1.09.09,0,0,1-.1-.1.1.1,0,0,1,.1-.1A.11.11,0,0,1,24,20.15Z"/><path class="cls-1" d="M24.9,15.33a.11.11,0,0,1-.1.1.1.1,0,0,1-.1-.1.09.09,0,0,1,.1-.1A.1.1,0,0,1,24.9,15.33Z"/><path class="cls-1" d="M24.46,15.33a.11.11,0,0,1-.1.1.1.1,0,0,1-.1-.1.09.09,0,0,1,.1-.1A.1.1,0,0,1,24.46,15.33Z"/><path class="cls-1" d="M24,15.81a.11.11,0,0,1-.1.1.1.1,0,0,1-.1-.1.09.09,0,0,1,.1-.1A.1.1,0,0,1,24,15.81Z"/><path class="cls-1" d="M24.36,16.17a.1.1,0,0,1-.1.1.09.09,0,0,1-.1-.1.1.1,0,0,1,.1-.1A.11.11,0,0,1,24.36,16.17Z"/><path class="cls-1" d="M23.66,16.07a.1.1,0,0,1-.1.1.1.1,0,0,1,0-.2A.1.1,0,0,1,23.66,16.07Z"/><path class="cls-1" d="M23.56,17a.11.11,0,0,1-.1.1.1.1,0,0,1-.1-.1.09.09,0,0,1,.1-.1A.1.1,0,0,1,23.56,17Z"/><path class="cls-1" d="M24.06,17.2a.1.1,0,0,1-.1.1.09.09,0,0,1-.1-.1.1.1,0,0,1,.1-.1A.11.11,0,0,1,24.06,17.2Z"/><path class="cls-1" d="M24,17.85a.09.09,0,0,1-.1.1.1.1,0,1,1,0-.2A.09.09,0,0,1,24,17.85Z"/><path class="cls-1" d="M23.43,17.3a.09.09,0,0,1-.1.1.1.1,0,0,1-.1-.1.11.11,0,0,1,.1-.1A.1.1,0,0,1,23.43,17.3Z"/><path class="cls-1" d="M26.86,9.6a.1.1,0,0,1-.1.1.11.11,0,0,1-.1-.1.1.1,0,0,1,.1-.1A.09.09,0,0,1,26.86,9.6Z"/><path class="cls-1" d="M24.74,6.19a.1.1,0,0,1-.1.1.09.09,0,0,1-.1-.1.1.1,0,0,1,.1-.1A.11.11,0,0,1,24.74,6.19Z"/><path class="cls-1" d="M24.41,7a.1.1,0,0,1-.2,0,.1.1,0,0,1,.2,0Z"/><path class="cls-1" d="M23.92,8.13a.11.11,0,0,1-.1.1.1.1,0,0,1-.1-.1.09.09,0,0,1,.1-.1A.1.1,0,0,1,23.92,8.13Z"/><path class="cls-1" d="M23.23,8.73a.09.09,0,0,1-.1.1.1.1,0,0,1-.1-.1.11.11,0,0,1,.1-.1A.1.1,0,0,1,23.23,8.73Z"/><path class="cls-1" d="M23,9.5a.11.11,0,0,1-.1.1.1.1,0,0,1-.1-.1.09.09,0,0,1,.1-.1A.1.1,0,0,1,23,9.5Z"/><path class="cls-1" d="M23.13,10.65a.09.09,0,0,1-.1.1.1.1,0,0,1-.1-.1.11.11,0,0,1,.1-.1A.1.1,0,0,1,23.13,10.65Z"/><path class="cls-1" d="M20.49,9.6a.15.15,0,0,1-.15.15.15.15,0,0,1-.15-.15.16.16,0,0,1,.15-.16A.15.15,0,0,1,20.49,9.6Z"/><path class="cls-1" d="M28.45,20.31a.16.16,0,0,1-.16.15.15.15,0,0,1-.15-.15.16.16,0,0,1,.15-.16A.16.16,0,0,1,28.45,20.31Z"/><path class="cls-1" d="M24.75,27.68a.16.16,0,0,1-.15.16.15.15,0,0,1-.15-.16.15.15,0,0,1,.15-.15A.15.15,0,0,1,24.75,27.68Z"/><path class="cls-1" d="M24,29a.16.16,0,0,1-.15.16.15.15,0,0,1-.15-.16.15.15,0,0,1,.15-.15A.15.15,0,0,1,24,29Z"/><path class="cls-1" d="M20.59,36.57a.16.16,0,0,1-.15.16.16.16,0,0,1-.16-.16.16.16,0,0,1,.16-.15A.15.15,0,0,1,20.59,36.57Z"/><path class="cls-1" d="M22.06,20.82a.15.15,0,0,1-.15.15.15.15,0,0,1-.15-.15.14.14,0,0,1,.15-.15A.15.15,0,0,1,22.06,20.82Z"/><path class="cls-1" d="M27.72,19.47a.15.15,0,0,1-.3,0,.15.15,0,1,1,.3,0Z"/><path class="cls-1" d="M20.8,12.44a.16.16,0,0,1-.15.16.16.16,0,0,1-.16-.16.16.16,0,0,1,.16-.15A.15.15,0,0,1,20.8,12.44Z"/><path class="cls-1" d="M29,10.29a.16.16,0,0,1-.16.15.15.15,0,0,1-.15-.15.16.16,0,0,1,.15-.16A.16.16,0,0,1,29,10.29Z"/><path class="cls-1" d="M30,6.86a.16.16,0,0,1-.16.15.15.15,0,0,1-.15-.15.16.16,0,0,1,.15-.16A.16.16,0,0,1,30,6.86Z"/><path class="cls-1" d="M12.06,7.14a.1.1,0,1,1-.2,0,.1.1,0,0,1,.2,0Z"/><path class="cls-1" d="M13.92,7.91a.1.1,0,0,1-.1.1.1.1,0,0,1,0-.2A.1.1,0,0,1,13.92,7.91Z"/><path class="cls-1" d="M13.06,8.65a.09.09,0,0,1-.1.1.1.1,0,1,1,0-.2A.09.09,0,0,1,13.06,8.65Z"/><path class="cls-1" d="M15.73,9.07a.1.1,0,0,1-.1.1.11.11,0,0,1-.1-.1.1.1,0,0,1,.1-.1A.09.09,0,0,1,15.73,9.07Z"/><path class="cls-1" d="M16.11,8.63a.09.09,0,0,1-.1.1.1.1,0,0,1-.1-.1.11.11,0,0,1,.1-.1A.1.1,0,0,1,16.11,8.63Z"/><path class="cls-1" d="M10,12.62a.1.1,0,0,1-.1.1.11.11,0,0,1-.1-.1.1.1,0,0,1,.1-.1A.09.09,0,0,1,10,12.62Z"/><path class="cls-1" d="M17.39,14.3a.11.11,0,0,1-.1.1.1.1,0,0,1-.1-.1.09.09,0,0,1,.1-.1A.1.1,0,0,1,17.39,14.3Z"/><path class="cls-1" d="M21.16,19.31a.1.1,0,0,1-.1.1.09.09,0,0,1-.1-.1.1.1,0,0,1,.1-.1A.11.11,0,0,1,21.16,19.31Z"/><path class="cls-1" d="M20.17,20.15a.09.09,0,0,1-.1.1.1.1,0,0,1-.1-.1.11.11,0,0,1,.1-.1A.1.1,0,0,1,20.17,20.15Z"/><path class="cls-1" d="M21.56,20.05a.09.09,0,0,1-.1.1.1.1,0,0,1-.1-.1.11.11,0,0,1,.1-.1A.1.1,0,0,1,21.56,20.05Z"/><path class="cls-1" d="M22.23,24.36a.1.1,0,0,1-.1.1.09.09,0,0,1-.1-.1.1.1,0,0,1,.1-.1A.11.11,0,0,1,22.23,24.36Z"/><path class="cls-1" d="M25.11,27.84a.1.1,0,0,1-.1.1.11.11,0,0,1-.1-.1.1.1,0,0,1,.1-.1A.09.09,0,0,1,25.11,27.84Z"/><path class="cls-1" d="M27.13,27.74a.1.1,0,0,1-.1.1.11.11,0,0,1-.1-.1.1.1,0,0,1,.1-.1A.09.09,0,0,1,27.13,27.74Z"/><path class="cls-1" d="M27.58,23.49a.1.1,0,0,1-.1.1.1.1,0,0,1-.09-.1.09.09,0,0,1,.09-.1A.09.09,0,0,1,27.58,23.49Z"/><path class="cls-1" d="M15.81,16.82a.09.09,0,0,1-.1.1.1.1,0,0,1-.1-.1.11.11,0,0,1,.1-.1A.1.1,0,0,1,15.81,16.82Z"/><path class="cls-1" d="M11.11,9.44a.11.11,0,0,1-.1.1.1.1,0,0,1-.1-.1.09.09,0,0,1,.1-.1A.1.1,0,0,1,11.11,9.44Z"/><path class="cls-1" d="M10.12,9.38a.09.09,0,0,1-.1.1.1.1,0,0,1-.1-.1.11.11,0,0,1,.1-.1A.1.1,0,0,1,10.12,9.38Z"/><path class="cls-1" d="M9.7,8.53a.1.1,0,0,1-.1.1.09.09,0,0,1-.1-.1.1.1,0,0,1,.1-.1A.11.11,0,0,1,9.7,8.53Z"/><path class="cls-1" d="M8,11a.11.11,0,0,1-.1.1.1.1,0,0,1-.1-.1.09.09,0,0,1,.1-.1A.1.1,0,0,1,8,11Z"/><path class="cls-1" d="M8.62,11.71a.1.1,0,0,1-.11.1.1.1,0,0,1-.1-.1.11.11,0,0,1,.1-.1A.11.11,0,0,1,8.62,11.71Z"/><path class="cls-1" d="M7.34,11.89a.09.09,0,0,1-.1.1.1.1,0,0,1-.1-.1.11.11,0,0,1,.1-.1A.1.1,0,0,1,7.34,11.89Z"/><path class="cls-1" d="M6.8,12.29a.11.11,0,0,1-.1.1.1.1,0,0,1-.1-.1.09.09,0,0,1,.1-.1A.1.1,0,0,1,6.8,12.29Z"/><path class="cls-1" d="M7.24,13.76a.1.1,0,0,1-.1.1.11.11,0,0,1-.1-.1.1.1,0,0,1,.1-.1A.09.09,0,0,1,7.24,13.76Z"/><path class="cls-1" d="M5.2,16.88a.1.1,0,0,1-.1.1.09.09,0,0,1-.1-.1.1.1,0,0,1,.1-.1A.11.11,0,0,1,5.2,16.88Z"/><path class="cls-1" d="M5.1,23.25a.1.1,0,0,1-.1.1.09.09,0,0,1-.1-.1.1.1,0,0,1,.1-.1A.11.11,0,0,1,5.1,23.25Z"/><path class="cls-1" d="M6.05,23.3a.1.1,0,0,1-.1.1.11.11,0,0,1-.1-.1.1.1,0,0,1,.1-.1A.09.09,0,0,1,6.05,23.3Z"/><path class="cls-1" d="M6.55,26.51a.1.1,0,0,1-.1.1.09.09,0,0,1-.1-.1.1.1,0,0,1,.1-.1A.11.11,0,0,1,6.55,26.51Z"/><path class="cls-1" d="M5.2,27.08a.1.1,0,0,1-.1.1.09.09,0,0,1-.1-.1.1.1,0,0,1,.1-.1A.11.11,0,0,1,5.2,27.08Z"/><path class="cls-1" d="M8.5,38.43a.1.1,0,1,1,.15,0A.11.11,0,0,1,8.5,38.43Z"/><path class="cls-1" d="M10,39.11A.11.11,0,0,1,10,39a.1.1,0,0,1,.14.14A.11.11,0,0,1,10,39.11Z"/><path class="cls-1" d="M8.61,40.85a.1.1,0,1,1,.14,0A.1.1,0,0,1,8.61,40.85Z"/><path class="cls-1" d="M5.48,37.26a.1.1,0,0,1,.14-.14.11.11,0,0,1,0,.14A.11.11,0,0,1,5.48,37.26Z"/><path class="cls-1" d="M9.37,36.36a.1.1,0,0,1,.13-.15.09.09,0,0,1,0,.14A.1.1,0,0,1,9.37,36.36Z"/><path class="cls-1" d="M7,39.68a.11.11,0,0,1,0-.15.1.1,0,0,1,.14.14A.11.11,0,0,1,7,39.68Z"/><path class="cls-1" d="M6.67,41.34a.1.1,0,0,1,0-.14.1.1,0,1,1,.15.13A.11.11,0,0,1,6.67,41.34Z"/><path class="cls-1" d="M6.61,43a.1.1,0,1,1,.13-.15.1.1,0,1,1-.13.15Z"/><path class="cls-1" d="M6.14,45.67a.11.11,0,0,1,0-.14.11.11,0,0,1,.15,0,.1.1,0,0,1-.14.14Z"/><path class="cls-1" d="M11.19,31.19a.1.1,0,0,1,0-.14.11.11,0,0,1,.14,0,.12.12,0,0,1,0,.15A.11.11,0,0,1,11.19,31.19Z"/><path class="cls-1" d="M7.55,29.79a.11.11,0,0,1,0-.14.1.1,0,0,1,.15.13A.11.11,0,0,1,7.55,29.79Z"/><path class="cls-1" d="M15.32,31.36a.1.1,0,1,1,.13-.15.1.1,0,0,1,0,.15A.1.1,0,0,1,15.32,31.36Z"/><path class="cls-1" d="M6.24,30.74a.11.11,0,0,1,0-.14.12.12,0,0,1,.15,0,.11.11,0,0,1,0,.15A.1.1,0,0,1,6.24,30.74Z"/><path class="cls-1" d="M4.16,32.67a.1.1,0,0,1,0-.14.11.11,0,0,1,.14,0,.11.11,0,0,1,0,.15A.1.1,0,0,1,4.16,32.67Z"/><path class="cls-1" d="M20,41.2a.1.1,0,0,1,.14-.14.11.11,0,0,1,0,.14A.11.11,0,0,1,20,41.2Z"/><path class="cls-1" d="M25.18,38.09a.1.1,0,0,1,.14-.14.11.11,0,0,1,0,.14A.11.11,0,0,1,25.18,38.09Z"/><path class="cls-1" d="M28.34,36.39a.1.1,0,1,1,.14,0A.1.1,0,0,1,28.34,36.39Z"/><path class="cls-1" d="M25.08,32.7a.1.1,0,0,1,0-.14.11.11,0,0,1,.14,0,.1.1,0,1,1-.14.15Z"/><path class="cls-1" d="M22.89,38.36a.11.11,0,0,1,0-.14.1.1,0,0,1,.14,0,.09.09,0,0,1,0,.14A.1.1,0,0,1,22.89,38.36Z"/><path class="cls-1" d="M16.29,39.44a.1.1,0,0,1,.14-.14.11.11,0,0,1,0,.14A.11.11,0,0,1,16.29,39.44Z"/><path class="cls-1" d="M16.53,42.48a.1.1,0,0,1,.14-.15.11.11,0,0,1,0,.14A.11.11,0,0,1,16.53,42.48Z"/><path class="cls-1" d="M18,40.71a.11.11,0,0,1,0-.15.1.1,0,0,1,.14,0,.09.09,0,0,1,0,.14A.11.11,0,0,1,18,40.71Z"/><path class="cls-1" d="M25.4,43.56a.1.1,0,1,1,.14,0A.1.1,0,0,1,25.4,43.56Z"/><path class="cls-1" d="M26.92,51.33a.1.1,0,1,1,.14,0A.1.1,0,0,1,26.92,51.33Z"/><path class="cls-1" d="M17.75,51.26a.1.1,0,1,1,.13-.15.1.1,0,0,1,0,.15A.1.1,0,0,1,17.75,51.26Z"/><path class="cls-1" d="M7.83,24.08a.1.1,0,1,1,.14,0A.1.1,0,0,1,7.83,24.08Z"/><path class="cls-1" d="M13.8,37.89a.1.1,0,1,1,.14,0A.1.1,0,0,1,13.8,37.89Z"/><path class="cls-1" d="M8.42,36.17a.1.1,0,1,1,.14,0A.1.1,0,0,1,8.42,36.17Z"/><path class="cls-1" d="M9.36,31.4a.1.1,0,1,1,.14,0A.1.1,0,0,1,9.36,31.4Z"/><path class="cls-1" d="M10.78,33.05a.1.1,0,1,1,.14,0A.1.1,0,0,1,10.78,33.05Z"/><path class="cls-1" d="M8.76,34.19a.12.12,0,0,1,0-.15.11.11,0,0,1,.15,0,.1.1,0,0,1,0,.14A.11.11,0,0,1,8.76,34.19Z"/><path class="cls-1" d="M12.06,38.93a.11.11,0,0,1,0-.14.11.11,0,0,1,.15,0,.1.1,0,0,1-.14.14Z"/><path class="cls-1" d="M9.8,44.09a.1.1,0,1,1,.14,0A.1.1,0,0,1,9.8,44.09Z"/><path class="cls-1" d="M8,46.18A.1.1,0,0,1,8,46a.09.09,0,0,1,.14,0,.1.1,0,0,1,0,.14A.11.11,0,0,1,8,46.18Z"/><path class="cls-1" d="M6,48.89a.1.1,0,0,1,0-.14.11.11,0,0,1,.14,0,.11.11,0,0,1,0,.15A.1.1,0,0,1,6,48.89Z"/><path class="cls-1" d="M8.45,50.47a.1.1,0,0,1,0-.14.11.11,0,0,1,.14,0,.11.11,0,0,1,0,.15A.1.1,0,0,1,8.45,50.47Z"/><path class="cls-1" d="M12,50.81a.1.1,0,0,1,.14-.14.11.11,0,0,1,0,.14A.11.11,0,0,1,12,50.81Z"/><path class="cls-1" d="M12,52.63a.1.1,0,1,1,.14,0A.1.1,0,0,1,12,52.63Z"/><path class="cls-1" d="M27.28,10.48a.1.1,0,1,1,.15,0A.11.11,0,0,1,27.28,10.48Z"/><path class="cls-1" d="M24.59,9.4a.1.1,0,0,1,0-.14.11.11,0,0,1,.14,0,.1.1,0,0,1,0,.14A.09.09,0,0,1,24.59,9.4Z"/><path class="cls-1" d="M25.76,7.46a.1.1,0,1,1,.14,0A.1.1,0,0,1,25.76,7.46Z"/><path class="cls-1" d="M12.5,14.87a.1.1,0,0,1,.14-.14.11.11,0,0,1,0,.14A.11.11,0,0,1,12.5,14.87Z"/><path class="cls-1" d="M9,14.88a.11.11,0,0,1,0-.14.11.11,0,0,1,.15,0,.1.1,0,0,1-.14.15Z"/><path class="cls-1" d="M17.05,24.18a.1.1,0,0,1,.14-.14.11.11,0,0,1,0,.14A.11.11,0,0,1,17.05,24.18Z"/><path class="cls-1" d="M18.07,22.88a.12.12,0,0,1,0-.15.11.11,0,0,1,.15,0,.1.1,0,0,1,0,.14A.11.11,0,0,1,18.07,22.88Z"/><path class="cls-1" d="M19.13,26.13a.1.1,0,0,1,.14-.14.11.11,0,0,1,0,.14A.11.11,0,0,1,19.13,26.13Z"/><path class="cls-1" d="M20.56,27.74a.1.1,0,0,1,0-.14.11.11,0,0,1,.14,0,.12.12,0,0,1,0,.15A.11.11,0,0,1,20.56,27.74Z"/><path class="cls-1" d="M10.18,28.19a.11.11,0,0,1,0-.14.1.1,0,0,1,.14,0,.09.09,0,0,1,0,.14A.1.1,0,0,1,10.18,28.19Z"/><path class="cls-1" d="M14.24,32.22a.11.11,0,0,1,0-.14.12.12,0,0,1,.15,0,.11.11,0,0,1,0,.15A.1.1,0,0,1,14.24,32.22Z"/><path class="cls-1" d="M7.15,24.47a.1.1,0,1,1,.14,0A.1.1,0,0,1,7.15,24.47Z"/><path class="cls-1" d="M7.7,19.87a.11.11,0,0,1,0-.14.11.11,0,0,1,.15,0,.1.1,0,0,1-.14.14Z"/><path class="cls-1" d="M5,20.26a.1.1,0,0,1,0-.14.11.11,0,0,1,.14,0,.1.1,0,1,1-.14.15Z"/><path class="cls-1" d="M4.08,12.67a.09.09,0,0,1,0-.14.1.1,0,1,1,0,.14Z"/><path class="cls-1" d="M8.21,5.82a.1.1,0,0,1,0-.14.11.11,0,0,1,.14,0,.1.1,0,0,1,0,.15A.1.1,0,0,1,8.21,5.82Z"/><path class="cls-1" d="M4.25,4.63a.11.11,0,0,1,0-.15.1.1,0,0,1,.14.14A.11.11,0,0,1,4.25,4.63Z"/><path class="cls-1" d="M30.12,9.18a.12.12,0,0,1,0-.15"/><path class="cls-1" d="M27.32,6.17A.1.1,0,0,1,27.46,6a.11.11,0,0,1,0,.14A.11.11,0,0,1,27.32,6.17Z"/><path class="cls-1" d="M29.28,18.75a.1.1,0,0,1,.14-.15.11.11,0,0,1,0,.14A.11.11,0,0,1,29.28,18.75Z"/><path class="cls-1" d="M27,34.15a.1.1,0,1,1,.14,0A.1.1,0,0,1,27,34.15Z"/><path class="cls-1" d="M27,37.69a.11.11,0,0,1,0-.14.12.12,0,0,1,.15,0,.1.1,0,0,1,0,.14A.09.09,0,0,1,27,37.69Z"/><path class="cls-1" d="M22.32,36.24a.11.11,0,0,1,0-.14.1.1,0,0,1,.14,0,.09.09,0,0,1,0,.14A.1.1,0,0,1,22.32,36.24Z"/><path class="cls-1" d="M26.52,41.75a.1.1,0,1,1,.14,0A.1.1,0,0,1,26.52,41.75Z"/><path class="cls-1" d="M23.38,43a.1.1,0,1,1,.14,0A.1.1,0,0,1,23.38,43Z"/><path class="cls-1" d="M21,42.51a.1.1,0,0,1,0-.14.11.11,0,0,1,.14,0,.1.1,0,1,1-.14.15Z"/><path class="cls-1" d="M21.3,46.68a.1.1,0,0,1,0-.14.11.11,0,0,1,.14,0,.11.11,0,0,1,0,.15A.1.1,0,0,1,21.3,46.68Z"/><path class="cls-1" d="M19.76,49.1a.11.11,0,0,1,0-.15.1.1,0,0,1,.15.14A.12.12,0,0,1,19.76,49.1Z"/><path class="cls-1" d="M26.28,45.25a.1.1,0,1,1,.14,0A.1.1,0,0,1,26.28,45.25Z"/><path class="cls-1" d="M23.83,45.54a.1.1,0,0,1,0-.14.11.11,0,0,1,.14,0,.11.11,0,0,1,0,.15A.1.1,0,0,1,23.83,45.54Z"/><path class="cls-1" d="M26.38,49.9a.1.1,0,1,1,.14,0A.1.1,0,0,1,26.38,49.9Z"/><path class="cls-1" d="M22.54,49.38a.1.1,0,0,1,.14-.15.11.11,0,0,1,0,.14A.11.11,0,0,1,22.54,49.38Z"/><path class="cls-1" d="M22,51.31a.1.1,0,1,1,.14,0A.1.1,0,0,1,22,51.31Z"/><path class="cls-1" d="M13.33,52.07a.1.1,0,0,1,.14-.15.11.11,0,0,1,0,.14A.11.11,0,0,1,13.33,52.07Z"/><path class="cls-1" d="M12.73,50a.1.1,0,0,1,.14-.15.11.11,0,0,1,0,.14A.11.11,0,0,1,12.73,50Z"/><path class="cls-1" d="M9.81,49.39a.11.11,0,0,1,0-.15.1.1,0,0,1,.14.14A.11.11,0,0,1,9.81,49.39Z"/><path class="cls-1" d="M7.69,49a.1.1,0,0,1,0-.14.11.11,0,0,1,.14,0,.11.11,0,0,1,0,.15A.1.1,0,0,1,7.69,49Z"/><path class="cls-1" d="M5.8,48.08a.1.1,0,1,1,.14,0A.1.1,0,0,1,5.8,48.08Z"/><path class="cls-1" d="M7.41,35.29a.18.18,0,0,1,0-.25.18.18,0,0,1,.25,0,.18.18,0,0,1,0,.25A.17.17,0,0,1,7.41,35.29Z"/><path class="cls-1" d="M15.85,36.14a.18.18,0,0,1,0-.25.18.18,0,0,1,.25,0,.18.18,0,0,1-.24.26Z"/><path class="cls-1" d="M5.64,28.18a.09.09,0,0,1,0-.14.1.1,0,0,1,.14,0,.11.11,0,0,1,0,.15A.1.1,0,0,1,5.64,28.18Z"/><path class="cls-1" d="M3.9,30.44a.11.11,0,0,1,0-.15.1.1,0,0,1,.15.14A.11.11,0,0,1,3.9,30.44Z"/><path class="cls-1" d="M3.62,32a.18.18,0,1,1,.24-.26.18.18,0,1,1-.24.26Z"/><path class="cls-1" d="M4.27,47.08a.18.18,0,1,1,.26,0A.18.18,0,0,1,4.27,47.08Z"/><path class="cls-1" d="M4.36,41.13a.13.13,0,1,1,.19,0A.14.14,0,0,1,4.36,41.13Z"/><path class="cls-1" d="M7,38.88a.13.13,0,0,1,0-.19.14.14,0,1,1,0,.19Z"/><path class="cls-1" d="M8.65,33a.13.13,0,0,1,0-.19.14.14,0,0,1,.19,0,.13.13,0,0,1-.18.2Z"/><path class="cls-1" d="M17.85,33.34a.13.13,0,0,1,0-.19.14.14,0,1,1,0,.19Z"/><path class="cls-1" d="M18.71,34.24a.13.13,0,1,1,.18-.2.14.14,0,0,1,0,.19A.13.13,0,0,1,18.71,34.24Z"/><path class="cls-1" d="M18.64,35.22a.14.14,0,0,1,.19-.2.14.14,0,0,1,0,.19A.13.13,0,0,1,18.64,35.22Z"/><path class="cls-1" d="M5.53,24.58a.1.1,0,0,1-.1.1.11.11,0,0,1-.1-.1.1.1,0,0,1,.1-.1A.09.09,0,0,1,5.53,24.58Z"/><path class="cls-1" d="M4.64,26.06a.11.11,0,0,1-.1.1.1.1,0,0,1-.1-.1.09.09,0,0,1,.1-.1A.1.1,0,0,1,4.64,26.06Z"/><path class="cls-1" d="M6.25,26a.09.09,0,0,1-.1.1.1.1,0,0,1-.1-.1.11.11,0,0,1,.1-.1A.1.1,0,0,1,6.25,26Z"/><path class="cls-1" d="M4.2,16.88a.1.1,0,0,1-.1.1.09.09,0,0,1-.1-.1.1.1,0,0,1,.1-.1A.11.11,0,0,1,4.2,16.88Z"/><path class="cls-1" d="M5.28,17.45a.18.18,0,1,1-.18-.18A.18.18,0,0,1,5.28,17.45Z"/><path class="cls-1" d="M4.44,29.61a.18.18,0,1,1-.18-.18A.18.18,0,0,1,4.44,29.61Z"/><path class="cls-1" d="M6.64,18.41a.18.18,0,0,1-.18.18.18.18,0,0,1,0-.36A.18.18,0,0,1,6.64,18.41Z"/><path class="cls-1" d="M4.79,12.52a.1.1,0,0,1-.1.1.09.09,0,0,1-.1-.1.1.1,0,0,1,.1-.1A.11.11,0,0,1,4.79,12.52Z"/><path class="cls-1" d="M9.5,11.71a.1.1,0,0,1-.1.1.09.09,0,0,1-.1-.1.1.1,0,0,1,.1-.1A.11.11,0,0,1,9.5,11.71Z"/><path class="cls-1" d="M8.72,13.66a.1.1,0,0,1-.1.1.1.1,0,1,1,0-.2A.1.1,0,0,1,8.72,13.66Z"/><path class="cls-1" d="M8.28,14.32a.1.1,0,0,1-.1.1.11.11,0,0,1-.1-.1.1.1,0,0,1,.1-.1A.09.09,0,0,1,8.28,14.32Z"/><path class="cls-1" d="M7.7,14.9a.19.19,0,0,1-.2.19.18.18,0,0,1-.19-.19.19.19,0,0,1,.19-.2A.2.2,0,0,1,7.7,14.9Z"/><path class="cls-1" d="M15.57,18.59a.2.2,0,0,1-.2.2.2.2,0,0,1,0-.4A.2.2,0,0,1,15.57,18.59Z"/><path class="cls-1" d="M17.71,21.81a.2.2,0,1,1-.2-.2A.2.2,0,0,1,17.71,21.81Z"/><path class="cls-1" d="M29.83,18.21a.2.2,0,1,1-.2-.2A.2.2,0,0,1,29.83,18.21Z"/><path class="cls-1" d="M30.17,14.76a.2.2,0,0,1,0-.4"/><path class="cls-1" d="M27.57,21.17a.2.2,0,1,1-.2-.2A.2.2,0,0,1,27.57,21.17Z"/><path class="cls-1" d="M28.74,27.94a.19.19,0,0,1-.2.2.2.2,0,0,1,0-.4A.19.19,0,0,1,28.74,27.94Z"/><path class="cls-1" d="M25.57,29.23a.2.2,0,0,1-.4,0,.2.2,0,0,1,.4,0Z"/><path class="cls-1" d="M23.65,34.69a.2.2,0,0,1-.4,0,.2.2,0,1,1,.4,0Z"/><path class="cls-1" d="M22.28,31.87a.2.2,0,1,1-.2-.2A.2.2,0,0,1,22.28,31.87Z"/><path class="cls-1" d="M28.1,30.69a.2.2,0,1,1-.19-.2A.2.2,0,0,1,28.1,30.69Z"/><path class="cls-1" d="M30.13,34.14a.2.2,0,1,1,0-.4"/><path class="cls-1" d="M29.49,47.5a.19.19,0,0,1-.2.19.18.18,0,0,1-.19-.19.19.19,0,0,1,.19-.2A.2.2,0,0,1,29.49,47.5Z"/><path class="cls-1" d="M26.63,19.72a.2.2,0,1,1-.2-.2A.2.2,0,0,1,26.63,19.72Z"/><path class="cls-1" d="M29,17.62a.2.2,0,1,1-.2-.2A.2.2,0,0,1,29,17.62Z"/><path class="cls-1" d="M8.4,12.91a.1.1,0,0,1-.1.1.1.1,0,1,1,0-.2A.1.1,0,0,1,8.4,12.91Z"/><path class="cls-1" d="M9.34,17.68a.11.11,0,0,1-.1.1.1.1,0,0,1-.1-.1.09.09,0,0,1,.1-.1A.1.1,0,0,1,9.34,17.68Z"/><path class="cls-1" d="M5.67,10.15a.1.1,0,0,1-.1.1.11.11,0,0,1-.1-.1.1.1,0,0,1,.1-.1A.09.09,0,0,1,5.67,10.15Z"/><path class="cls-1" d="M4.8,7.46a.09.09,0,0,1-.1.1.1.1,0,0,1-.1-.1.11.11,0,0,1,.1-.1A.1.1,0,0,1,4.8,7.46Z"/><path class="cls-1" d="M4.69,4a.11.11,0,0,1-.1.1.1.1,0,0,1-.1-.1.09.09,0,0,1,.1-.1A.1.1,0,0,1,4.69,4Z"/><path class="cls-1" d="M4.3,3.51a.11.11,0,0,1-.1.1.1.1,0,0,1-.1-.1.09.09,0,0,1,.1-.1A.1.1,0,0,1,4.3,3.51Z"/><path class="cls-1" d="M5.79,4a.11.11,0,0,1-.1.1.1.1,0,0,1-.1-.1.09.09,0,0,1,.1-.1A.1.1,0,0,1,5.79,4Z"/><path class="cls-1" d="M5.79,6.52a.1.1,0,0,1-.1.1.09.09,0,0,1-.1-.1.1.1,0,0,1,.1-.1A.11.11,0,0,1,5.79,6.52Z"/><path class="cls-1" d="M6.9,8.27a.1.1,0,0,1-.1.1.09.09,0,0,1-.1-.1.1.1,0,0,1,.1-.1A.11.11,0,0,1,6.9,8.27Z"/><path class="cls-1" d="M8,4.34a.21.21,0,0,1-.21.21.21.21,0,1,1,0-.42A.21.21,0,0,1,8,4.34Z"/><path class="cls-1" d="M8.18,7.8a.21.21,0,0,1-.42,0,.21.21,0,1,1,.42,0Z"/><path class="cls-1" d="M12.56,6.79a.22.22,0,1,1-.43,0,.21.21,0,0,1,.21-.21A.21.21,0,0,1,12.56,6.79Z"/><path class="cls-1" d="M14.35,11.61a.22.22,0,1,1-.43,0,.22.22,0,0,1,.43,0Z"/><path class="cls-1" d="M18.88,9.81a.32.32,0,0,1-.33.32.32.32,0,0,1-.32-.32.32.32,0,0,1,.32-.33A.33.33,0,0,1,18.88,9.81Z"/><path class="cls-1" d="M17.08,9.73a.24.24,0,1,1-.23-.23A.23.23,0,0,1,17.08,9.73Z"/><path class="cls-1" d="M23.42,8.13a.23.23,0,0,1-.24.23A.23.23,0,0,1,23,8.13a.23.23,0,0,1,.23-.24A.24.24,0,0,1,23.42,8.13Z"/><path class="cls-1" d="M21.64,6.19a.23.23,0,0,1-.24.23.23.23,0,0,1,0-.46A.23.23,0,0,1,21.64,6.19Z"/><path class="cls-1" d="M27.1,4.46a.23.23,0,0,1-.24.23.23.23,0,0,1,0-.46A.23.23,0,0,1,27.1,4.46Z"/><path class="cls-1" d="M22.44,13.12a.23.23,0,1,1-.23-.23A.23.23,0,0,1,22.44,13.12Z"/><path class="cls-1" d="M25.72,17.62a.23.23,0,0,1-.23.23.23.23,0,0,1-.24-.23.24.24,0,0,1,.24-.24A.23.23,0,0,1,25.72,17.62Z"/><path class="cls-1" d="M26.58,16.75a.23.23,0,1,1-.23-.23A.23.23,0,0,1,26.58,16.75Z"/><path class="cls-1" d="M27.26,18.89a.23.23,0,1,1-.23-.23A.23.23,0,0,1,27.26,18.89Z"/><path class="cls-1" d="M30,26.08a.23.23,0,1,1-.23-.24A.23.23,0,0,1,30,26.08Z"/><path class="cls-1" d="M26.86,32.88a.23.23,0,1,1-.46,0,.23.23,0,1,1,.46,0Z"/><path class="cls-1" d="M30.06,47a.23.23,0,1,1,0-.46"/><path class="cls-1" d="M23.81,30.2a.24.24,0,0,1-.47,0,.24.24,0,1,1,.47,0Z"/><path class="cls-1" d="M24.39,16.64a.23.23,0,0,1-.23.23.24.24,0,1,1,0-.47A.23.23,0,0,1,24.39,16.64Z"/><path class="cls-1" d="M29.55,16.75a.23.23,0,1,1-.23-.23A.23.23,0,0,1,29.55,16.75Z"/><path class="cls-1" d="M24.93,21a.23.23,0,0,1-.23.23.23.23,0,1,1,0-.46A.23.23,0,0,1,24.93,21Z"/><path class="cls-1" d="M19.85,17.25a.24.24,0,0,1-.24.24.23.23,0,0,1-.23-.24.23.23,0,0,1,.23-.23A.23.23,0,0,1,19.85,17.25Z"/><path class="cls-1" d="M22.5,16.52a.23.23,0,1,1-.23-.23A.23.23,0,0,1,22.5,16.52Z"/><path class="cls-1" d="M22.38,11.58a.23.23,0,0,1-.24.23.23.23,0,0,1,0-.46A.23.23,0,0,1,22.38,11.58Z"/><path class="cls-1" d="M8.65,17.78a.24.24,0,1,1-.24-.23A.23.23,0,0,1,8.65,17.78Z"/><path class="cls-1" d="M16.15,18.92a.24.24,0,1,1-.24-.23A.23.23,0,0,1,16.15,18.92Z"/><path class="cls-1" d="M8.65,22.44a.24.24,0,1,1-.24-.23A.23.23,0,0,1,8.65,22.44Z"/><path class="cls-1" d="M9.05,27.66a.23.23,0,1,1-.23-.23A.23.23,0,0,1,9.05,27.66Z"/><path class="cls-1" d="M6.91,27.39a.23.23,0,0,1-.24.23.23.23,0,0,1-.23-.23.23.23,0,0,1,.23-.24A.24.24,0,0,1,6.91,27.39Z"/><path class="cls-1" d="M12.78,40.62a.24.24,0,0,1-.24.23.24.24,0,0,1,0-.47A.24.24,0,0,1,12.78,40.62Z"/><path class="cls-1" d="M10.14,36.31a.24.24,0,1,1-.23-.23A.24.24,0,0,1,10.14,36.31Z"/><path class="cls-1" d="M12.73,30.45a.24.24,0,1,1-.23-.23A.23.23,0,0,1,12.73,30.45Z"/><path class="cls-1" d="M16.83,28.46a.23.23,0,0,1-.24.23.23.23,0,0,1-.23-.23.23.23,0,0,1,.23-.24A.24.24,0,0,1,16.83,28.46Z"/><path class="cls-1" d="M28.26,7.3A.24.24,0,1,1,28,7.07.23.23,0,0,1,28.26,7.3Z"/><path class="cls-1" d="M21.71,40.73a.23.23,0,1,1-.23-.23A.23.23,0,0,1,21.71,40.73Z"/><path class="cls-1" d="M17.57,40.27a.23.23,0,0,1-.23.24.24.24,0,0,1-.24-.24.23.23,0,0,1,.24-.23A.23.23,0,0,1,17.57,40.27Z"/><path class="cls-1" d="M7.74,45.2a.24.24,0,0,1-.24.24.23.23,0,0,1-.23-.24A.23.23,0,0,1,7.5,45,.23.23,0,0,1,7.74,45.2Z"/><path class="cls-1" d="M4.19,44.54A.23.23,0,1,1,4,44.31.23.23,0,0,1,4.19,44.54Z"/><path class="cls-1" d="M29.19,36.34a.23.23,0,1,1-.46,0,.23.23,0,1,1,.46,0Z"/><path class="cls-1" d="M3.72,33.52a.1.1,0,0,1,0-.14.09.09,0,0,1,.14,0,.11.11,0,0,1,0,.14A.12.12,0,0,1,3.72,33.52Z"/><path class="cls-1" d="M3.69,35.38a.09.09,0,0,1,0-.14.1.1,0,1,1,0,.14Z"/><path class="cls-1" d="M26,42.13A.11.11,0,0,1,26,42a.1.1,0,0,1,.14.14A.11.11,0,0,1,26,42.13Z"/><path class="cls-1" d="M24.73,38.77a.09.09,0,0,1,0-.14.1.1,0,1,1,0,.14Z"/><path class="cls-1" d="M19.28,38.31a.1.1,0,0,1,0-.14.11.11,0,0,1,.14,0,.12.12,0,0,1,0,.15A.11.11,0,0,1,19.28,38.31Z"/><path class="cls-1" d="M23.44,35.38a.1.1,0,0,1,0-.14.09.09,0,0,1,.14,0,.1.1,0,0,1,0,.14A.11.11,0,0,1,23.44,35.38Z"/><path class="cls-1" d="M25,34.27a.1.1,0,0,1,.14-.14.11.11,0,0,1,0,.14A.11.11,0,0,1,25,34.27Z"/><path class="cls-1" d="M26.34,30.07a.1.1,0,0,1,.14-.14.11.11,0,0,1,0,.14A.11.11,0,0,1,26.34,30.07Z"/><path class="cls-1" d="M22.79,30.06a.11.11,0,0,1,0-.15.1.1,0,0,1,.14.14A.11.11,0,0,1,22.79,30.06Z"/><path class="cls-1" d="M24.22,30.81a.1.1,0,1,1,.14,0A.11.11,0,0,1,24.22,30.81Z"/><path class="cls-1" d="M14.19,33.27a.11.11,0,0,1,0-.14.11.11,0,0,1,.15,0,.1.1,0,0,1-.14.14Z"/><path class="cls-1" d="M12.88,33.33a.11.11,0,0,1,0-.14.11.11,0,0,1,.15,0,.1.1,0,0,1-.14.14Z"/><path class="cls-1" d="M10.72,32.18a.1.1,0,0,1,0-.14.11.11,0,0,1,.14,0,.12.12,0,0,1,0,.15A.11.11,0,0,1,10.72,32.18Z"/><path class="cls-1" d="M8.54,30.11a.1.1,0,0,1,0-.14.11.11,0,0,1,.14,0,.11.11,0,0,1,0,.15A.1.1,0,0,1,8.54,30.11Z"/><path class="cls-1" d="M7.26,30.91a.1.1,0,0,1,0-.14.11.11,0,0,1,.14,0,.12.12,0,0,1,0,.15A.11.11,0,0,1,7.26,30.91Z"/><path class="cls-1" d="M8.82,28.56A.1.1,0,0,1,9,28.42a.11.11,0,0,1,0,.14A.11.11,0,0,1,8.82,28.56Z"/><path class="cls-1" d="M11.17,28.19a.11.11,0,0,1,0-.15.1.1,0,0,1,.15.14A.11.11,0,0,1,11.17,28.19Z"/><path class="cls-1" d="M29.05,39.11A.11.11,0,0,1,29,39a.12.12,0,0,1,.15,0,.1.1,0,0,1-.14.15Z"/><path class="cls-1" d="M24,49.88a.11.11,0,0,1,0-.14.1.1,0,0,1,.14,0,.09.09,0,0,1,0,.14A.1.1,0,0,1,24,49.88Z"/><path class="cls-1" d="M20.22,51.5a.1.1,0,1,1,.15,0A.11.11,0,0,1,20.22,51.5Z"/><path class="cls-1" d="M16.75,50.82a.1.1,0,0,1,0-.14.11.11,0,0,1,.14,0,.12.12,0,0,1,0,.15A.11.11,0,0,1,16.75,50.82Z"/><path class="cls-1" d="M25.52,44.38a.1.1,0,0,1,0-.14.11.11,0,0,1,.14,0,.11.11,0,0,1,0,.15A.1.1,0,0,1,25.52,44.38Z"/><path class="cls-1" d="M24.41,45.56a.1.1,0,0,1,0-.14.11.11,0,0,1,.14,0,.09.09,0,0,1,0,.14A.1.1,0,0,1,24.41,45.56Z"/><path class="cls-1" d="M22.62,46.47a.12.12,0,0,1,0-.15.11.11,0,0,1,.15,0,.1.1,0,0,1,0,.14A.11.11,0,0,1,22.62,46.47Z"/><path class="cls-1" d="M21,46.75a.1.1,0,1,1,.14,0A.1.1,0,0,1,21,46.75Z"/><path class="cls-1" d="M19.75,45.85a.1.1,0,1,1,.14,0A.1.1,0,0,1,19.75,45.85Z"/><path class="cls-1" d="M20.49,45.3a.1.1,0,0,1,.13-.15.1.1,0,0,1,0,.15A.1.1,0,0,1,20.49,45.3Z"/><path class="cls-1" d="M20.48,43.93a.1.1,0,1,1,.14,0A.1.1,0,0,1,20.48,43.93Z"/><path class="cls-1" d="M23.56,43.15a.1.1,0,1,1,.14,0A.1.1,0,0,1,23.56,43.15Z"/><path class="cls-1" d="M23.09,45.16a.11.11,0,0,1,0-.14.11.11,0,0,1,.15,0,.1.1,0,1,1-.14.14Z"/><path class="cls-1" d="M21.54,46a.1.1,0,1,1,.14,0A.1.1,0,0,1,21.54,46Z"/><path class="cls-1" d="M27.45,44.23a.1.1,0,0,1,.14-.15.11.11,0,0,1,0,.14A.11.11,0,0,1,27.45,44.23Z"/><path class="cls-1" d="M23.7,44.38a.1.1,0,1,1,.14,0A.1.1,0,0,1,23.7,44.38Z"/><path class="cls-1" d="M24.78,42.45a.1.1,0,1,1,.14,0A.1.1,0,0,1,24.78,42.45Z"/><path class="cls-1" d="M28.05,41.82a.1.1,0,1,1,.15,0A.11.11,0,0,1,28.05,41.82Z"/><path class="cls-1" d="M26.71,43.46a.1.1,0,0,1,0-.14.11.11,0,0,1,.14,0,.12.12,0,0,1,0,.15A.11.11,0,0,1,26.71,43.46Z"/><path class="cls-1" d="M29.47,43a.1.1,0,1,1,.14,0A.1.1,0,0,1,29.47,43Z"/><path class="cls-1" d="M7.31,8a.2.2,0,1,1-.2-.2A.2.2,0,0,1,7.31,8Z"/><path class="cls-1" d="M16.36,6a.2.2,0,1,1-.2-.2A.2.2,0,0,1,16.36,6Z"/><path class="cls-1" d="M11.58,10.25a.2.2,0,1,1-.2-.2A.2.2,0,0,1,11.58,10.25Z"/><path class="cls-1" d="M7.19,11.24A.2.2,0,1,1,7,11,.2.2,0,0,1,7.19,11.24Z"/><path class="cls-1" d="M6.23,11.51a.2.2,0,0,1-.4,0,.2.2,0,0,1,.4,0Z"/><path class="cls-1" d="M8,22a.2.2,0,1,1-.2-.2A.2.2,0,0,1,8,22Z"/><path class="cls-1" d="M11.62,21.42a.2.2,0,1,1-.2-.2A.2.2,0,0,1,11.62,21.42Z"/><path class="cls-1" d="M10.42,17.65a.2.2,0,1,1-.2-.2A.2.2,0,0,1,10.42,17.65Z"/><path class="cls-1" d="M19.14,19.62a.2.2,0,0,1-.2.2.2.2,0,0,1,0-.4A.2.2,0,0,1,19.14,19.62Z"/><path class="cls-1" d="M19.61,21a.2.2,0,0,1-.2.2.2.2,0,0,1,0-.4A.2.2,0,0,1,19.61,21Z"/><circle class="cls-1" cx="22.5" cy="18.39" r="0.2"/><path class="cls-1" d="M22.41,18a.2.2,0,1,1-.2-.2A.2.2,0,0,1,22.41,18Z"/><path class="cls-1" d="M19.85,14.9a.2.2,0,0,1-.4,0,.2.2,0,0,1,.4,0Z"/><path class="cls-1" d="M23.13,14.9a.2.2,0,0,1-.4,0,.2.2,0,1,1,.4,0Z"/><path class="cls-1" d="M24.06,11.19a.2.2,0,0,1-.4,0,.2.2,0,0,1,.4,0Z"/><path class="cls-1" d="M13.66,29.43a.2.2,0,1,1-.2-.2A.2.2,0,0,1,13.66,29.43Z"/><path class="cls-1" d="M18.93,31.28a.2.2,0,1,1-.2-.2A.2.2,0,0,1,18.93,31.28Z"/><path class="cls-1" d="M14.65,36.21a.2.2,0,1,1-.2-.2A.2.2,0,0,1,14.65,36.21Z"/><circle class="cls-1" cx="12.39" cy="34.99" r="0.2"/><path class="cls-1" d="M13.16,24a.2.2,0,1,1-.2-.2A.2.2,0,0,1,13.16,24Z"/><circle class="cls-1" cx="5.9" cy="24.91" r="0.2"/><path class="cls-1" d="M4.58,25.46a.19.19,0,0,1-.19.2.2.2,0,0,1,0-.4A.19.19,0,0,1,4.58,25.46Z"/><path class="cls-1" d="M7,50.72a.2.2,0,1,1-.2-.2A.2.2,0,0,1,7,50.72Z"/><path class="cls-1" d="M6.36,43.2a.2.2,0,0,1-.4,0,.2.2,0,1,1,.4,0Z"/><circle class="cls-1" cx="8.78" cy="42.8" r="0.2"/><circle class="cls-1" cx="10.99" cy="40.79" r="0.2"/><path class="cls-1" d="M16.71,48.26a.2.2,0,1,1-.2-.2A.2.2,0,0,1,16.71,48.26Z"/><path class="cls-1" d="M19.5,51.12a.2.2,0,0,1-.2.2.2.2,0,0,1,0-.4A.2.2,0,0,1,19.5,51.12Z"/><path class="cls-1" d="M11.82,42.8a.2.2,0,1,1-.2-.2A.2.2,0,0,1,11.82,42.8Z"/><path class="cls-1" d="M11.19,46.08a.2.2,0,1,1-.2-.2A.2.2,0,0,1,11.19,46.08Z"/><path class="cls-1" d="M9.78,46.7a.2.2,0,1,1-.2-.2A.2.2,0,0,1,9.78,46.7Z"/><path class="cls-1" d="M6.55,34.59a.2.2,0,1,1-.2-.2A.2.2,0,0,1,6.55,34.59Z"/><circle class="cls-1" cx="7.19" cy="23.52" r="0.2"/><path class="cls-1" d="M3.87,52.74a.09.09,0,1,1-.09-.09A.09.09,0,0,1,3.87,52.74Z"/><path class="cls-1" d="M5.58,49.52a.09.09,0,1,1-.09-.09A.09.09,0,0,1,5.58,49.52Z"/><path class="cls-1" d="M7.21,51.78a.09.09,0,1,1-.18,0,.09.09,0,0,1,.18,0Z"/><g class="cls-2"><path class="cls-1" d="M4.82,9.93a.12.12,0,0,1-.12.12.11.11,0,0,1-.11-.12.11.11,0,0,1,.11-.11A.11.11,0,0,1,4.82,9.93Z"/></g><g class="cls-2"><path class="cls-1" d="M6.26,9.93a.11.11,0,0,1-.11.12A.12.12,0,0,1,6,9.93a.11.11,0,0,1,.12-.11A.11.11,0,0,1,6.26,9.93Z"/></g><g class="cls-2"><path class="cls-1" d="M4.2,24.69a.12.12,0,0,1-.12.12A.12.12,0,0,1,4,24.69a.12.12,0,0,1,.12-.11A.11.11,0,0,1,4.2,24.69Z"/></g><g class="cls-2"><circle class="cls-1" cx="4.59" cy="24.81" r="0.12"/></g><g class="cls-2"><path class="cls-1" d="M4.15,36.62a.11.11,0,0,1-.12.11.11.11,0,0,1-.11-.11A.11.11,0,0,1,4,36.5.12.12,0,0,1,4.15,36.62Z"/></g><g class="cls-2"><path class="cls-1" d="M5.21,38.78a.11.11,0,0,1-.11.12A.12.12,0,0,1,5,38.78a.11.11,0,0,1,.12-.11A.11.11,0,0,1,5.21,38.78Z"/></g><g class="cls-2"><path class="cls-1" d="M6.08,41.16a.12.12,0,0,1-.12.12.12.12,0,0,1-.12-.12A.12.12,0,0,1,6,41.05.11.11,0,0,1,6.08,41.16Z"/></g><g class="cls-2"><path class="cls-1" d="M5.55,42a.11.11,0,0,1-.12.11A.11.11,0,0,1,5.32,42a.11.11,0,0,1,.11-.12A.12.12,0,0,1,5.55,42Z"/></g><g class="cls-2"><path class="cls-1" d="M5.94,23.78a.12.12,0,0,1-.24,0,.12.12,0,0,1,.24,0Z"/></g><g class="cls-2"><path class="cls-1" d="M5.82,28.69a.18.18,0,0,1-.17.17.17.17,0,0,1-.17-.17.16.16,0,0,1,.17-.17A.17.17,0,0,1,5.82,28.69Z"/></g><g class="cls-2"><path class="cls-1" d="M6.58,24.05a.11.11,0,0,1-.12.11.11.11,0,0,1-.11-.11.11.11,0,0,1,.11-.12A.12.12,0,0,1,6.58,24.05Z"/></g><g class="cls-2"><path class="cls-1" d="M7,24.24a.12.12,0,0,1-.12.12.12.12,0,0,1-.12-.12.11.11,0,0,1,.12-.11A.12.12,0,0,1,7,24.24Z"/></g><g class="cls-2"><path class="cls-1" d="M7.92,22.62a.11.11,0,0,1-.11.12.12.12,0,0,1-.12-.12.11.11,0,0,1,.12-.11A.11.11,0,0,1,7.92,22.62Z"/></g><g class="cls-2"><path class="cls-1" d="M7,9a.12.12,0,0,1-.12.12A.12.12,0,0,1,6.78,9a.11.11,0,0,1,.12-.11A.12.12,0,0,1,7,9Z"/></g><g class="cls-2"><path class="cls-1" d="M7.62,9.38a.12.12,0,0,1-.12.12.11.11,0,0,1-.11-.12.11.11,0,0,1,.11-.11A.11.11,0,0,1,7.62,9.38Z"/></g><g class="cls-2"><path class="cls-1" d="M8.41,10.05a.11.11,0,0,1-.11.11.11.11,0,0,1-.12-.11.12.12,0,0,1,.12-.12A.11.11,0,0,1,8.41,10.05Z"/></g><g class="cls-2"><path class="cls-1" d="M8.65,9.69a.12.12,0,0,1-.12.12.12.12,0,0,1-.12-.12.12.12,0,0,1,.12-.11A.11.11,0,0,1,8.65,9.69Z"/></g><path class="cls-1" d="M11.42,14.1a.2.2,0,1,1-.2-.2A.2.2,0,0,1,11.42,14.1Z"/><path class="cls-1" d="M16.11,15.72a.2.2,0,1,1-.2-.2A.2.2,0,0,1,16.11,15.72Z"/><g class="cls-3"><path class="cls-1" d="M15.49,13.56a.2.2,0,1,1-.2-.2A.2.2,0,0,1,15.49,13.56Z"/></g><g class="cls-3"><path class="cls-1" d="M18.63,16.52a.2.2,0,1,1-.2-.2A.2.2,0,0,1,18.63,16.52Z"/></g><g class="cls-3"><path class="cls-1" d="M25,16.12a.2.2,0,0,1-.4,0,.2.2,0,1,1,.4,0Z"/></g><g class="cls-3"><path class="cls-1" d="M15.09,19.22a.2.2,0,1,1-.2-.2A.2.2,0,0,1,15.09,19.22Z"/></g><g class="cls-3"><path class="cls-1" d="M14.2,20.51a.2.2,0,1,1-.2-.2A.2.2,0,0,1,14.2,20.51Z"/></g><g class="cls-2"><path class="cls-1" d="M10.14,8.75a.12.12,0,0,1-.12.12.12.12,0,0,1,0-.24A.12.12,0,0,1,10.14,8.75Z"/></g><g class="cls-2"><path class="cls-1" d="M11.22,13.35a.11.11,0,0,1-.11.12.12.12,0,0,1-.12-.12.11.11,0,0,1,.12-.11A.11.11,0,0,1,11.22,13.35Z"/></g><g class="cls-2"><path class="cls-1" d="M16.23,13.66a.12.12,0,0,1-.12.12.12.12,0,0,1-.11-.12.11.11,0,0,1,.11-.12A.12.12,0,0,1,16.23,13.66Z"/></g><g class="cls-2"><path class="cls-1" d="M18.14,13.47a.11.11,0,0,1-.11.12.12.12,0,0,1-.12-.12.12.12,0,0,1,.12-.12A.12.12,0,0,1,18.14,13.47Z"/></g><g class="cls-2"><path class="cls-1" d="M19,16.36a.12.12,0,0,1-.12.12.12.12,0,0,1-.12-.12.12.12,0,0,1,.12-.12A.13.13,0,0,1,19,16.36Z"/></g><g class="cls-2"><path class="cls-1" d="M18,15.84a.12.12,0,0,1-.12.12.12.12,0,0,1,0-.24A.12.12,0,0,1,18,15.84Z"/></g><g class="cls-2"><path class="cls-1" d="M20.08,16.52a.12.12,0,0,1-.12.12.12.12,0,0,1,0-.24A.12.12,0,0,1,20.08,16.52Z"/></g><g class="cls-2"><path class="cls-1" d="M20.3,18.39a.11.11,0,0,1-.11.12.12.12,0,0,1-.12-.12.11.11,0,0,1,.12-.11A.11.11,0,0,1,20.3,18.39Z"/></g><g class="cls-2"><path class="cls-1" d="M19.73,18.69a.11.11,0,0,1-.12.11.11.11,0,0,1-.11-.11.11.11,0,0,1,.11-.12A.12.12,0,0,1,19.73,18.69Z"/></g><g class="cls-2"><path class="cls-1" d="M21.18,20.72a.12.12,0,0,1-.24,0,.12.12,0,0,1,.24,0Z"/></g><g class="cls-2"><path class="cls-1" d="M17.74,19.3a.12.12,0,0,1-.24,0,.12.12,0,0,1,.24,0Z"/></g><g class="cls-2"><path class="cls-1" d="M25.6,19.21a.11.11,0,0,1-.11.12.12.12,0,0,1-.12-.12.11.11,0,0,1,.12-.11A.11.11,0,0,1,25.6,19.21Z"/></g><g class="cls-2"><path class="cls-1" d="M26.15,18.28a.11.11,0,0,1-.11.11.11.11,0,0,1-.12-.11.12.12,0,0,1,.12-.12A.11.11,0,0,1,26.15,18.28Z"/></g><g class="cls-2"><path class="cls-1" d="M28.14,19.57a.11.11,0,0,1-.12.11.11.11,0,0,1-.11-.11.11.11,0,0,1,.11-.12A.12.12,0,0,1,28.14,19.57Z"/></g><g class="cls-2"><path class="cls-1" d="M27.68,18.89a.12.12,0,0,1-.11.12.12.12,0,0,1-.12-.12.12.12,0,0,1,.12-.12A.11.11,0,0,1,27.68,18.89Z"/></g><g class="cls-2"><path class="cls-1" d="M27.48,18.59a.12.12,0,0,1-.11.12.12.12,0,0,1,0-.24A.12.12,0,0,1,27.48,18.59Z"/></g><g class="cls-2"><path class="cls-1" d="M28.41,17.85a.12.12,0,0,1-.12.12.12.12,0,0,1,0-.24A.12.12,0,0,1,28.41,17.85Z"/></g><g class="cls-2"><path class="cls-1" d="M27.8,17.49a.11.11,0,0,1-.12.11.11.11,0,0,1-.11-.11.11.11,0,0,1,.11-.12A.12.12,0,0,1,27.8,17.49Z"/></g><g class="cls-2"><path class="cls-1" d="M27.43,17.09a.13.13,0,0,1,.14.09.12.12,0,0,1-.1.14.12.12,0,0,1-.13-.1A.11.11,0,0,1,27.43,17.09Z"/></g><g class="cls-2"><path class="cls-1" d="M27.15,16.8a.11.11,0,0,1,.13.1.11.11,0,0,1-.22,0A.12.12,0,0,1,27.15,16.8Z"/></g><g class="cls-2"><path class="cls-1" d="M25.8,16.52a.12.12,0,0,1,0,.23.12.12,0,0,1-.14-.1A.12.12,0,0,1,25.8,16.52Z"/></g><g class="cls-2"><path class="cls-1" d="M24.91,16.48a.11.11,0,0,1,.13.09.11.11,0,0,1-.09.14.11.11,0,0,1-.13-.1A.11.11,0,0,1,24.91,16.48Z"/></g><g class="cls-2"><path class="cls-1" d="M29.2,18.08a.11.11,0,0,1-.11.11.11.11,0,0,1-.12-.11.12.12,0,0,1,.12-.12A.11.11,0,0,1,29.2,18.08Z"/></g><g class="cls-2"><path class="cls-1" d="M28.72,18.28a.12.12,0,0,1-.12.11.11.11,0,0,1-.12-.11.12.12,0,0,1,.12-.12A.12.12,0,0,1,28.72,18.28Z"/></g><g class="cls-2"><path class="cls-1" d="M26.7,17.85a.12.12,0,0,1-.12.12.12.12,0,0,1,0-.24A.12.12,0,0,1,26.7,17.85Z"/></g><g class="cls-2"><path class="cls-1" d="M24.57,21.49a.11.11,0,0,1-.11.12.12.12,0,0,1-.12-.12.11.11,0,0,1,.12-.11A.11.11,0,0,1,24.57,21.49Z"/></g><g class="cls-2"><path class="cls-1" d="M23.25,21.22a.11.11,0,0,1-.12.11.11.11,0,0,1-.11-.11.11.11,0,0,1,.11-.12A.12.12,0,0,1,23.25,21.22Z"/></g><g class="cls-2"><path class="cls-1" d="M26.23,17.62a.11.11,0,0,1-.11.11.11.11,0,0,1-.12-.11.12.12,0,0,1,.12-.12A.11.11,0,0,1,26.23,17.62Z"/></g><g class="cls-2"><path class="cls-1" d="M22.13,22.37a.12.12,0,0,1-.12.12.11.11,0,0,1-.11-.12.11.11,0,0,1,.11-.11A.11.11,0,0,1,22.13,22.37Z"/></g><g class="cls-2"><path class="cls-1" d="M21.68,22.84a.11.11,0,0,1-.12.11.11.11,0,0,1-.11-.11.11.11,0,0,1,.11-.12A.12.12,0,0,1,21.68,22.84Z"/></g><g class="cls-2"><path class="cls-1" d="M22.7,23a.11.11,0,0,1-.11.12.12.12,0,0,1-.12-.12.11.11,0,0,1,.12-.11A.11.11,0,0,1,22.7,23Z"/></g><g class="cls-2"><path class="cls-1" d="M16.15,25.33a.12.12,0,0,1-.24,0,.12.12,0,0,1,.24,0Z"/></g><g class="cls-2"><path class="cls-1" d="M17.43,26.84a.12.12,0,0,1-.11.12.12.12,0,1,1,0-.24A.12.12,0,0,1,17.43,26.84Z"/></g><g class="cls-2"><path class="cls-1" d="M23.57,22.72a.11.11,0,0,1-.11.12.12.12,0,0,1-.12-.12.13.13,0,0,1,.12-.12A.12.12,0,0,1,23.57,22.72Z"/></g><g class="cls-2"><path class="cls-1" d="M26.7,22.49a.11.11,0,0,1-.12.11.11.11,0,0,1-.11-.11.11.11,0,0,1,.11-.12A.12.12,0,0,1,26.7,22.49Z"/></g><g class="cls-2"><path class="cls-1" d="M27.37,22.84a.11.11,0,0,1-.12.11.11.11,0,0,1-.11-.11.11.11,0,0,1,.11-.12A.12.12,0,0,1,27.37,22.84Z"/></g><g class="cls-2"><path class="cls-1" d="M24.45,26.61a.12.12,0,0,1-.12.11.11.11,0,0,1-.12-.11.12.12,0,0,1,.12-.12A.12.12,0,0,1,24.45,26.61Z"/></g><g class="cls-2"><path class="cls-1" d="M25.49,26.26a.12.12,0,1,1-.24,0,.12.12,0,1,1,.24,0Z"/></g><g class="cls-2"><path class="cls-1" d="M24.91,25.56a.11.11,0,0,1-.11.12.12.12,0,0,1-.12-.12.11.11,0,0,1,.12-.11A.11.11,0,0,1,24.91,25.56Z"/></g><g class="cls-2"><path class="cls-1" d="M25.92,25.08a.11.11,0,0,1-.12.11.11.11,0,0,1-.11-.11A.11.11,0,0,1,25.8,25,.12.12,0,0,1,25.92,25.08Z"/></g><g class="cls-2"><path class="cls-1" d="M27.25,27a.11.11,0,0,1-.11.11A.11.11,0,0,1,27,27a.12.12,0,0,1,.12-.12A.11.11,0,0,1,27.25,27Z"/></g><g class="cls-2"><path class="cls-1" d="M25.72,27a.11.11,0,0,1-.12.11.11.11,0,0,1-.11-.11.11.11,0,0,1,.11-.12A.12.12,0,0,1,25.72,27Z"/></g><g class="cls-2"><path class="cls-1" d="M24.81,27.06a.11.11,0,0,1-.11.11.11.11,0,0,1-.12-.11.12.12,0,0,1,.12-.12A.11.11,0,0,1,24.81,27.06Z"/></g><g class="cls-2"><path class="cls-1" d="M28,25a.12.12,0,0,1-.12.12.13.13,0,0,1-.12-.12.12.12,0,0,1,.12-.12A.12.12,0,0,1,28,25Z"/></g><g class="cls-2"><path class="cls-1" d="M26.35,26a.11.11,0,0,1-.12.11.11.11,0,0,1-.11-.11.11.11,0,0,1,.11-.12A.12.12,0,0,1,26.35,26Z"/></g><g class="cls-2"><path class="cls-1" d="M26.93,21.45a.12.12,0,0,1-.12.12.12.12,0,0,1,0-.24A.12.12,0,0,1,26.93,21.45Z"/></g><g class="cls-2"><path class="cls-1" d="M16.78,19.93a.11.11,0,0,1-.11.12.12.12,0,0,1-.12-.12.11.11,0,0,1,.12-.11A.11.11,0,0,1,16.78,19.93Z"/></g><g class="cls-2"><path class="cls-1" d="M20.94,24.48a.11.11,0,0,1-.11.12.12.12,0,0,1-.12-.12.12.12,0,0,1,.12-.12A.12.12,0,0,1,20.94,24.48Z"/></g><g class="cls-2"><path class="cls-1" d="M21.08,26.84A.13.13,0,0,1,21,27a.12.12,0,1,1,0-.24A.13.13,0,0,1,21.08,26.84Z"/></g><g class="cls-2"><path class="cls-1" d="M23.74,33.5a.11.11,0,0,1-.11.11.11.11,0,0,1-.12-.11.12.12,0,0,1,.12-.12A.11.11,0,0,1,23.74,33.5Z"/></g><g class="cls-2"><path class="cls-1" d="M28.41,26.61a.11.11,0,0,1-.12.11.11.11,0,0,1-.11-.11.11.11,0,0,1,.11-.12A.12.12,0,0,1,28.41,26.61Z"/></g><g class="cls-2"><path class="cls-1" d="M29.27,26.49a.11.11,0,0,1-.11.12.12.12,0,0,1-.12-.12.12.12,0,0,1,.12-.12A.12.12,0,0,1,29.27,26.49Z"/></g><g class="cls-2"><path class="cls-1" d="M29.72,23.39a.11.11,0,0,1-.11.11.11.11,0,0,1-.12-.11.12.12,0,0,1,.12-.12A.11.11,0,0,1,29.72,23.39Z"/></g><g class="cls-2"><path class="cls-1" d="M27.5,27.64a.11.11,0,0,1-.11.11.11.11,0,0,1-.12-.11.12.12,0,0,1,.12-.12A.11.11,0,0,1,27.5,27.64Z"/></g><g class="cls-2"><path class="cls-1" d="M29.61,27.4a.12.12,0,0,1-.12.12.12.12,0,0,1-.12-.12.11.11,0,0,1,.12-.11A.12.12,0,0,1,29.61,27.4Z"/></g><g class="cls-2"><path class="cls-1" d="M28,29.54a.11.11,0,0,1-.11.12.12.12,0,0,1-.12-.12.12.12,0,0,1,.12-.12A.12.12,0,0,1,28,29.54Z"/></g><g class="cls-2"><path class="cls-1" d="M21.88,33.38a.12.12,0,0,1-.12.12.12.12,0,0,1-.11-.12.11.11,0,0,1,.11-.12A.12.12,0,0,1,21.88,33.38Z"/></g><g class="cls-2"><path class="cls-1" d="M20.55,35.26a.11.11,0,0,1-.11.11.11.11,0,0,1-.12-.11.12.12,0,0,1,.12-.12A.11.11,0,0,1,20.55,35.26Z"/></g><g class="cls-2"><path class="cls-1" d="M20.16,36a.12.12,0,0,1-.24,0,.12.12,0,0,1,.24,0Z"/></g><g class="cls-2"><path class="cls-1" d="M22.11,35.26a.11.11,0,0,1-.11.11.11.11,0,0,1-.12-.11.12.12,0,0,1,.12-.12A.11.11,0,0,1,22.11,35.26Z"/></g><g class="cls-2"><path class="cls-1" d="M25.68,36.2a.12.12,0,0,1-.11.12.12.12,0,0,1,0-.24A.12.12,0,0,1,25.68,36.2Z"/></g><g class="cls-2"><path class="cls-1" d="M22.2,39.83a.12.12,0,0,1-.24,0,.12.12,0,0,1,.24,0Z"/></g><g class="cls-2"><path class="cls-1" d="M20.31,43.73a.12.12,0,0,1-.24,0,.12.12,0,0,1,.24,0Z"/></g><g class="cls-2"><path class="cls-1" d="M20.54,44.36a.11.11,0,0,1-.12.11.11.11,0,0,1-.11-.11.11.11,0,0,1,.11-.12A.12.12,0,0,1,20.54,44.36Z"/></g><g class="cls-2"><circle class="cls-1" cx="19.76" cy="45.24" r="0.12"/></g><g class="cls-2"><path class="cls-1" d="M22.43,44.36a.11.11,0,0,1-.12.11.11.11,0,0,1-.11-.11.11.11,0,0,1,.11-.12A.12.12,0,0,1,22.43,44.36Z"/></g><g class="cls-2"><path class="cls-1" d="M23.11,44a.12.12,0,0,1-.11.12.12.12,0,0,1,0-.24A.12.12,0,0,1,23.11,44Z"/></g><g class="cls-2"><path class="cls-1" d="M23.48,44a.12.12,0,0,1-.11.12.12.12,0,0,1,0-.24A.12.12,0,0,1,23.48,44Z"/></g><g class="cls-2"><path class="cls-1" d="M23.48,46.57a.11.11,0,0,1-.11.11.11.11,0,0,1-.12-.11.12.12,0,0,1,.12-.12A.11.11,0,0,1,23.48,46.57Z"/></g><g class="cls-2"><path class="cls-1" d="M23.11,47.69a.11.11,0,0,1-.11.12.12.12,0,0,1-.12-.12.11.11,0,0,1,.12-.11A.11.11,0,0,1,23.11,47.69Z"/></g><g class="cls-2"><path class="cls-1" d="M26,47.15a.12.12,0,0,1-.12.11.11.11,0,0,1-.12-.11.12.12,0,0,1,.12-.12A.12.12,0,0,1,26,47.15Z"/></g><g class="cls-2"><path class="cls-1" d="M28.41,43a.11.11,0,0,1-.12.11.11.11,0,0,1-.11-.11.12.12,0,0,1,.11-.12A.12.12,0,0,1,28.41,43Z"/></g><g class="cls-2"><path class="cls-1" d="M26.3,46a.11.11,0,0,1-.11.11.11.11,0,0,1-.12-.11.12.12,0,0,1,.12-.12A.11.11,0,0,1,26.3,46Z"/></g><g class="cls-2"><path class="cls-1" d="M29.21,46a.11.11,0,0,1-.11.12A.12.12,0,0,1,29,46a.11.11,0,0,1,.12-.11A.11.11,0,0,1,29.21,46Z"/></g><g class="cls-2"><path class="cls-1" d="M28.41,48.4a.12.12,0,0,1-.12.12.11.11,0,0,1-.11-.12.11.11,0,0,1,.11-.11A.11.11,0,0,1,28.41,48.4Z"/></g><g class="cls-2"><path class="cls-1" d="M27.82,39a.12.12,0,0,1-.11.12.12.12,0,0,1-.12-.12.12.12,0,0,1,.12-.12A.11.11,0,0,1,27.82,39Z"/></g><g class="cls-2"><path class="cls-1" d="M28.41,40.34a.11.11,0,0,1-.12.11.11.11,0,0,1-.11-.11.11.11,0,0,1,.11-.12A.12.12,0,0,1,28.41,40.34Z"/></g><g class="cls-2"><path class="cls-1" d="M29.21,41.27a.11.11,0,0,1-.11.11.11.11,0,0,1-.12-.11.12.12,0,0,1,.12-.12A.11.11,0,0,1,29.21,41.27Z"/></g><g class="cls-2"><path class="cls-1" d="M26.75,25.91a.12.12,0,0,1-.12.12.12.12,0,0,1-.12-.12.11.11,0,0,1,.12-.11A.12.12,0,0,1,26.75,25.91Z"/></g><g class="cls-2"><path class="cls-1" d="M24,28.67a.12.12,0,0,1-.12.12.12.12,0,0,1-.12-.12.11.11,0,0,1,.12-.11A.12.12,0,0,1,24,28.67Z"/></g><g class="cls-2"><path class="cls-1" d="M23.25,23.6a.12.12,0,0,1-.12.12A.11.11,0,0,1,23,23.6a.11.11,0,0,1,.11-.11A.11.11,0,0,1,23.25,23.6Z"/></g><g class="cls-2"><path class="cls-1" d="M16.35,12.39a.11.11,0,0,1-.12.11.12.12,0,0,1-.12-.11.12.12,0,0,1,.12-.12A.12.12,0,0,1,16.35,12.39Z"/></g><g class="cls-2"><path class="cls-1" d="M16.78,13.78a.11.11,0,0,1-.11.11.11.11,0,0,1-.12-.11.12.12,0,0,1,.12-.12A.11.11,0,0,1,16.78,13.78Z"/></g><g class="cls-2"><path class="cls-1" d="M17.8,12.4a.12.12,0,0,1-.12.12.12.12,0,0,1-.12-.12.11.11,0,0,1,.12-.11A.12.12,0,0,1,17.8,12.4Z"/></g><g class="cls-2"><path class="cls-1" d="M25.1,7.34a.11.11,0,0,1-.11.12.12.12,0,0,1-.12-.12A.12.12,0,0,1,25,7.23.11.11,0,0,1,25.1,7.34Z"/></g><g class="cls-2"><path class="cls-1" d="M29.37,4.59a.12.12,0,0,1-.24,0,.12.12,0,0,1,.24,0Z"/></g><g class="cls-2"><path class="cls-1" d="M27.72,5.91a.12.12,0,0,1-.11.12.12.12,0,0,1,0-.24A.12.12,0,0,1,27.72,5.91Z"/></g><g class="cls-2"><path class="cls-1" d="M29.37,6.54a.12.12,0,1,1-.24,0,.12.12,0,0,1,.24,0Z"/></g><g class="cls-2"><circle class="cls-1" cx="17.19" cy="16.52" r="0.12"/></g><g class="cls-2"><path class="cls-1" d="M16.78,16.64a.11.11,0,0,1-.11.11.11.11,0,0,1-.12-.11.12.12,0,0,1,.12-.12A.11.11,0,0,1,16.78,16.64Z"/></g><g class="cls-2"><path class="cls-1" d="M21,18.19a.11.11,0,0,1-.11.12.12.12,0,0,1-.12-.12.11.11,0,0,1,.12-.11A.11.11,0,0,1,21,18.19Z"/></g><g class="cls-2"><path class="cls-1" d="M21.8,17.68a.12.12,0,0,1-.24,0,.12.12,0,0,1,.24,0Z"/></g><g class="cls-2"><path class="cls-1" d="M22,18.57a.13.13,0,0,1-.12.12.12.12,0,0,1-.12-.12.12.12,0,0,1,.12-.12A.12.12,0,0,1,22,18.57Z"/></g><g class="cls-2"><path class="cls-1" d="M21.48,16.64a.11.11,0,0,1-.12.11.11.11,0,0,1-.11-.11.11.11,0,0,1,.11-.12A.12.12,0,0,1,21.48,16.64Z"/></g><g class="cls-2"><path class="cls-1" d="M21.15,16.36a.12.12,0,0,1-.12.12.11.11,0,0,1-.11-.12.12.12,0,0,1,.11-.12A.12.12,0,0,1,21.15,16.36Z"/></g><g class="cls-2"><path class="cls-1" d="M20.4,15.72a.11.11,0,0,1-.11.12.12.12,0,0,1-.12-.12.11.11,0,0,1,.12-.11A.11.11,0,0,1,20.4,15.72Z"/></g><g class="cls-2"><path class="cls-1" d="M21,17a.12.12,0,0,1-.12.12.11.11,0,0,1-.11-.12.11.11,0,0,1,.11-.11A.11.11,0,0,1,21,17Z"/></g><g class="cls-2"><path class="cls-1" d="M21.06,17.38a.12.12,0,0,1-.12.12.11.11,0,0,1-.11-.12.11.11,0,0,1,.11-.11A.11.11,0,0,1,21.06,17.38Z"/></g><g class="cls-2"><path class="cls-1" d="M25.74,20.31a.12.12,0,0,1-.24,0,.12.12,0,1,1,.24,0Z"/></g><g class="cls-2"><path class="cls-1" d="M26,21.38a.12.12,0,0,1-.24,0,.12.12,0,1,1,.24,0Z"/></g><g class="cls-2"><path class="cls-1" d="M27.05,20.46a.12.12,0,1,1-.24,0,.12.12,0,0,1,.24,0Z"/></g><g class="cls-2"><path class="cls-1" d="M27.6,20.19a.12.12,0,0,1-.12.12.12.12,0,0,1-.11-.12.11.11,0,0,1,.11-.12A.12.12,0,0,1,27.6,20.19Z"/></g><g class="cls-2"><path class="cls-1" d="M28.26,21.57a.12.12,0,0,1-.12.11.11.11,0,0,1-.12-.11.12.12,0,0,1,.12-.12A.12.12,0,0,1,28.26,21.57Z"/></g><g class="cls-2"><path class="cls-1" d="M26.35,23.22a.11.11,0,0,1-.12.11.11.11,0,0,1-.11-.11.11.11,0,0,1,.11-.12A.12.12,0,0,1,26.35,23.22Z"/></g><g class="cls-2"><path class="cls-1" d="M22,14.32a.12.12,0,0,1-.12.11.11.11,0,0,1-.12-.11.12.12,0,0,1,.12-.12A.12.12,0,0,1,22,14.32Z"/></g><g class="cls-2"><path class="cls-1" d="M21.36,14.78a.12.12,0,0,1-.11.12.12.12,0,1,1,0-.24A.12.12,0,0,1,21.36,14.78Z"/></g><g class="cls-2"><path class="cls-1" d="M22.62,15.21a.12.12,0,0,1-.12.12.11.11,0,0,1-.11-.12.12.12,0,0,1,.11-.12A.12.12,0,0,1,22.62,15.21Z"/></g><g class="cls-2"><path class="cls-1" d="M23.13,15.81a.11.11,0,0,1-.11.11.11.11,0,0,1-.12-.11.12.12,0,0,1,.12-.12A.11.11,0,0,1,23.13,15.81Z"/></g><g class="cls-2"><path class="cls-1" d="M22.82,16.29a.11.11,0,0,1-.12.11.11.11,0,0,1-.11-.11.11.11,0,0,1,.11-.12A.12.12,0,0,1,22.82,16.29Z"/></g><g class="cls-2"><path class="cls-1" d="M18.86,14.78a.12.12,0,0,1-.11.12.12.12,0,1,1,0-.24A.12.12,0,0,1,18.86,14.78Z"/></g><g class="cls-2"><path class="cls-1" d="M16.39,14.7a.11.11,0,0,1-.12.11.11.11,0,0,1-.11-.11.11.11,0,0,1,.11-.12A.12.12,0,0,1,16.39,14.7Z"/></g><g class="cls-2"><path class="cls-1" d="M19,8a.12.12,0,1,1-.12-.12A.13.13,0,0,1,19,8Z"/></g><g class="cls-2"><path class="cls-1" d="M18.75,8.85a.13.13,0,0,1-.12.12.12.12,0,1,1,0-.24A.13.13,0,0,1,18.75,8.85Z"/></g><g class="cls-2"><path class="cls-1" d="M18.1,3.69a.12.12,0,0,1-.12.12.11.11,0,0,1-.11-.12A.11.11,0,0,1,18,3.58.11.11,0,0,1,18.1,3.69Z"/></g><g class="cls-2"><path class="cls-1" d="M12.86,7.46a.12.12,0,0,1-.11.12.12.12,0,1,1,0-.24A.12.12,0,0,1,12.86,7.46Z"/></g><g class="cls-2"><path class="cls-1" d="M11.12,5.27a.12.12,0,0,1-.11.12.12.12,0,1,1,0-.24A.12.12,0,0,1,11.12,5.27Z"/></g><g class="cls-2"><path class="cls-1" d="M7.23,10.05a.11.11,0,0,1-.12.11A.11.11,0,0,1,7,10.05a.11.11,0,0,1,.11-.12A.12.12,0,0,1,7.23,10.05Z"/></g><g class="cls-2"><path class="cls-1" d="M10.24,3.81a.12.12,0,0,1-.12.12.12.12,0,0,1,0-.24A.12.12,0,0,1,10.24,3.81Z"/></g><g class="cls-2"><path class="cls-1" d="M11.12,3.58a.11.11,0,0,1-.11.11.11.11,0,0,1-.12-.11A.12.12,0,0,1,11,3.46.11.11,0,0,1,11.12,3.58Z"/></g><g class="cls-2"><path class="cls-1" d="M6.7,10.72a.11.11,0,0,1-.12.11.11.11,0,0,1-.11-.11.11.11,0,0,1,.11-.12A.12.12,0,0,1,6.7,10.72Z"/></g><g class="cls-2"><path class="cls-1" d="M5.05,9a.11.11,0,0,1-.11.12A.12.12,0,0,1,4.82,9a.11.11,0,0,1,.12-.11A.11.11,0,0,1,5.05,9Z"/></g><g class="cls-2"><path class="cls-1" d="M5.9,9.32a.11.11,0,0,1-.11.12.12.12,0,0,1-.12-.12.11.11,0,0,1,.12-.11A.11.11,0,0,1,5.9,9.32Z"/></g><g class="cls-2"><path class="cls-1" d="M4.6,10.25a.11.11,0,0,1-.11.11.11.11,0,0,1-.12-.11.12.12,0,0,1,.12-.12A.11.11,0,0,1,4.6,10.25Z"/></g><g class="cls-3"><path class="cls-1" d="M4.07,9a.11.11,0,1,1-.22,0,.11.11,0,0,1,.22,0Z"/></g><g class="cls-3"><path class="cls-1" d="M3.67,8.68a.18.18,0,0,1,.18.18A.17.17,0,0,1,3.67,9"/></g><path class="cls-1" d="M9.38,33.42a.1.1,0,1,1,.14,0A.1.1,0,0,1,9.38,33.42Z"/><path class="cls-1" d="M11.22,36.24a.11.11,0,0,1,0-.14.11.11,0,0,1,.15,0,.1.1,0,0,1-.14.14Z"/><path class="cls-1" d="M8,36.63a.11.11,0,0,1,0-.14.11.11,0,0,1,.15,0,.1.1,0,0,1-.14.14Z"/><path class="cls-1" d="M6.11,36.1a.1.1,0,0,1,0-.14.11.11,0,0,1,.14,0,.1.1,0,0,1,0,.14A.09.09,0,0,1,6.11,36.1Z"/><path class="cls-1" d="M4.64,34.75a.12.12,0,0,1,0-.15.11.11,0,0,1,.15,0,.1.1,0,0,1,0,.14A.11.11,0,0,1,4.64,34.75Z"/><path class="cls-1" d="M10.23,52.77a.1.1,0,1,1,.14,0A.1.1,0,0,1,10.23,52.77Z"/><path class="cls-1" d="M10.27,50a.1.1,0,0,1,.14-.15.11.11,0,0,1,0,.14A.11.11,0,0,1,10.27,50Z"/><path class="cls-1" d="M12.59,48.11a.1.1,0,0,1,.14-.14.11.11,0,0,1,0,.14A.11.11,0,0,1,12.59,48.11Z"/><path class="cls-1" d="M10.93,48.84a.11.11,0,0,1,0-.14.11.11,0,0,1,.15,0,.1.1,0,0,1-.14.15Z"/><path class="cls-1" d="M8.39,47.88a.11.11,0,0,1,0-.14.12.12,0,0,1,.15,0,.11.11,0,0,1,0,.15A.1.1,0,0,1,8.39,47.88Z"/><path class="cls-1" d="M7.94,49.51a.11.11,0,0,1,0-.14.12.12,0,0,1,.15,0,.11.11,0,0,1,0,.15A.1.1,0,0,1,7.94,49.51Z"/><path class="cls-1" d="M6.75,48a.1.1,0,0,1,.14-.15.11.11,0,0,1,0,.14A.11.11,0,0,1,6.75,48Z"/><path class="cls-1" d="M7.72,52.16a.1.1,0,1,1,.14,0A.1.1,0,0,1,7.72,52.16Z"/><path class="cls-1" d="M4,44.86a.1.1,0,1,1,.14,0A.1.1,0,0,1,4,44.86Z"/><path class="cls-1" d="M6.8,38.84a.11.11,0,0,1,0-.14.11.11,0,0,1,.15,0,.1.1,0,0,1-.14.14Z"/><path class="cls-1" d="M6.31,41a.1.1,0,0,1,0-.14.1.1,0,0,1,.15.13A.11.11,0,0,1,6.31,41Z"/><path class="cls-1" d="M11.69,42.94a.11.11,0,0,1,0-.14.11.11,0,0,1,.15,0,.1.1,0,0,1-.14.14Z"/><path class="cls-1" d="M9.49,45.62a.09.09,0,0,1,0-.14.11.11,0,0,1,.14,0,.11.11,0,0,1,0,.15A.1.1,0,0,1,9.49,45.62Z"/><path class="cls-1" d="M6.77,43.68a.11.11,0,0,1,0-.15.1.1,0,0,1,.14,0,.11.11,0,0,1,0,.14A.12.12,0,0,1,6.77,43.68Z"/><path class="cls-1" d="M8.92,42a.1.1,0,1,1,.14,0A.1.1,0,0,1,8.92,42Z"/><path class="cls-1" d="M8.81,40.19a.11.11,0,0,1,0-.14.11.11,0,0,1,.15,0,.1.1,0,0,1-.14.14Z"/><path class="cls-1" d="M11.47,38.15a.11.11,0,0,1,0-.14.11.11,0,0,1,.15,0,.1.1,0,0,1-.14.14Z"/><path class="cls-1" d="M13.35,38.85a.1.1,0,0,1,0-.14.1.1,0,0,1,.15.13A.11.11,0,0,1,13.35,38.85Z"/><path class="cls-1" d="M10,37.87a.11.11,0,0,1,0-.14.11.11,0,0,1,.15,0,.1.1,0,0,1-.14.14Z"/><path class="cls-1" d="M13.81,42.37a.11.11,0,0,1,0-.15.1.1,0,0,1,.14.14A.11.11,0,0,1,13.81,42.37Z"/><path class="cls-1" d="M12.86,44.1a.1.1,0,1,1,.14,0A.1.1,0,0,1,12.86,44.1Z"/><path class="cls-1" d="M18.35,42.69a.1.1,0,1,1,.14,0A.1.1,0,0,1,18.35,42.69Z"/><path class="cls-1" d="M16.14,43.89a.1.1,0,0,1,0-.14.11.11,0,0,1,.14,0,.11.11,0,0,1,0,.15A.1.1,0,0,1,16.14,43.89Z"/><path class="cls-1" d="M18.41,41.25a.1.1,0,1,1,.15,0A.11.11,0,0,1,18.41,41.25Z"/><path class="cls-1" d="M19.94,40a.12.12,0,0,1,0-.15.1.1,0,0,1,.14,0,.09.09,0,0,1,0,.14A.11.11,0,0,1,19.94,40Z"/><path class="cls-1" d="M21.34,38.59a.1.1,0,1,1,.14,0A.1.1,0,0,1,21.34,38.59Z"/><path class="cls-1" d="M21.68,37a.1.1,0,0,1,.14-.14.11.11,0,0,1,0,.14A.11.11,0,0,1,21.68,37Z"/><path class="cls-1" d="M22.89,36.64a.11.11,0,0,1,0-.15.1.1,0,0,1,.14.14A.11.11,0,0,1,22.89,36.64Z"/><path class="cls-1" d="M25.16,39.26a.11.11,0,0,1,0-.15.1.1,0,0,1,.14,0,.11.11,0,0,1,0,.14A.12.12,0,0,1,25.16,39.26Z"/><path class="cls-1" d="M23.43,39.72a.11.11,0,0,1,0-.15.1.1,0,0,1,.14.14A.11.11,0,0,1,23.43,39.72Z"/><path class="cls-1" d="M23.35,42.1a.1.1,0,1,1,.14,0A.1.1,0,0,1,23.35,42.1Z"/><path class="cls-1" d="M21.85,42.8a.1.1,0,0,1,0-.14.11.11,0,0,1,.14,0,.1.1,0,0,1,0,.14A.09.09,0,0,1,21.85,42.8Z"/><path class="cls-1" d="M25.68,40.79a.1.1,0,1,1,.14,0A.1.1,0,0,1,25.68,40.79Z"/><path class="cls-1" d="M27.11,40.11a.1.1,0,1,1,.14,0A.1.1,0,0,1,27.11,40.11Z"/><path class="cls-1" d="M27.8,37.59a.11.11,0,0,1,0-.15.1.1,0,0,1,.14.14A.11.11,0,0,1,27.8,37.59Z"/><path class="cls-1" d="M26.71,51.33a.1.1,0,1,1,.15,0A.11.11,0,0,1,26.71,51.33Z"/><path class="cls-1" d="M25.44,48.79a.1.1,0,1,1,.14,0A.1.1,0,0,1,25.44,48.79Z"/><path class="cls-1" d="M23.48,48.81a.1.1,0,0,1,.14-.14.11.11,0,0,1,0,.14A.11.11,0,0,1,23.48,48.81Z"/><path class="cls-1" d="M21.06,47.79a.1.1,0,1,1,.15,0A.11.11,0,0,1,21.06,47.79Z"/><path class="cls-1" d="M18.82,48.77a.12.12,0,0,1,0-.15.11.11,0,0,1,.15,0,.1.1,0,0,1,0,.14A.11.11,0,0,1,18.82,48.77Z"/><path class="cls-1" d="M17.47,50.14a.1.1,0,0,1,0-.14.11.11,0,0,1,.14,0,.1.1,0,0,1,0,.14A.11.11,0,0,1,17.47,50.14Z"/><path class="cls-1" d="M19.86,50.61a.1.1,0,1,1,.14,0A.1.1,0,0,1,19.86,50.61Z"/><path class="cls-1" d="M20.86,50.81a.11.11,0,0,1,0-.15.1.1,0,0,1,.15.14A.11.11,0,0,1,20.86,50.81Z"/><path class="cls-1" d="M21.85,51.39a.1.1,0,1,1,.14,0A.1.1,0,0,1,21.85,51.39Z"/><path class="cls-1" d="M24,52.44a.1.1,0,0,1,0-.14.11.11,0,0,1,.14,0,.11.11,0,0,1,0,.15A.1.1,0,0,1,24,52.44Z"/><path class="cls-1" d="M14.82,51.11a.1.1,0,0,1,0-.14A.11.11,0,0,1,15,51a.11.11,0,0,1,0,.15A.1.1,0,0,1,14.82,51.11Z"/><path class="cls-1" d="M13.73,51a.11.11,0,0,1,0-.15.1.1,0,0,1,.15.14A.11.11,0,0,1,13.73,51Z"/><path class="cls-1" d="M13.18,52.05a.1.1,0,0,1,0-.14.09.09,0,0,1,.14,0,.1.1,0,0,1,0,.14A.11.11,0,0,1,13.18,52.05Z"/><path class="cls-1" d="M29,50.19a.1.1,0,0,1,0-.14.11.11,0,0,1,.14,0,.12.12,0,0,1,0,.15A.11.11,0,0,1,29,50.19Z"/><path class="cls-1" d="M25.68,50.37a.1.1,0,0,1,0-.14.11.11,0,0,1,.14,0,.11.11,0,0,1,0,.15A.1.1,0,0,1,25.68,50.37Z"/><path class="cls-1" d="M27.44,47a.11.11,0,0,1,0-.15.1.1,0,0,1,.14.14A.11.11,0,0,1,27.44,47Z"/><path class="cls-1" d="M27.78,45.9a.1.1,0,1,1,.14,0A.1.1,0,0,1,27.78,45.9Z"/><path class="cls-1" d="M29.26,33.32a.1.1,0,0,1,0-.14.11.11,0,0,1,.14,0,.12.12,0,0,1,0,.15A.11.11,0,0,1,29.26,33.32Z"/><path class="cls-1" d="M27.88,34.1a.1.1,0,1,1,.15,0A.11.11,0,0,1,27.88,34.1Z"/><path class="cls-1" d="M25,33.48a.11.11,0,0,1,0-.14.1.1,0,0,1,.14,0,.09.09,0,0,1,0,.14A.1.1,0,0,1,25,33.48Z"/><path class="cls-1" d="M24.2,34.94a.1.1,0,0,1,.14-.15.11.11,0,0,1,0,.14A.11.11,0,0,1,24.2,34.94Z"/><path class="cls-1" d="M24.39,36a.11.11,0,0,1,0-.14.11.11,0,0,1,.15,0,.1.1,0,0,1-.14.15Z"/><path class="cls-1" d="M16.26,36a.1.1,0,0,1,0-.14.11.11,0,0,1,.14,0,.1.1,0,0,1-.14.15Z"/><path class="cls-1" d="M15.19,37a.11.11,0,0,1,0-.15.1.1,0,0,1,.14,0,.11.11,0,0,1,0,.14A.12.12,0,0,1,15.19,37Z"/><path class="cls-1" d="M14.33,37.74a.11.11,0,0,1,0-.15.1.1,0,0,1,.14,0,.11.11,0,0,1,0,.14A.12.12,0,0,1,14.33,37.74Z"/><path class="cls-1" d="M12.72,37.88a.1.1,0,1,1,.14,0A.1.1,0,0,1,12.72,37.88Z"/><path class="cls-1" d="M17.8,35.72a.1.1,0,0,1,.14-.15.11.11,0,0,1,0,.14A.11.11,0,0,1,17.8,35.72Z"/><path class="cls-1" d="M15.76,37.64a.11.11,0,0,1,0-.14.11.11,0,0,1,.15,0,.1.1,0,0,1-.14.15Z"/><path class="cls-1" d="M12.11,34.14a.1.1,0,1,1,.15,0A.11.11,0,0,1,12.11,34.14Z"/><path class="cls-1" d="M13.68,33.59a.1.1,0,1,1,.14,0A.1.1,0,0,1,13.68,33.59Z"/><path class="cls-1" d="M15.29,32.68a.1.1,0,1,1,.14,0A.1.1,0,0,1,15.29,32.68Z"/><path class="cls-1" d="M16.43,30.83a.11.11,0,0,1,0-.14.12.12,0,0,1,.15,0,.1.1,0,0,1,0,.14A.09.09,0,0,1,16.43,30.83Z"/><path class="cls-1" d="M15,28.61a.1.1,0,1,1,.14,0A.1.1,0,0,1,15,28.61Z"/><path class="cls-1" d="M12.78,29.77a.1.1,0,0,1,.14-.14.11.11,0,0,1,0,.14A.11.11,0,0,1,12.78,29.77Z"/><path class="cls-1" d="M11.84,30.86a.1.1,0,0,1,0-.14.11.11,0,0,1,.14,0,.11.11,0,0,1,0,.15A.1.1,0,0,1,11.84,30.86Z"/><path class="cls-1" d="M9.89,32.38a.11.11,0,0,1,0-.14.11.11,0,0,1,.15,0,.1.1,0,1,1-.14.14Z"/><path class="cls-1" d="M11.4,27.25a.11.11,0,0,1,0-.14.12.12,0,0,1,.15,0,.11.11,0,0,1,0,.15A.1.1,0,0,1,11.4,27.25Z"/><path class="cls-1" d="M9.78,28.21a.1.1,0,0,1,0-.14.11.11,0,0,1,.14,0,.11.11,0,0,1,0,.15A.1.1,0,0,1,9.78,28.21Z"/><path class="cls-1" d="M7.87,29.6a.1.1,0,1,1,.14,0A.1.1,0,0,1,7.87,29.6Z"/><path class="cls-1" d="M7,30.81a.11.11,0,0,1,0-.14.1.1,0,0,1,.14,0,.09.09,0,0,1,0,.14A.1.1,0,0,1,7,30.81Z"/><path class="cls-1" d="M5.79,31.76a.1.1,0,1,1,.14,0A.1.1,0,0,1,5.79,31.76Z"/><path class="cls-1" d="M3.78,52.28a.11.11,0,0,1,0-.14.1.1,0,0,1,.14,0,.09.09,0,0,1,0,.14A.1.1,0,0,1,3.78,52.28Z"/><path class="cls-1" d="M4.24,50.82a.11.11,0,0,1,0-.14.1.1,0,0,1,.14,0,.09.09,0,0,1,0,.14A.1.1,0,0,1,4.24,50.82Z"/><path class="cls-1" d="M20.25,29a.1.1,0,0,1,0-.14.11.11,0,0,1,.14,0,.1.1,0,1,1-.14.15Z"/><path class="cls-1" d="M22,28.53a.1.1,0,0,1,0-.14.11.11,0,0,1,.14,0,.1.1,0,0,1,0,.14A.09.09,0,0,1,22,28.53Z"/><path class="cls-1" d="M15.94,25.71a.11.11,0,0,1,0-.14.11.11,0,0,1,.15,0,.1.1,0,0,1-.14.15Z"/><path class="cls-1" d="M9.23,27.22a.1.1,0,1,1,.15,0A.11.11,0,0,1,9.23,27.22Z"/><path class="cls-1" d="M3.71,21.24a.1.1,0,0,1,0,.14"/><path class="cls-1" d="M5.23,20.63a.11.11,0,0,1,0-.14.12.12,0,0,1,.15,0,.1.1,0,0,1-.14.15Z"/><path class="cls-1" d="M3.81,13.91a.11.11,0,0,1,0-.14.11.11,0,0,1,.15,0,.1.1,0,0,1-.14.15Z"/><path class="cls-1" d="M12.51,4.56a.1.1,0,0,1,0-.14.11.11,0,0,1,.14,0,.12.12,0,0,1,0,.15A.11.11,0,0,1,12.51,4.56Z"/><path class="cls-1" d="M12.9,3.33a.1.1,0,1,1,.15,0A.11.11,0,0,1,12.9,3.33Z"/><path class="cls-1" d="M12.26,3.23a.1.1,0,0,1,0-.14.1.1,0,0,1,.15.13A.11.11,0,0,1,12.26,3.23Z"/><path class="cls-1" d="M9.14,4.92a.1.1,0,1,1,.14,0A.1.1,0,0,1,9.14,4.92Z"/><path class="cls-1" d="M7.46,6a.1.1,0,1,1,.15,0A.11.11,0,0,1,7.46,6Z"/><path class="cls-1" d="M5.37,4.43a.1.1,0,1,1,.14-.14.11.11,0,0,1,0,.14A.11.11,0,0,1,5.37,4.43Z"/><path class="cls-1" d="M10.41,9.78a.09.09,0,0,1,0-.14.1.1,0,1,1,0,.14Z"/><path class="cls-1" d="M13.77,9.39a.11.11,0,0,1,0-.14.11.11,0,0,1,.15,0,.1.1,0,0,1-.14.14Z"/><path class="cls-1" d="M10,11.09A.11.11,0,0,1,10,11a.11.11,0,0,1,.15,0,.1.1,0,0,1-.14.14Z"/><path class="cls-1" d="M12.16,12.85a.1.1,0,1,1,.14,0A.1.1,0,0,1,12.16,12.85Z"/><path class="cls-1" d="M13.36,14.42a.1.1,0,0,1,.14-.15.11.11,0,0,1,0,.14A.11.11,0,0,1,13.36,14.42Z"/><path class="cls-1" d="M13.72,16.17a.11.11,0,0,1,0-.14.1.1,0,0,1,.15,0,.1.1,0,0,1,0,.14A.11.11,0,0,1,13.72,16.17Z"/><path class="cls-1" d="M10.57,15.69a.1.1,0,1,1,.14,0A.1.1,0,0,1,10.57,15.69Z"/><path class="cls-1" d="M9.74,15.45a.1.1,0,1,1,.14,0A.1.1,0,0,1,9.74,15.45Z"/><path class="cls-1" d="M10.23,17.71a.1.1,0,0,1,.14-.15.11.11,0,0,1,0,.14A.11.11,0,0,1,10.23,17.71Z"/><path class="cls-1" d="M9.18,18.65a.11.11,0,0,1,0-.15.1.1,0,0,1,.15.14A.11.11,0,0,1,9.18,18.65Z"/><path class="cls-1" d="M7.64,19.9a.1.1,0,1,1,.15,0A.11.11,0,0,1,7.64,19.9Z"/><path class="cls-1" d="M8.66,21.37a.1.1,0,1,1,.14,0A.1.1,0,0,1,8.66,21.37Z"/><path class="cls-1" d="M8.07,22.61a.1.1,0,1,1,.13-.15.09.09,0,0,1,0,.14A.1.1,0,0,1,8.07,22.61Z"/><path class="cls-1" d="M7.82,25.09A.1.1,0,0,1,8,25a.11.11,0,0,1,0,.14A.11.11,0,0,1,7.82,25.09Z"/><path class="cls-1" d="M5.92,26a.1.1,0,0,1,.14-.14.11.11,0,0,1,0,.14A.11.11,0,0,1,5.92,26Z"/><path class="cls-1" d="M19.21,11.15a.1.1,0,0,1,0-.14.11.11,0,0,1,.14,0,.11.11,0,0,1,0,.15A.1.1,0,0,1,19.21,11.15Z"/><path class="cls-1" d="M18.09,10.54a.11.11,0,0,1,0-.14.1.1,0,0,1,.14,0,.09.09,0,0,1,0,.14A.1.1,0,0,1,18.09,10.54Z"/><path class="cls-1" d="M16.18,9.66a.1.1,0,0,1,.14-.15.11.11,0,0,1,0,.14A.11.11,0,0,1,16.18,9.66Z"/><path class="cls-1" d="M14.9,9.75a.1.1,0,0,1,0-.14.11.11,0,0,1,.14,0,.12.12,0,0,1,0,.15A.11.11,0,0,1,14.9,9.75Z"/><path class="cls-1" d="M12.24,9.41a.11.11,0,0,1,0-.14.11.11,0,0,1,.15,0,.1.1,0,0,1-.14.15Z"/><path class="cls-1" d="M24.46,9.1a.1.1,0,1,1,.14,0A.1.1,0,0,1,24.46,9.1Z"/><path class="cls-1" d="M21.08,8.07a.1.1,0,1,1,.14,0A.1.1,0,0,1,21.08,8.07Z"/><path class="cls-1" d="M20.52,5.87a.11.11,0,0,1,0-.15.1.1,0,0,1,.15.14A.11.11,0,0,1,20.52,5.87Z"/><path class="cls-1" d="M19.45,5.45a.1.1,0,1,1,.14,0A.1.1,0,0,1,19.45,5.45Z"/><path class="cls-1" d="M16.38,4.41a.1.1,0,1,1,.15,0A.11.11,0,0,1,16.38,4.41Z"/><path class="cls-1" d="M27.4,6.73a.1.1,0,0,1,0-.14.11.11,0,0,1,.14,0,.12.12,0,0,1,0,.15A.11.11,0,0,1,27.4,6.73Z"/><path class="cls-1" d="M28.94,7.35a.1.1,0,0,1,0-.14.11.11,0,0,1,.14,0,.1.1,0,0,1,0,.14A.09.09,0,0,1,28.94,7.35Z"/><path class="cls-1" d="M29.6,9a.1.1,0,0,1,0-.14.11.11,0,0,1,.14,0,.11.11,0,0,1,0,.15A.1.1,0,0,1,29.6,9Z"/><path class="cls-1" d="M30,11.37a.11.11,0,0,1,0-.14.11.11,0,0,1,.15,0,.1.1,0,0,1-.14.15Z"/><path class="cls-1" d="M27.39,11.14a.1.1,0,1,1,.14,0A.1.1,0,0,1,27.39,11.14Z"/><path class="cls-1" d="M26,10.14a.1.1,0,0,1,.14-.14.11.11,0,0,1,0,.14A.11.11,0,0,1,26,10.14Z"/><path class="cls-1" d="M29.2,21.34a.1.1,0,0,1,0-.14.11.11,0,0,1,.14,0,.11.11,0,0,1,0,.15A.1.1,0,0,1,29.2,21.34Z"/><path class="cls-1" d="M28.39,22.91a.09.09,0,0,1,0-.14.11.11,0,0,1,.14,0,.11.11,0,0,1,0,.15A.1.1,0,0,1,28.39,22.91Z"/><path class="cls-1" d="M30.16,23.51a.1.1,0,0,1,0-.14"/><path class="cls-1" d="M18.5,25.22a.1.1,0,1,1,.14,0A.1.1,0,0,1,18.5,25.22Z"/><path class="cls-1" d="M17.06,25.69a.11.11,0,0,1,0-.15.1.1,0,0,1,.14,0,.11.11,0,0,1,0,.14A.12.12,0,0,1,17.06,25.69Z"/><path class="cls-1" d="M14.66,23.89a.1.1,0,1,1,.14,0A.1.1,0,0,1,14.66,23.89Z"/><path class="cls-1" d="M14.74,22.43a.1.1,0,1,1,.14,0A.1.1,0,0,1,14.74,22.43Z"/><path class="cls-1" d="M11.11,22a.1.1,0,0,1,0-.14.11.11,0,0,1,.14,0,.11.11,0,0,1,0,.15A.1.1,0,0,1,11.11,22Z"/><path class="cls-1" d="M10.17,22.64a.11.11,0,0,1,0-.14.11.11,0,0,1,.15,0,.1.1,0,0,1-.14.15Z"/><path class="cls-1" d="M10.11,25a.1.1,0,0,1,0-.14.11.11,0,0,1,.14,0,.1.1,0,0,1,0,.14A.09.09,0,0,1,10.11,25Z"/><path class="cls-1" d="M12.61,26.15a.1.1,0,1,1,.14-.14.11.11,0,0,1,0,.14A.11.11,0,0,1,12.61,26.15Z"/><path class="cls-1" d="M13.37,26.84a.1.1,0,1,1,.14,0A.1.1,0,0,1,13.37,26.84Z"/><path class="cls-1" d="M12.15,28.51a.1.1,0,0,1,0-.14.11.11,0,0,1,.14,0,.1.1,0,0,1-.14.15Z"/><path class="cls-1" d="M11,28.15A.1.1,0,1,1,11.1,28a.11.11,0,0,1,0,.14A.11.11,0,0,1,11,28.15Z"/><path class="cls-1" d="M11.85,25.4a.1.1,0,1,1,.14,0A.1.1,0,0,1,11.85,25.4Z"/><path class="cls-1" d="M28.36,33.52a.11.11,0,0,1,0-.15.1.1,0,0,1,.15.14A.11.11,0,0,1,28.36,33.52Z"/><path class="cls-1" d="M22,49.64a.24.24,0,0,1-.47,0,.24.24,0,1,1,.47,0Z"/><path class="cls-1" d="M19.5,49.24a.24.24,0,1,1-.24-.23A.23.23,0,0,1,19.5,49.24Z"/><path class="cls-1" d="M22.26,46.18a.23.23,0,0,1-.24.23A.23.23,0,0,1,22,46,.23.23,0,0,1,22.26,46.18Z"/><path class="cls-1" d="M18.75,46.69a.23.23,0,0,1-.23.23.23.23,0,1,1,0-.46A.23.23,0,0,1,18.75,46.69Z"/><path class="cls-1" d="M16.72,44.53a.23.23,0,0,1-.24.23.23.23,0,0,1,0-.46A.23.23,0,0,1,16.72,44.53Z"/><path class="cls-1" d="M14.59,46.59a.23.23,0,1,1-.46,0,.23.23,0,0,1,.46,0Z"/><path class="cls-1" d="M25.73,39.87a.23.23,0,0,1-.23.23.23.23,0,0,1-.24-.23.24.24,0,0,1,.24-.24A.23.23,0,0,1,25.73,39.87Z"/><path class="cls-1" d="M27.45,41.71a.23.23,0,0,1-.23.23.23.23,0,0,1-.24-.23.24.24,0,0,1,.24-.24A.23.23,0,0,1,27.45,41.71Z"/><path class="cls-1" d="M29.5,39.86a.23.23,0,0,1-.23.23.23.23,0,0,1-.24-.23.24.24,0,0,1,.24-.24A.23.23,0,0,1,29.5,39.86Z"/><path class="cls-1" d="M19.77,33.47a.1.1,0,0,1,0-.14.11.11,0,0,1,.14,0,.11.11,0,0,1,0,.15A.1.1,0,0,1,19.77,33.47Z"/><path class="cls-1" d="M16.52,30.92a.1.1,0,0,1,.14-.15.11.11,0,0,1,0,.14A.11.11,0,0,1,16.52,30.92Z"/><path class="cls-1" d="M12.5,30.91a.11.11,0,0,1,0-.14.11.11,0,0,1,.15,0,.1.1,0,0,1-.14.14Z"/><path class="cls-1" d="M15.23,30.88a.1.1,0,0,1,0-.14.11.11,0,0,1,.14,0,.11.11,0,0,1,0,.15A.1.1,0,0,1,15.23,30.88Z"/><path class="cls-1" d="M12.9,31.92a.1.1,0,1,1,.13-.14.09.09,0,0,1,0,.14A.1.1,0,0,1,12.9,31.92Z"/><path class="cls-1" d="M25.4,35.67a.1.1,0,0,1,0-.14.11.11,0,0,1,.14,0,.11.11,0,0,1,0,.15A.1.1,0,0,1,25.4,35.67Z"/><path class="cls-1" d="M27.24,35.75a.1.1,0,0,1,.14-.15.11.11,0,0,1,0,.14A.11.11,0,0,1,27.24,35.75Z"/><path class="cls-1" d="M28.82,26.6a.1.1,0,1,1,.14,0A.1.1,0,0,1,28.82,26.6Z"/><path class="cls-1" d="M26.4,25.6a.1.1,0,1,1,.14,0A.1.1,0,0,1,26.4,25.6Z"/><path class="cls-1" d="M25.09,23.83a.09.09,0,0,1,0-.14.11.11,0,0,1,.14,0,.11.11,0,0,1,0,.15A.1.1,0,0,1,25.09,23.83Z"/><path class="cls-1" d="M22.73,24.93a.11.11,0,0,1,0-.14.11.11,0,0,1,.15,0,.1.1,0,0,1-.14.15Z"/><path class="cls-1" d="M22.59,26.67a.1.1,0,1,1,.14,0A.1.1,0,0,1,22.59,26.67Z"/><path class="cls-1" d="M20.87,26.29a.09.09,0,0,1,0-.14.1.1,0,1,1,0,.14Z"/><path class="cls-1" d="M19.85,24.21a.1.1,0,0,1,0-.14.11.11,0,0,1,.14,0,.12.12,0,0,1,0,.15A.11.11,0,0,1,19.85,24.21Z"/><path class="cls-1" d="M19.36,21.48a.1.1,0,0,1,.14-.14.11.11,0,0,1,0,.14A.11.11,0,0,1,19.36,21.48Z"/><path class="cls-1" d="M8.91,51.54a.1.1,0,1,1,.14,0A.1.1,0,0,1,8.91,51.54Z"/><path class="cls-1" d="M30.18,35.69a.1.1,0,0,1,0-.14"/><path class="cls-1" d="M29.27,35.83a.1.1,0,1,1,.14,0A.1.1,0,0,1,29.27,35.83Z"/><path class="cls-1" d="M28.78,35.16a.1.1,0,0,1,.14-.14.11.11,0,0,1,0,.14A.11.11,0,0,1,28.78,35.16Z"/><path class="cls-1" d="M28.83,31.31a.11.11,0,0,1,0-.15.1.1,0,0,1,.15.14A.11.11,0,0,1,28.83,31.31Z"/><path class="cls-1" d="M27.86,31.57a.11.11,0,0,1,0-.15.1.1,0,0,1,.14.14A.11.11,0,0,1,27.86,31.57Z"/><path class="cls-1" d="M26.38,31.31a.11.11,0,0,1,0-.14.1.1,0,0,1,.14,0,.09.09,0,0,1,0,.14A.1.1,0,0,1,26.38,31.31Z"/><path class="cls-1" d="M26,30.54a.11.11,0,0,1,0-.14.11.11,0,0,1,.15,0,.1.1,0,0,1-.14.15Z"/><path class="cls-1" d="M27,52.77a.1.1,0,0,1,0-.14.09.09,0,0,1,.14,0,.1.1,0,0,1,0,.14A.11.11,0,0,1,27,52.77Z"/><path class="cls-1" d="M28.08,45a.1.1,0,0,1,.14-.14.11.11,0,0,1,0,.14A.11.11,0,0,1,28.08,45Z"/><path class="cls-1" d="M25,46.12a.1.1,0,1,1,.14,0A.1.1,0,0,1,25,46.12Z"/><path class="cls-1" d="M25.23,49.16a.11.11,0,0,1,0-.15.1.1,0,0,1,.15.14A.11.11,0,0,1,25.23,49.16Z"/><path class="cls-1" d="M26.31,50.83a.1.1,0,1,1,.14,0A.1.1,0,0,1,26.31,50.83Z"/><path class="cls-1" d="M29.23,51.56a.1.1,0,1,1,.15,0A.11.11,0,0,1,29.23,51.56Z"/><path class="cls-1" d="M28.24,51.2a.1.1,0,0,1,.14-.15.11.11,0,0,1,0,.14A.11.11,0,0,1,28.24,51.2Z"/><path class="cls-1" d="M20.36,45.51a.11.11,0,0,1,0-.14.11.11,0,0,1,.15,0,.1.1,0,0,1-.14.15Z"/><path class="cls-1" d="M16.55,45a.1.1,0,0,1,.14-.14.11.11,0,0,1,0,.14A.11.11,0,0,1,16.55,45Z"/><path class="cls-1" d="M13.26,48.23a.1.1,0,1,1,.14,0A.1.1,0,0,1,13.26,48.23Z"/><path class="cls-1" d="M7.42,49.07a.1.1,0,1,1,.14,0A.1.1,0,0,1,7.42,49.07Z"/><path class="cls-1" d="M5.52,41.41a.1.1,0,1,1,.14,0A.1.1,0,0,1,5.52,41.41Z"/><path class="cls-1" d="M13,41.23a.1.1,0,1,1,.14-.14.11.11,0,0,1,0,.14A.11.11,0,0,1,13,41.23Z"/><path class="cls-1" d="M14,41.34a.1.1,0,0,1,.14-.14.11.11,0,0,1,0,.14A.11.11,0,0,1,14,41.34Z"/><path class="cls-1" d="M11,39.85a.1.1,0,1,1,.14,0A.1.1,0,0,1,11,39.85Z"/><path class="cls-1" d="M9.57,44.19a.1.1,0,1,1,.14,0A.1.1,0,0,1,9.57,44.19Z"/><path class="cls-1" d="M9.56,47.48a.11.11,0,0,1,0-.14.12.12,0,0,1,.15,0,.11.11,0,0,1,0,.15A.1.1,0,0,1,9.56,47.48Z"/><path class="cls-1" d="M5.21,46.72a.11.11,0,0,1,0-.14.1.1,0,0,1,.14,0,.09.09,0,0,1,0,.14A.1.1,0,0,1,5.21,46.72Z"/><path class="cls-1" d="M7,40.21a.1.1,0,1,1,.14,0A.1.1,0,0,1,7,40.21Z"/><path class="cls-1" d="M4.8,39.13a.1.1,0,1,1,.15,0A.11.11,0,0,1,4.8,39.13Z"/><path class="cls-1" d="M14.24,25.24a.1.1,0,1,1,.14,0A.1.1,0,0,1,14.24,25.24Z"/><path class="cls-1" d="M18,25.47a.1.1,0,0,1,0-.14.09.09,0,0,1,.14,0,.11.11,0,0,1,0,.14A.12.12,0,0,1,18,25.47Z"/><path class="cls-1" d="M17.71,28.07a.1.1,0,1,1,.13-.15.1.1,0,0,1,0,.14A.11.11,0,0,1,17.71,28.07Z"/><path class="cls-1" d="M14.39,30.21a.1.1,0,1,1,.13-.15.09.09,0,0,1,0,.14A.1.1,0,0,1,14.39,30.21Z"/><path class="cls-1" d="M24.05,32.61a.1.1,0,0,1,0-.14.11.11,0,0,1,.14,0,.1.1,0,0,1-.14.15Z"/><path class="cls-1" d="M28.13,30.35a.1.1,0,0,1,0-.14.1.1,0,1,1,.15.13A.1.1,0,0,1,28.13,30.35Z"/><path class="cls-1" d="M19.21,27.37a.11.11,0,0,1,0-.14.11.11,0,0,1,.15,0,.1.1,0,0,1-.14.14Z"/><path class="cls-1" d="M15.2,34.38a.1.1,0,1,1,.15,0A.11.11,0,0,1,15.2,34.38Z"/><path class="cls-1" d="M10.64,35.72a.11.11,0,0,1,0-.14.11.11,0,0,1,.15,0,.1.1,0,0,1-.14.15Z"/><path class="cls-1" d="M9.18,30.66a.1.1,0,1,1,.14,0A.1.1,0,0,1,9.18,30.66Z"/><path class="cls-1" d="M7.52,30.38a.1.1,0,0,1,.14-.14.11.11,0,0,1,0,.14A.11.11,0,0,1,7.52,30.38Z"/><path class="cls-1" d="M5.31,32.48a.1.1,0,0,1,0-.14.11.11,0,0,1,.14,0,.11.11,0,0,1,0,.15A.1.1,0,0,1,5.31,32.48Z"/><path class="cls-1" d="M8.06,33.89a.1.1,0,1,1,.15,0A.11.11,0,0,1,8.06,33.89Z"/><path class="cls-1" d="M3.66,33.65a.1.1,0,1,1,.14-.14.11.11,0,0,1,0,.14A.11.11,0,0,1,3.66,33.65Z"/><path class="cls-1" d="M7.16,33.73a.1.1,0,1,1,.14-.14.11.11,0,0,1,0,.14A.11.11,0,0,1,7.16,33.73Z"/><path class="cls-1" d="M6.9,34.51a.1.1,0,1,1,.14,0A.1.1,0,0,1,6.9,34.51Z"/><path class="cls-1" d="M8.88,32.58a.1.1,0,1,1,.14,0A.11.11,0,0,1,8.88,32.58Z"/><path class="cls-1" d="M6,31.25a.1.1,0,0,1,0-.14.1.1,0,1,1,.15.13A.1.1,0,0,1,6,31.25Z"/><path class="cls-1" d="M9.16,28.47a.1.1,0,1,1,.15,0A.11.11,0,0,1,9.16,28.47Z"/><path class="cls-1" d="M6.92,25.11a.1.1,0,1,1,.14,0A.1.1,0,0,1,6.92,25.11Z"/><path class="cls-1" d="M3.64,23.29a.1.1,0,0,1,0,.14"/><path class="cls-1" d="M5.09,18.18a.1.1,0,1,1,.14,0A.1.1,0,0,1,5.09,18.18Z"/><path class="cls-1" d="M7.17,18.57a.1.1,0,0,1,0-.14.09.09,0,0,1,.14,0,.1.1,0,0,1,0,.14A.11.11,0,0,1,7.17,18.57Z"/><path class="cls-1" d="M5.15,12.29a.11.11,0,0,1,0-.14.11.11,0,0,1,.15,0,.1.1,0,0,1-.14.14Z"/><path class="cls-1" d="M8.68,13.82a.1.1,0,0,1,.14-.14.11.11,0,0,1,0,.14A.11.11,0,0,1,8.68,13.82Z"/><path class="cls-1" d="M4,14.22a.1.1,0,1,1,.14,0A.1.1,0,0,1,4,14.22Z"/><path class="cls-1" d="M4.24,20.36a.11.11,0,0,1,0-.14.1.1,0,0,1,.15.13A.11.11,0,0,1,4.24,20.36Z"/><path class="cls-1" d="M3.85,19.61a.1.1,0,1,1,.14,0A.1.1,0,0,1,3.85,19.61Z"/><path class="cls-1" d="M11.5,23.35a.12.12,0,0,1,0-.15.11.11,0,0,1,.15,0,.1.1,0,0,1,0,.14A.11.11,0,0,1,11.5,23.35Z"/><path class="cls-1" d="M15.37,19.89a.1.1,0,1,1,.14,0A.1.1,0,0,1,15.37,19.89Z"/><path class="cls-1" d="M17.71,22.61a.1.1,0,1,1,.14,0A.1.1,0,0,1,17.71,22.61Z"/><path class="cls-1" d="M23.37,29.69a.1.1,0,0,1,0-.14.11.11,0,0,1,.14,0,.11.11,0,0,1,0,.15A.1.1,0,0,1,23.37,29.69Z"/><path class="cls-1" d="M22.19,23.11a.1.1,0,1,1,.14,0A.1.1,0,0,1,22.19,23.11Z"/><path class="cls-1" d="M23.53,15.42a.09.09,0,0,1,0-.14.11.11,0,0,1,.14,0,.1.1,0,0,1,0,.14A.09.09,0,0,1,23.53,15.42Z"/><path class="cls-1" d="M27.52,12a.11.11,0,0,1,0-.14.11.11,0,0,1,.15,0,.1.1,0,0,1-.14.14Z"/><path class="cls-1" d="M7.8,10.65a.1.1,0,0,1,0-.14.11.11,0,0,1,.14,0,.12.12,0,0,1,0,.15A.11.11,0,0,1,7.8,10.65Z"/><path class="cls-1" d="M12.4,8.77a.1.1,0,1,1,.14-.14.11.11,0,0,1,0,.14A.11.11,0,0,1,12.4,8.77Z"/><path class="cls-1" d="M11.35,9.21a.1.1,0,1,1,.14,0A.1.1,0,0,1,11.35,9.21Z"/><path class="cls-1" d="M15.58,11a.1.1,0,0,1,0-.14.11.11,0,0,1,.14,0,.11.11,0,0,1,0,.15A.1.1,0,0,1,15.58,11Z"/><path class="cls-1" d="M18,11.42a.11.11,0,0,1,0-.15.1.1,0,0,1,.14.14A.11.11,0,0,1,18,11.42Z"/><path class="cls-1" d="M7,13.15A.1.1,0,1,1,7.09,13a.11.11,0,0,1,0,.14A.11.11,0,0,1,7,13.15Z"/><path class="cls-1" d="M14.26,13.65a.1.1,0,1,1,.14,0A.1.1,0,0,1,14.26,13.65Z"/><path class="cls-1" d="M9,16.14A.09.09,0,0,1,9,16a.1.1,0,1,1,0,.14Z"/><path class="cls-1" d="M15.28,16.83a.11.11,0,0,1,0-.14.11.11,0,0,1,.15,0,.1.1,0,0,1-.14.15Z"/><path class="cls-1" d="M10,20.25a.1.1,0,0,1,0-.14.09.09,0,0,1,.14,0,.11.11,0,0,1,0,.14A.12.12,0,0,1,10,20.25Z"/><path class="cls-1" d="M11.52,20.15a.11.11,0,0,1,0-.14.11.11,0,0,1,.15,0,.1.1,0,0,1-.14.15Z"/><path class="cls-1" d="M12.43,16.88a.1.1,0,0,1,.14-.15.11.11,0,0,1,0,.14A.11.11,0,0,1,12.43,16.88Z"/><path class="cls-1" d="M9.23,17.72a.1.1,0,0,1,0-.14.11.11,0,0,1,.14,0,.12.12,0,0,1,0,.15A.11.11,0,0,1,9.23,17.72Z"/><path class="cls-1" d="M11.62,17.47a.11.11,0,0,1,0-.14.1.1,0,0,1,.14,0,.09.09,0,0,1,0,.14A.1.1,0,0,1,11.62,17.47Z"/><path class="cls-1" d="M16,18.15a.1.1,0,1,1,.14,0A.1.1,0,0,1,16,18.15Z"/><path class="cls-1" d="M6.25,20.51a.11.11,0,0,1,0-.14.11.11,0,0,1,.15,0,.1.1,0,1,1-.14.14Z"/><path class="cls-1" d="M8.29,20.51a.11.11,0,0,1,0-.15.1.1,0,0,1,.14.14A.11.11,0,0,1,8.29,20.51Z"/><path class="cls-1" d="M18,17.16A.11.11,0,0,1,18,17a.11.11,0,0,1,.15,0,.1.1,0,0,1-.14.15Z"/><path class="cls-1" d="M14.17,18.19A.1.1,0,0,1,14.3,18a.09.09,0,0,1,0,.14A.1.1,0,0,1,14.17,18.19Z"/><path class="cls-1" d="M13.52,21.26a.1.1,0,0,1,.13-.15.1.1,0,0,1,0,.15A.1.1,0,0,1,13.52,21.26Z"/><path class="cls-1" d="M23,24.7a.11.11,0,0,1,0-.14.11.11,0,0,1,.15,0,.1.1,0,0,1-.14.15Z"/><path class="cls-1" d="M17.67,29.1a.1.1,0,0,1,.14-.15.11.11,0,0,1,0,.14A.11.11,0,0,1,17.67,29.1Z"/><path class="cls-1" d="M20.29,32.37a.11.11,0,0,1,0-.15.1.1,0,0,1,.15.14A.11.11,0,0,1,20.29,32.37Z"/><path class="cls-1" d="M28.86,32.4a.11.11,0,0,1,0-.14.1.1,0,0,1,.14,0,.09.09,0,0,1,0,.14A.1.1,0,0,1,28.86,32.4Z"/><path class="cls-1" d="M18.09,35.15a.11.11,0,0,1,0-.14.1.1,0,1,1,.15.13A.11.11,0,0,1,18.09,35.15Z"/><path class="cls-1" d="M20.61,33.6a.1.1,0,1,1,.14,0A.1.1,0,0,1,20.61,33.6Z"/><path class="cls-1" d="M21.2,29.23a.11.11,0,0,1,0-.15.1.1,0,0,1,.15.14A.12.12,0,0,1,21.2,29.23Z"/><path class="cls-1" d="M20.14,29.84a.1.1,0,0,1,0-.14.11.11,0,0,1,.14,0,.11.11,0,0,1,0,.15A.1.1,0,0,1,20.14,29.84Z"/><path class="cls-1" d="M20.91,30.28a.1.1,0,0,1,0-.14.11.11,0,0,1,.14,0,.12.12,0,0,1,0,.15A.11.11,0,0,1,20.91,30.28Z"/><path class="cls-1" d="M16.21,31.65a.1.1,0,0,1,.14-.15.11.11,0,0,1,0,.14A.11.11,0,0,1,16.21,31.65Z"/><path class="cls-1" d="M19.46,31.8a.1.1,0,1,1,.14,0A.1.1,0,0,1,19.46,31.8Z"/><path class="cls-1" d="M28.81,33.58a.1.1,0,0,1,.14-.15.11.11,0,0,1,0,.14A.11.11,0,0,1,28.81,33.58Z"/><path class="cls-1" d="M14.67,40a.09.09,0,0,1,0-.14.11.11,0,0,1,.14,0,.1.1,0,1,1-.13.15Z"/><path class="cls-1" d="M14.87,41.79a.1.1,0,1,1,.14,0A.1.1,0,0,1,14.87,41.79Z"/><path class="cls-1" d="M10.81,45.3a.1.1,0,1,1,.15,0A.11.11,0,0,1,10.81,45.3Z"/><path class="cls-1" d="M14,46.07a.1.1,0,0,1,0-.14.1.1,0,0,1,.15.13A.11.11,0,0,1,14,46.07Z"/><path class="cls-1" d="M17.58,49.21a.1.1,0,0,1,0-.14.09.09,0,0,1,.14,0,.1.1,0,0,1,0,.14A.11.11,0,0,1,17.58,49.21Z"/><path class="cls-1" d="M29.5,24.6a.11.11,0,0,1,0-.14.12.12,0,0,1,.15,0,.11.11,0,0,1,0,.15A.1.1,0,0,1,29.5,24.6Z"/><path class="cls-1" d="M28.77,24.38a.1.1,0,1,1,.15,0A.12.12,0,0,1,28.77,24.38Z"/><path class="cls-1" d="M27.26,21a.11.11,0,0,1,0-.15.1.1,0,0,1,.15.14A.11.11,0,0,1,27.26,21Z"/><path class="cls-1" d="M26.18,21.28a.1.1,0,1,1,.14,0A.1.1,0,0,1,26.18,21.28Z"/><path class="cls-1" d="M30.22,23.42a.11.11,0,0,1-.14,0,.11.11,0,0,1,0-.15.1.1,0,0,1,.14,0"/><path class="cls-1" d="M29.14,26.21a.1.1,0,1,1,.14,0A.1.1,0,0,1,29.14,26.21Z"/><path class="cls-1" d="M27.33,49.72a.1.1,0,0,1,0-.14.11.11,0,0,1,.14,0,.1.1,0,0,1,0,.14A.09.09,0,0,1,27.33,49.72Z"/><path class="cls-1" d="M19.45,49.44a.1.1,0,1,1,.14,0A.11.11,0,0,1,19.45,49.44Z"/><path class="cls-1" d="M17.6,50a.12.12,0,0,1,0-.15.11.11,0,0,1,.15,0,.1.1,0,0,1,0,.14A.11.11,0,0,1,17.6,50Z"/><path class="cls-1" d="M11.62,50.15a.1.1,0,0,1,.14-.14.11.11,0,0,1,0,.14A.11.11,0,0,1,11.62,50.15Z"/><path class="cls-1" d="M8.93,49.9a.1.1,0,0,1,.14-.15.11.11,0,0,1,0,.14A.11.11,0,0,1,8.93,49.9Z"/><path class="cls-1" d="M4.9,50.42a.1.1,0,1,1,.15,0A.11.11,0,0,1,4.9,50.42Z"/><path class="cls-1" d="M4.86,36.92a.11.11,0,0,1,0-.14.11.11,0,0,1,.15,0,.1.1,0,0,1-.14.15Z"/><path class="cls-1" d="M5,34.83a.1.1,0,1,1,.14,0A.1.1,0,0,1,5,34.83Z"/><path class="cls-1" d="M12.45,33.57a.1.1,0,0,1,0-.14.11.11,0,0,1,.14,0,.12.12,0,0,1,0,.15A.11.11,0,0,1,12.45,33.57Z"/><path class="cls-1" d="M9.48,37.68a.1.1,0,0,1,0-.14.11.11,0,0,1,.14,0,.11.11,0,0,1,0,.15A.1.1,0,0,1,9.48,37.68Z"/><path class="cls-1" d="M22.92,39.4a.1.1,0,0,1,.14-.14.11.11,0,0,1,0,.14A.11.11,0,0,1,22.92,39.4Z"/><path class="cls-1" d="M15.38,42a.11.11,0,0,1,0-.15.1.1,0,1,1,.14.14A.11.11,0,0,1,15.38,42Z"/><path class="cls-1" d="M13.71,41.47a.1.1,0,0,1,.14-.14.11.11,0,0,1,0,.14A.11.11,0,0,1,13.71,41.47Z"/><path class="cls-1" d="M7.52,42.07a.1.1,0,1,1,.14,0A.1.1,0,0,1,7.52,42.07Z"/><path class="cls-1" d="M19.45,40.37a.11.11,0,0,1,0-.14.11.11,0,0,1,.15,0,.1.1,0,0,1-.14.14Z"/><path class="cls-1" d="M15.67,39.46a.1.1,0,1,1,.14,0A.1.1,0,0,1,15.67,39.46Z"/><path class="cls-1" d="M20.08,35.28a.1.1,0,0,1,0-.14.11.11,0,0,1,.14,0,.1.1,0,0,1,0,.14A.09.09,0,0,1,20.08,35.28Z"/><path class="cls-1" d="M13.05,36.87a.11.11,0,0,1,0-.15.1.1,0,0,1,.15.14A.11.11,0,0,1,13.05,36.87Z"/><path class="cls-1" d="M23,32.11a.1.1,0,1,1,.14,0A.1.1,0,0,1,23,32.11Z"/><path class="cls-1" d="M10.32,32.09a.11.11,0,0,1,0-.15.1.1,0,1,1,.14.14A.11.11,0,0,1,10.32,32.09Z"/><path class="cls-1" d="M17.9,28.41a.1.1,0,0,1,.14-.14.11.11,0,0,1,0,.14A.11.11,0,0,1,17.9,28.41Z"/><path class="cls-1" d="M14.58,27.74a.11.11,0,0,1,0-.15.1.1,0,0,1,.14.14A.11.11,0,0,1,14.58,27.74Z"/><path class="cls-1" d="M17.15,25.87a.1.1,0,0,1,0-.14.11.11,0,0,1,.14,0,.1.1,0,0,1,0,.14A.09.09,0,0,1,17.15,25.87Z"/><path class="cls-1" d="M17.07,23.75a.11.11,0,0,1,0-.14.11.11,0,0,1,.15,0,.1.1,0,0,1-.14.15Z"/><path class="cls-1" d="M11.94,22.81a.11.11,0,0,1,0-.15.1.1,0,0,1,.14.14A.11.11,0,0,1,11.94,22.81Z"/><path class="cls-1" d="M13.62,20.94a.1.1,0,0,1,0-.14.11.11,0,0,1,.14,0,.11.11,0,0,1,0,.15A.1.1,0,0,1,13.62,20.94Z"/><path class="cls-1" d="M4.68,20.63a.1.1,0,1,1,.13-.15.1.1,0,0,1,0,.15A.1.1,0,0,1,4.68,20.63Z"/><path class="cls-1" d="M8,18.8a.11.11,0,0,1,0-.14.12.12,0,0,1,.15,0,.11.11,0,0,1,0,.15A.1.1,0,0,1,8,18.8Z"/><path class="cls-1" d="M15.57,13.24a.1.1,0,1,1,.14,0A.1.1,0,0,1,15.57,13.24Z"/><path class="cls-1" d="M15.78,11.36a.11.11,0,0,1,0-.14.11.11,0,0,1,.15,0,.1.1,0,0,1-.14.14Z"/><path class="cls-1" d="M18.64,10.41a.1.1,0,0,1,0-.14.11.11,0,0,1,.14,0,.11.11,0,0,1,0,.15A.1.1,0,0,1,18.64,10.41Z"/><path class="cls-1" d="M27.58,9.31a.1.1,0,1,1,.14,0A.1.1,0,0,1,27.58,9.31Z"/><path class="cls-1" d="M26,11.54a.1.1,0,1,1,.14,0A.1.1,0,0,1,26,11.54Z"/><path class="cls-1" d="M29.87,9.92a.1.1,0,1,1,.14,0A.1.1,0,0,1,29.87,9.92Z"/><path class="cls-1" d="M28,3.23a.11.11,0,0,1,0-.15.1.1,0,0,1,.15.14A.12.12,0,0,1,28,3.23Z"/><path class="cls-1" d="M27.42,3.86a.11.11,0,0,1,0-.14.11.11,0,0,1,.15,0,.1.1,0,0,1-.14.15Z"/><path class="cls-1" d="M26.45,3.41a.11.11,0,0,1,0-.15.1.1,0,0,1,.14,0,.11.11,0,0,1,0,.14A.12.12,0,0,1,26.45,3.41Z"/><path class="cls-1" d="M24.92,3.81a.1.1,0,1,1,.14,0A.1.1,0,0,1,24.92,3.81Z"/><path class="cls-1" d="M23.86,3.87A.1.1,0,1,1,24,3.73a.11.11,0,0,1,0,.14A.11.11,0,0,1,23.86,3.87Z"/><path class="cls-1" d="M21.37,3.59a.1.1,0,1,1,.15,0A.11.11,0,0,1,21.37,3.59Z"/><path class="cls-1" d="M20.09,3.83a.1.1,0,1,1,.14,0A.11.11,0,0,1,20.09,3.83Z"/><path class="cls-1" d="M19.81,3.11a.1.1,0,1,1,.14,0A.1.1,0,0,1,19.81,3.11Z"/><path class="cls-1" d="M16.37,3.06a.1.1,0,1,1,.15,0A.11.11,0,0,1,16.37,3.06Z"/><path class="cls-1" d="M15,3.21a.1.1,0,1,1,.14,0A.1.1,0,0,1,15,3.21Z"/><path class="cls-1" d="M12.68,3.15a.1.1,0,1,1,.14,0A.1.1,0,0,1,12.68,3.15Z"/><path class="cls-1" d="M10.41,3.5a.1.1,0,1,1,.14,0A.11.11,0,0,1,10.41,3.5Z"/><path class="cls-1" d="M8.63,3.35a.1.1,0,1,1,.13-.14.09.09,0,0,1,0,.14A.1.1,0,0,1,8.63,3.35Z"/><path class="cls-1" d="M6.91,3.18A.11.11,0,0,1,6.9,3a.12.12,0,0,1,.15,0,.11.11,0,0,1,0,.15A.1.1,0,0,1,6.91,3.18Z"/><path class="cls-1" d="M5.32,3.26a.1.1,0,0,1,.14-.15.11.11,0,0,1,0,.14A.12.12,0,0,1,5.32,3.26Z"/><path class="cls-1" d="M26.4,52.36a.1.1,0,1,1,.14,0A.1.1,0,0,1,26.4,52.36Z"/><path class="cls-1" d="M22.31,51.59a.1.1,0,0,1,.14-.14.11.11,0,0,1,0,.14A.11.11,0,0,1,22.31,51.59Z"/><path class="cls-1" d="M19.46,51.84a.11.11,0,0,1,0-.14.1.1,0,0,1,.15,0,.1.1,0,0,1,0,.14A.11.11,0,0,1,19.46,51.84Z"/><path class="cls-1" d="M17.56,52.37a.11.11,0,0,1,0-.14.11.11,0,0,1,.15,0,.1.1,0,0,1-.14.15Z"/><path class="cls-1" d="M14.79,52.61a.1.1,0,0,1,0-.14.11.11,0,0,1,.14,0,.12.12,0,0,1,0,.15A.11.11,0,0,1,14.79,52.61Z"/><path class="cls-1" d="M12.43,52.38a.11.11,0,0,1,0-.15.1.1,0,0,1,.15.14A.12.12,0,0,1,12.43,52.38Z"/><path class="cls-1" d="M8.86,51.79a.11.11,0,0,1,0-.14.11.11,0,0,1,.15,0,.1.1,0,0,1-.14.14Z"/><path class="cls-1" d="M13.86,51.37a.1.1,0,1,1,.14,0A.1.1,0,0,1,13.86,51.37Z"/><path class="cls-1" d="M28.07,51.71a.1.1,0,1,1,.14,0A.1.1,0,0,1,28.07,51.71Z"/><path class="cls-1" d="M28,5a.1.1,0,1,1,.14,0A.1.1,0,0,1,28,5Z"/><path class="cls-1" d="M21.3,4.43a.11.11,0,0,1,0-.15.1.1,0,0,1,.15.14A.11.11,0,0,1,21.3,4.43Z"/><path class="cls-1" d="M17.43,4.19a.1.1,0,1,1,.14,0A.1.1,0,0,1,17.43,4.19Z"/><path class="cls-1" d="M12.25,4.55a.12.12,0,0,1,0-.15.1.1,0,0,1,.14,0,.09.09,0,0,1,0,.14A.11.11,0,0,1,12.25,4.55Z"/><path class="cls-1" d="M7.32,4.52a.11.11,0,0,1,0-.14.11.11,0,0,1,.15,0,.1.1,0,0,1-.14.15Z"/><path class="cls-1" d="M3.75,5.52a.11.11,0,0,1,0-.14.1.1,0,0,1,.14,0,.09.09,0,0,1,0,.14A.1.1,0,0,1,3.75,5.52Z"/><path class="cls-1" d="M6.46,6.51a.1.1,0,1,1,.14,0A.1.1,0,0,1,6.46,6.51Z"/><path class="cls-1" d="M16.5,6.69a.11.11,0,0,1,0-.14.12.12,0,0,1,.15,0,.11.11,0,0,1,0,.15A.1.1,0,0,1,16.5,6.69Z"/><path class="cls-1" d="M23,6.68a.12.12,0,0,1,0-.15.11.11,0,0,1,.15,0,.1.1,0,0,1,0,.14A.11.11,0,0,1,23,6.68Z"/><path class="cls-1" d="M27.68,6.75a.1.1,0,0,1,0-.14.11.11,0,0,1,.14,0,.12.12,0,0,1,0,.15A.11.11,0,0,1,27.68,6.75Z"/></svg>