<svg id="Layer_1" data-name="Layer 1" xmlns="http://www.w3.org/2000/svg" viewBox="0 0 406.75 287.17"><defs><style>.cls-1{fill:#091531;}</style></defs><title>Artboard 1</title><path class="cls-1" d="M115.92,83.86a1.6,1.6,0,0,1,.61.76c-3.65,7.3-7.91,8.82-11.71,8.82a13.8,13.8,0,0,1-2.74-.3c-3.65-.91-7.46-3.5-11-7.3-.76,1.52-1.52,3.19-2.43,4.71a129.74,129.74,0,0,1-15.21,23.28c-3.2,3.65-9,9.89-12.78,9.89-7.15,0-12.48-7-12.48-14.15A52.68,52.68,0,0,1,50.5,94.66l-3,5.32a169.85,169.85,0,0,1-9.28,14.31c-2,2.58-5,7.3-9.28,7.3-9.13,0-13.54-9.59-13.09-18.11.61-11.25,7.46-30.88,7.61-31.79l.31-.61h.76a30.7,30.7,0,0,1,5.78,1.21c4.26,1.37,6.54,3.35,6.84,5.79l.16.15-.16.3c-.15.15-8.06,15.67-8.52,30.58,0,.92-.15,8.68,1.37,8.68,1.22,0,5.33-2,16-19.33,4.87-7.91,9.13-15.82,11.41-20.23l.61.15a13.76,13.76,0,0,1,4.72,1.37,9.65,9.65,0,0,1,5.93,7.15l.15.3-.3.31c0,.15-6.85,10.8-6.85,23.43,0,4,.91,5.48,3,5.48,3.2,0,14.61-10,22.52-26.78l2.43-5.17C81.69,75.18,74.54,62.41,74.54,49c0-10.2,5.48-16.43,13.69-16.43,7.91,0,12,9,12,15.21A87,87,0,0,1,91.89,84c3.49,4,7.15,6.54,10.65,7.3,5,1.22,9.12-1.06,12.32-7.61a2.53,2.53,0,0,1,.91.16ZM79.11,49A52.61,52.61,0,0,0,90.52,82.34C96,69.86,98.73,57.84,98.43,48.1c0-5.32-3.65-13.69-9.89-13.69-6.85-.15-9.43,7.76-9.43,14.61"/><path class="cls-1" d="M159.28,84.62a117.38,117.38,0,0,1-11.72,18.56,70,70,0,0,1-12.93,13.08c-5.33,4-10.65,6.09-15.82,6.09a8.71,8.71,0,0,1-6.7-2.59c-2.28-2.28-3.35-5.93-3.19-11.1.3-12.48,6.84-30.43,7.15-31.19l.3-.76.76.15s2.44.61,4.87,1.52c3.65,1.37,5.33,2.89,5.48,4.72v.15l-.15.15c0,.15-5.78,19.78-5.18,30.73.15,3.81,1.68,3.81,2.29,3.81,5.93,0,13.69-5.94,22.21-17.19a168.63,168.63,0,0,0,11.11-17,2.56,2.56,0,0,1,.91.16.94.94,0,0,1,.61.76m-38.5-24.5a8.71,8.71,0,0,1,7.61-5.32,6.77,6.77,0,0,1,2.89.76c3.65,1.67,4.87,6.69,2.89,11-1.67,3.2-4.56,5.33-7.76,5.33a8.18,8.18,0,0,1-2.74-.61c-3.8-1.83-5-6.85-2.89-11.11"/><path class="cls-1" d="M234.89,84.62c-.15,0-5.78,10.5-13.09,21.15-10,14.45-18.1,21.75-24,21.75-7.31,0-12.63-4.26-14-11.41-.61-4,.76-9.89,2.13-15.21.15-.92,3-10.35.15-10.35-1.52,0-5.93,2.28-17.65,17-5.32,6.85-10.19,13.69-12,16.28l-.61,1.83-.3.15a6.25,6.25,0,0,1-2.89.76c-4.87,0-9.43-5.93-9.59-6.24l-.15-.15v-.46c.91-10,4.57-19.47,7.46-25.56a84.88,84.88,0,0,1,5.93-11l.15-.31h.31a7.63,7.63,0,0,1,2.43-.45c2.74,0,4.87,1.67,6.24,4.72a12.33,12.33,0,0,1,1.22,4.41v.15L158.51,117c3.05-4.42,7.46-10.81,12.33-17,12.62-16,22.36-24,29.21-24,8.67.3,4.72,12,2.43,19.62-1.52,5.18-3.19,10.8-4.11,15.83-.3,1.82-2.13,11.25,2,11.25,3.2,0,9.28-3.34,20.69-19.47,6.85-9.89,12-19.32,12.17-19.47a1.22,1.22,0,0,1,1.07.3,2.18,2.18,0,0,1,.61.61"/><path class="cls-1" d="M285.7,84.62a227.45,227.45,0,0,1-12.63,21.45c-10,14.76-18.41,22.21-25.1,22.21a16.69,16.69,0,0,1-11.26-4c-4.26-3.81-6.7-10-7-18.26-.31-8.82,2.43-22.52,8.22-40.62.76-2.74,1.67-5.33,2.58-7.76a28.86,28.86,0,0,1-9.13-.61c-5.17-1.52-7.3-4.72-8.06-7.15a10.06,10.06,0,0,1-.46-4.87,1.23,1.23,0,0,1,1.07-.3,1.74,1.74,0,0,1,.76.61c0,.3-1.22,7.45,7.3,9.88,2.44.77,5.63.77,9.13.61,3-8.82,6.09-18.71,6.09-18.86l.3-.76.76.3c.76.15,7.76,2.28,9.28,5.33a3.8,3.8,0,0,1,.15,2.28l-3,9.89c4.87-.61,9.28-.92,12,.3a8.2,8.2,0,0,1,4.87,5.17c.91,2.74.15,5.94-1.83,9.29a1.83,1.83,0,0,1-1.06-.31c-.31-.15-.61-.76-.61-.76,1.83-2.74,2.43-5.48,1.83-7.76a7.19,7.19,0,0,0-4-3.95c-2.43-1.07-6.85-.77-11.87,0-4.56,16.12-14.15,52.33-11.87,63.74,1.07,4.87,2.74,6.7,5.79,6.7,5.93,0,14-7.31,23.43-21.45A188.49,188.49,0,0,0,284,83.71a4.11,4.11,0,0,1,1.07.15,1.6,1.6,0,0,1,.61.76"/><path class="cls-1" d="M336.51,84.62a173.71,173.71,0,0,1-13.09,21.15c-6.69,9.28-17.19,21.9-30.27,21.9a24.94,24.94,0,0,1-10.5-1.82c-4.56-2.13-7.61-6.09-9-11.87-3.5-16.13,8.68-38.49,27.54-38.49,3.65,0,10.8,1.22,11.41,5.93,0,7.46-6.84,13.39-13.84,16a42.26,42.26,0,0,1-10.5,2.28,30,30,0,0,0,1.52,15.37c.61,1.21,3.35,7.45,8.67,7.45,6.55,0,14.91-6.69,24.19-19.47a183,183,0,0,0,12.18-19.32,2.69,2.69,0,0,1,.91.15,2.51,2.51,0,0,1,.76.76M310.8,82c0-2.43-3.35-4.26-5.63-4.26-8.37,0-14.61,13.09-16.43,20.08a53.46,53.46,0,0,0,9.43-2.12c5.17-2.14,12.63-6.85,12.63-13.7"/><path class="cls-1" d="M390.51,84.62c-.15,0-5.93,11.26-13.84,22.67-10.8,15.67-19.93,23.58-27.23,23.58-8.22,0-11.41-9.89-11.41-17q0-9.36,5.93-23.73c2.13-5.33,4.26-9.74,5.17-11.57a70,70,0,0,1-7.61-4.11c-2.73,5.79-4.86,10-5.17,10.5a2.69,2.69,0,0,1-.91-.15,1.46,1.46,0,0,1-.76-.76s2.58-4.56,5.47-10.8c-5.93-5-9-11.26-9-17.95,0-7.16,3.8-15.68,11.71-15.68,5.94,0,7.92,5.48,7.15,10.5-.91,6.54-4.41,15.52-7.76,22.67,4.42,3.35,17.81,6.24,18.87,11.11V84l-.15.3c0,.16-6.7,17-8.52,30.13-.46,2.59-2.13,11.26,2.89,11.26,2.43,0,8.21-2.74,20.69-21,7.15-10.65,12.78-20.84,12.78-21a4.11,4.11,0,0,1,1.07.15,1.61,1.61,0,0,1,.6.76M348.22,50.08c.61-3.95-.15-8.67-5.48-8.67-4.87,0-7.91,5.63-7.91,13.39,0,6.69,1.07,11.71,6.09,16.73,3-7,6.39-15.36,7.3-21.45"/><path class="cls-1" d="M168.63,31.82a8.56,8.56,0,0,1,1,0c.66.06,1.61.08,2.87.08.38,0,1,0,1.72.09a1.65,1.65,0,0,1,.62.2.29.29,0,0,1,.2.29.42.42,0,0,1-.17.33,1.87,1.87,0,0,1-.9.2h-3.44c-.13,0-.22,0-.24,0s0,.12,0,.29V35.3a4.22,4.22,0,0,0,0,.78c0,.22,0,.41,0,.58l0,.24,0,.7L170.1,39c0,.3,0,.76,0,1.39,0,.27,0,.74-.08,1.39l0,1.11a2.25,2.25,0,0,0,0,.53v.29a1.93,1.93,0,0,0-.08.49l0,.62c0,.43,0,.77,0,1l0,.25a2,2,0,0,0,0,.41,2.71,2.71,0,0,1,0,.4l0,2.75,0,.58,0,1.06a2,2,0,0,0,0,.49c0,.3,0,.78,0,1.43v.41a8.2,8.2,0,0,0,0,1V55c0,.16-.06.35-.08.57a5.94,5.94,0,0,0,0,.78,6.22,6.22,0,0,1-.09.94c0,.14,0,.38-.06.74a4.32,4.32,0,0,0,0,.94.84.84,0,0,1-.14.51.78.78,0,0,1-.47.27,3.24,3.24,0,0,1-.9,0,.51.51,0,0,1-.54-.49,5.11,5.11,0,0,1,0-.7l0-1.27c0-.35,0-.94-.08-1.76v-.45c0-.49,0-.86,0-1.11v-.84a7.72,7.72,0,0,0-.08-1.2v-.13a4.15,4.15,0,0,0,.08-.73,1.53,1.53,0,0,0,0-.33,1.14,1.14,0,0,1,0-.37,5.32,5.32,0,0,0,0-1.15v-.37a5.07,5.07,0,0,0-.08-1.1c-.05-.06-.05-.12,0-.21a2.25,2.25,0,0,0,0-.53,4.63,4.63,0,0,0,0-.74,11.33,11.33,0,0,1,0-1.14c0-.33,0-.61,0-.82s0-.32,0-.56a2.73,2.73,0,0,1,0-.59,7.94,7.94,0,0,0,.08-1.23V38.46a2.05,2.05,0,0,1,.09-.49.35.35,0,0,0,0-.21,3,3,0,0,1,0-.61c0-.28,0-.71.09-1.31l0-.74a1.14,1.14,0,0,1,0-.37,1.59,1.59,0,0,0,0-.37,1.78,1.78,0,0,0,0-.41,2.89,2.89,0,0,1,.08-.61.55.55,0,0,0,0-.23.57.57,0,0,0-.21-.14h-.16l-1.11,0a2.91,2.91,0,0,0-.57,0,10.88,10.88,0,0,1-1.15,0c-.49,0-.87,0-1.15,0a1.59,1.59,0,0,1-.69-.33.28.28,0,0,1-.08-.23.17.17,0,0,1,.12-.18.8.8,0,0,1,.45-.16l.9-.09a19.71,19.71,0,0,1,2-.16h2.46Z"/><path class="cls-1" d="M192.18,41.86c0,.19,0,.48,0,.86a7.33,7.33,0,0,1,0,1.06v1.85a3.91,3.91,0,0,1,0,.61,5.46,5.46,0,0,0,0,.58c0,.54,0,1.36,0,2.45l0,.49c0,.44-.08.77-.08,1l0,1.31v.49a2,2,0,0,1,0,.49,1,1,0,0,0,0,.54c0,.08,0,.19,0,.32a.83.83,0,0,1,0,.33c0,.3,0,.64,0,1v.81l-.13,1.6v.78a1,1,0,0,1-.16.49.83.83,0,0,1-.49.25,1,1,0,0,1-.33,0,3.87,3.87,0,0,1-.57-.08.79.79,0,0,1-.41-.49l0-.37a1,1,0,0,0,0-.43,2.9,2.9,0,0,1,0-.48,1,1,0,0,1,0-.32.76.76,0,0,0,0-.25l0-.49a2.48,2.48,0,0,0,0-.45c0-.19,0-.42,0-.68a2.19,2.19,0,0,1,0-.63v-1.8c0-.42,0-1.06,0-1.93l0-1.64V48.13c0-.47,0-.81,0-1a.49.49,0,0,0,0-.26c0-.05-.1-.08-.24-.11a8.05,8.05,0,0,0-1.35-.12,10.25,10.25,0,0,0-1.56.12l-.7.09H185a7.92,7.92,0,0,1-1.21-.09h-.2a.2.2,0,0,0-.21.17,1.42,1.42,0,0,0,0,.57,7.21,7.21,0,0,1,0,.92c0,.26,0,.49,0,.68a7.59,7.59,0,0,0,0,.92c0,.26,0,.47,0,.64a1.6,1.6,0,0,1,0,.36,1.64,1.64,0,0,1,0,.37,2.76,2.76,0,0,0,0,.6c0,.23,0,.41,0,.55v.74l-.13,2.82a7.77,7.77,0,0,1,0,1,15.81,15.81,0,0,1-.08,1.8v.24a.67.67,0,0,1-.25.43,1.11,1.11,0,0,1-.57.11.72.72,0,0,1-.61-.21,1.5,1.5,0,0,1-.25-.78c-.06-.6-.08-1-.08-1.35s0-.35,0-.57a7.22,7.22,0,0,0,0-.78,8.8,8.8,0,0,0,0-.9,2,2,0,0,1,0-.49l0-.9a7.36,7.36,0,0,0,0-.78,6.1,6.1,0,0,0,0-.74l0-1.72,0-1.11c0-.24,0-.61,0-1.1V46.36c0-.21,0-.47,0-.77s0-.64,0-1l0-.49,0-.2a2.59,2.59,0,0,0,.08-.66v-.49c0-.25,0-.67.08-1.27l0-.33V40.5l0-.2a1.14,1.14,0,0,1,0-.37,2.42,2.42,0,0,1,0-.47,2.42,2.42,0,0,0,0-.47,6.92,6.92,0,0,1,0-1c0-.29,0-.52,0-.68l0-.53,0-.62a2.17,2.17,0,0,1,0-.47V35.3l.08-1.6.09-1.35a4.73,4.73,0,0,1,.12-.57.78.78,0,0,1,.61-.57h.37a.89.89,0,0,1,.55.12,1,1,0,0,1,.23.57c.05.47.09.88.1,1.23s0,.64,0,.86v.86a3.82,3.82,0,0,0,.08.9v.13a1.78,1.78,0,0,0,0,.41c0,.16,0,.36,0,.61a2.13,2.13,0,0,1,0,.62,6.32,6.32,0,0,0-.1,1c0,.38,0,.67,0,.86,0,.63,0,1.57-.08,2.83a7.71,7.71,0,0,1-.08.86c0,.76,0,1.34,0,1.72l0,.86c0,.16.1.24.29.24h1.15a5.48,5.48,0,0,0,1.15-.08,5.61,5.61,0,0,1,.82-.08,11.79,11.79,0,0,1,1.18,0c.55,0,1,0,1.23,0h.37a.2.2,0,0,0,.17-.2l0-1.44a.44.44,0,0,0,0-.1.08.08,0,0,1,0-.1,4.76,4.76,0,0,0,0-.66l0-1.23a2,2,0,0,1,0-.41,2.71,2.71,0,0,0,0-.41l0-1.15a8.56,8.56,0,0,1,0-1V36.78a1.1,1.1,0,0,1,.08-.45s0-.11,0-.25a2.3,2.3,0,0,1,0-.53,6,6,0,0,1,0-.68c0-.26.06-.45.08-.59a7.59,7.59,0,0,0,0-.94V32.23a.48.48,0,0,1,0-.24.85.85,0,0,1,.86-.83h.2a2.08,2.08,0,0,1,.53.09c.17,0,.27.08.31.16a2.32,2.32,0,0,1,.14.41c0,.19.06.42.09.68s0,.45,0,.59a8,8,0,0,0,0,1,7.58,7.58,0,0,1,0,.93c0,.26,0,.48,0,.67s-.06.45-.1.76a3,3,0,0,0,0,.84,1.82,1.82,0,0,0,0,.45l0,.66c0,.27,0,.68,0,1.22s0,1,0,1.27a7.77,7.77,0,0,0,0,1"/><path class="cls-1" d="M203.66,32.44a9,9,0,0,1-1.73-.13.65.65,0,0,0-.24,0c-.19,0-.31,0-.35.08a.64.64,0,0,0-.06.33c.05.71.08,1.22.08,1.52l-.08,1.68a3.2,3.2,0,0,1,0,.49,1.12,1.12,0,0,0,0,.45,3.3,3.3,0,0,1,0,.61,3.34,3.34,0,0,0,0,.41l-.08,2.22L201,41.69v.17c0,.52,0,1.21-.08,2.09l0,1v.49a.26.26,0,0,0,.33.33l1.1-.12c.49-.06.93-.1,1.31-.13h.33a3.12,3.12,0,0,1,1.07.17c.24,0,.37.16.37.33s-.11.27-.33.32a3.59,3.59,0,0,1-.86.17c-.25,0-.62,0-1.11.08l-2,.12c-.22,0-.33.1-.33.29v1.15c0,.43,0,.76,0,1,0,.68,0,1.19,0,1.52s-.05,1-.05,1.84c0,.27,0,.68,0,1.23l-.08,1.64,0,.37,0,.37a.83.83,0,0,0,0,.28l0,.57a2,2,0,0,0,.74,1.44,1.38,1.38,0,0,0,.37.2,5.74,5.74,0,0,0,1.06.17,2.27,2.27,0,0,0,.66-.08.46.46,0,0,0,.21-.05,7.85,7.85,0,0,0,1.55-.16l1-.2a5.63,5.63,0,0,1,.86-.08l.61,0a1.28,1.28,0,0,1,.49.17.28.28,0,0,1,.12.27.27.27,0,0,1-.12.26,2.84,2.84,0,0,1-.41.17,10.71,10.71,0,0,1-2,.36,2.06,2.06,0,0,0-.46.09c-.32.08-.71.15-1.14.22s-.78.12-1,.14a2.12,2.12,0,0,1-.53,0,9.05,9.05,0,0,1-2-.33,3,3,0,0,1-1.35-.9,2.63,2.63,0,0,1-.53-1.31,19.27,19.27,0,0,1-.17-2.63,15.38,15.38,0,0,0,0-2v-.21a3.34,3.34,0,0,0,.08-.9V51a3.63,3.63,0,0,1,.05-.7v-.12l-.05-.41.05-1V46.77l.08-2,0-1.44v-.24a6.52,6.52,0,0,0,.12-1.44l.12-1.72.13-1.55c0-.55.11-1.34.16-2.38l.17-2.58a5.94,5.94,0,0,1,0-.78c0-.22.05-.41.08-.57v-.21a.82.82,0,0,1,.08-.41.47.47,0,0,1,.33-.16,8,8,0,0,1,.94-.09c.33,0,.82,0,1.48.09a9.11,9.11,0,0,0,1.47.12l2.75.12a6.17,6.17,0,0,1,.65.08,1.52,1.52,0,0,1,.25.17.36.36,0,0,1,.16.27.25.25,0,0,1-.16.22,1.42,1.42,0,0,1-.82.25,1.64,1.64,0,0,1-.43,0,1.9,1.9,0,0,0-.31,0c-1-.06-1.8-.08-2.29-.08"/><path class="cls-1" d="M56.07,197l.5-3.13.49-4c.22-1.37.35-2.46.41-3.29l.25-2.05.41-2.88v-.24a4.93,4.93,0,0,0,.33-1.36c0-.52.08-.86.08-1a7.32,7.32,0,0,1,.08-.91,7.43,7.43,0,0,1,.25-1.23,1.52,1.52,0,0,0,.08-.58,12.5,12.5,0,0,1,.24-2.79,3.7,3.7,0,0,0,.09-.94,5.06,5.06,0,0,1,.08-1,5.81,5.81,0,0,1,.25-2,.89.89,0,0,0,.08-.49,19.62,19.62,0,0,1,.33-3,12.48,12.48,0,0,1,.37-1.64,7.39,7.39,0,0,0,.28-1.89l.17-.66a53.37,53.37,0,0,0,1.07-5.34c.27-1.2.54-2.74.82-4.6.05-.27.19-.82.41-1.64a2.47,2.47,0,0,1,2.13-1.4,2.2,2.2,0,0,1,1.32.5.69.69,0,0,1,.24.49v1.76a17.76,17.76,0,0,1-.16,2.51l-.49,3.28a6.25,6.25,0,0,1-.08,1c-.06.3-.12.57-.17.78q-.17.75-.57,2.79l-.25,1.4a10.9,10.9,0,0,0-.33,1.81l-.41,1.81-.08.82a10.09,10.09,0,0,0-.12,1.39,4.4,4.4,0,0,1-.29,1.48l.08.41a2.75,2.75,0,0,1-.08.7c-.06.19-.11.37-.17.53q-.16,2.15-.65,5.76-.09.57-.21,1.23c-.08.44-.15.87-.2,1.31l-.41,2.71q-.09.49-.21,1.44a13.82,13.82,0,0,1-.29,1.6,26.59,26.59,0,0,0-.53,3.16c-.14,1.18-.24,2-.29,2.43l-.49,3.12c-.11.87-.22,1.59-.33,2.13s-.12.85-.21,1.24-.15.79-.2,1.23a5.75,5.75,0,0,1-.41,2.05,7,7,0,0,0-.33,1.81,2.65,2.65,0,0,1-.41,1.4,1.68,1.68,0,0,1-1.32.82H55.91a4.59,4.59,0,0,0-1-.17A1.87,1.87,0,0,1,53,204.35c-.11-.33-.23-.71-.37-1.15s-.28-.91-.45-1.4a9,9,0,0,0-.57-2.22l-.5-1.8-.49-3.21a1.11,1.11,0,0,0-.12-.49,1,1,0,0,1-.12-.33c-.06-.33-.14-.72-.25-1.19a3,3,0,0,1-.08-1.19,1.21,1.21,0,0,0-.08-.49A40.32,40.32,0,0,1,48.93,185c-.06-.33-.13-.64-.21-.94s-.15-.59-.2-.86l-.66-4c-.06-.33-.19-1-.41-1.89a11.58,11.58,0,0,1-.08-1.64,5.57,5.57,0,0,0-.42-2,9.51,9.51,0,0,1-.36-1.61c-.09-.57-.16-1-.21-1.27a33.4,33.4,0,0,0-.74-4.35,1.66,1.66,0,0,1,0-.62,1.66,1.66,0,0,0,0-.62c-.06-.16-.12-.35-.21-.57a1.71,1.71,0,0,1-.12-.57,12.56,12.56,0,0,0-.25-1.57,12.14,12.14,0,0,1-.24-1.56c-.06-.6-.17-1.3-.33-2.09s-.3-1.41-.41-1.85l-.25-2.13-.33-1.32-.08-.58A13.84,13.84,0,0,1,43,151a3.79,3.79,0,0,1-.08-.82.92.92,0,0,1,.29-.74,2.62,2.62,0,0,1,1.11-.42,1.49,1.49,0,0,1,.57-.08,5.2,5.2,0,0,1,1.4.33,1.84,1.84,0,0,1,1,1.32,18.9,18.9,0,0,1,.91,3.28,2.07,2.07,0,0,0,.08.62c0,.19.11.37.16.53l.09.41a6.91,6.91,0,0,0,.41,2.22l.33,1.64.82,3.95a9.85,9.85,0,0,1,.33,2.21,14.4,14.4,0,0,0,.57,3c.05.22.11.51.16.86a5.56,5.56,0,0,1,.09.86.17.17,0,0,1,0,.17.12.12,0,0,0,0,.16,12.19,12.19,0,0,1,.41,2.22,13.76,13.76,0,0,0,.33,1.89,1.44,1.44,0,0,1,0,.57,1.48,1.48,0,0,0,0,.58,3,3,0,0,0,.08.82,27.74,27.74,0,0,1,.66,3.62q.16.74.33,1.89l.33,1.15c.11.76.22,1.39.33,1.88a26.37,26.37,0,0,0,.65,3.78c.06.28.11.57.17.87s.11.59.16.86a13.1,13.1,0,0,0,.41,1.72l.49,3.54L56,197Z"/><path class="cls-1" d="M96.28,196.91a17.64,17.64,0,0,0,0-2c0-.55-.08-1.37-.08-2.46,0-.88,0-1.65-.09-2.3s-.11-1.21-.16-1.65c0-.6-.08-1.47-.08-2.62-.11-1.54-.17-2.66-.17-3.37l.09-1v-2c0-1.53,0-2.68.08-3.45,0-.33,0-.78,0-1.36a17.64,17.64,0,0,0,0-2c0-.49,0-1.28.16-2.38,0-.27,0-.64,0-1.11a12.4,12.4,0,0,1,0-1.68l-.08-3a9.38,9.38,0,0,1,.16-2.06V162A5.12,5.12,0,0,1,96,161v-1.23a6.6,6.6,0,0,0-.08-1.15.39.39,0,0,1,0-.29.59.59,0,0,0,0-.21v-1.89a7,7,0,0,0,0-.74,4.23,4.23,0,0,1,0-1c0-.55.08-1.4.08-2.55a9.24,9.24,0,0,1,.25-2.54,1,1,0,0,1,.65-.83,3.24,3.24,0,0,1,1.4-.33,2.72,2.72,0,0,1,1.32.33c.44.22.65.5.65.83a7.29,7.29,0,0,0,.09,1,4.11,4.11,0,0,1,0,1.11v.57a8.47,8.47,0,0,0,.08,1.4l.08,3a17.48,17.48,0,0,1-.25,3,8.13,8.13,0,0,0,0,1.27c0,.36,0,.67,0,.94V163a13.13,13.13,0,0,0-.16,1.73,2.63,2.63,0,0,0,.08.73,2.32,2.32,0,0,1,0,.91,17.15,17.15,0,0,0-.08,1.72v1.4l-.08,3.86a11,11,0,0,0,.08,1.11,4.06,4.06,0,0,1,0,1.11,6.86,6.86,0,0,0,0,1.31c0,.5,0,.85,0,1.07.05.49.08,1.18.08,2.05,0,1.32,0,2.3.08,3l.09,3.29a4.64,4.64,0,0,1,.08,1l.24,7.39v2.63l.09,1.73a1.84,1.84,0,0,1,.08.66l-.08,1.15.08,1.23v.16a1.93,1.93,0,0,1-.37,1.32,1.8,1.8,0,0,1-1.19.49,6.76,6.76,0,0,1-1.15.08,2.25,2.25,0,0,1-1.15-.49,2.33,2.33,0,0,1-.5-1.15l-.24-4.11c0-.38,0-.86,0-1.44"/><path class="cls-1" d="M145,204.43c-.55,0-1.37-.05-2.46-.16l-2.88-.25a18.73,18.73,0,0,0-2-.08,10.53,10.53,0,0,0-1.48.08c-.71.11-1.72.22-3,.33H133a3.73,3.73,0,0,1-1.24-.33c-.33-.22-.46-.44-.41-.66a2.24,2.24,0,0,0,.08-1.11,3.38,3.38,0,0,1,0-1c-.11-1.32-.16-2.28-.16-2.88,0-.33,0-.74,0-1.23a11.59,11.59,0,0,0,0-1.64v-1.07a5.24,5.24,0,0,0-.08-1.07v-.16c0-.17,0-.41,0-.74a2.61,2.61,0,0,0,0-.82,4,4,0,0,1-.09-1,2.27,2.27,0,0,1,.09-.74,1.84,1.84,0,0,0,.08-.66c0-.49,0-1.19-.08-2.09s-.11-1.66-.17-2.26v-2.55a3.25,3.25,0,0,0-.08-.82.32.32,0,0,0,0-.16c0-.06,0-.14,0-.25a2.66,2.66,0,0,0,.08-.82,6.75,6.75,0,0,0-.08-1.11,8.46,8.46,0,0,1-.08-1.19v-1.81a17.92,17.92,0,0,0-.17-2.54l-.08-1.32.08-1.23a27.49,27.49,0,0,0-.16-3.53l.08-1.07c0-.49-.08-1.2-.08-2.13-.05-.55-.08-1.37-.08-2.47a15.39,15.39,0,0,1,.08-1.81,11.1,11.1,0,0,0,0-1.6c0-.46,0-.86,0-1.19q0-2.13.33-6.41a9.7,9.7,0,0,1,.41-1.89,1.8,1.8,0,0,1,.49-.74,3.59,3.59,0,0,1,1.56-.32,2.91,2.91,0,0,1,1.07.16.69.69,0,0,1,.45.29,1.13,1.13,0,0,1,.13.61l.16,3.12.08,2.88v3s-.08.06-.08.16a9.52,9.52,0,0,1,.16,1.85v1.36l.09,3.61a1,1,0,0,1,.08.41,4.66,4.66,0,0,0-.17,1.28v3.81l-.08,3.87.08,5.09v3l.09,1.56.08.57-.17,3.12a19.06,19.06,0,0,0,.09,2.14c0,1.26,0,3.2.16,5.83l.08,1.4a2.32,2.32,0,0,1,.08.74,9.62,9.62,0,0,0-.16,1.47,21.32,21.32,0,0,0,.16,2.14c0,.28.12.41.33.41l1.24.08a15.67,15.67,0,0,1,2.62-.16c.88,0,2.08.05,3.62.16a18.26,18.26,0,0,0,2.18,0c.62,0,1.16,0,1.6,0h.82a3.75,3.75,0,0,1,1.56.25,2,2,0,0,1,.9.57.71.71,0,0,1,.25.5c0,.16-.14.33-.41.49a2,2,0,0,1-1.23.41c-.94.11-2.3.22-4.11.33"/><path class="cls-1" d="M194.23,204.43c-.55,0-1.37-.05-2.46-.16l-2.88-.25a18.59,18.59,0,0,0-2-.08,10.53,10.53,0,0,0-1.48.08c-.71.11-1.72.22-3,.33h-.24a3.63,3.63,0,0,1-1.23-.33q-.5-.33-.42-.66a2.35,2.35,0,0,0,.09-1.11,2.82,2.82,0,0,1,0-1c-.11-1.32-.17-2.28-.17-2.88,0-.33,0-.74,0-1.23a10.27,10.27,0,0,0,0-1.64v-1.07a5.24,5.24,0,0,0-.08-1.07v-.16c0-.17,0-.41,0-.74a2.61,2.61,0,0,0,0-.82,4.15,4.15,0,0,1-.08-1,2.32,2.32,0,0,1,.08-.74,1.84,1.84,0,0,0,.08-.66c0-.49,0-1.19-.08-2.09s-.11-1.66-.16-2.26v-2.55a3.21,3.21,0,0,0-.09-.82.32.32,0,0,0,0-.16c0-.06,0-.14,0-.25a2.59,2.59,0,0,0,.09-.82,6.74,6.74,0,0,0-.09-1.11A8.46,8.46,0,0,1,180,178v-1.81a18,18,0,0,0-.16-2.54l-.09-1.32.09-1.23a27.08,27.08,0,0,0-.17-3.53l.08-1.07c-.05-.49-.08-1.2-.08-2.13-.05-.55-.08-1.37-.08-2.47a15.39,15.39,0,0,1,.08-1.81,9.82,9.82,0,0,0,0-1.6c0-.46,0-.86,0-1.19q0-2.13.33-6.41a10.5,10.5,0,0,1,.41-1.89,1.84,1.84,0,0,1,.5-.74,3.51,3.51,0,0,1,1.55-.32,2.91,2.91,0,0,1,1.07.16.69.69,0,0,1,.45.29,1.13,1.13,0,0,1,.13.61l.16,3.12.08,2.88v3c-.05,0-.08.06-.08.16a9.47,9.47,0,0,1,.17,1.85v1.36l.08,3.61a1,1,0,0,1,.08.41,4.67,4.67,0,0,0-.16,1.28v3.81l-.09,3.87.09,5.09v3l.08,1.56.08.57-.16,3.12a19.56,19.56,0,0,0,.08,2.14q0,1.89.16,5.83l.09,1.4a2.66,2.66,0,0,1,.08.74,9.94,9.94,0,0,0-.17,1.47c0,.44.06,1.16.17,2.14,0,.28.11.41.33.41l1.23.08a15.8,15.8,0,0,1,2.63-.16c.87,0,2.08.05,3.61.16a18.26,18.26,0,0,0,2.18,0c.63,0,1.16,0,1.6,0h.82a3.75,3.75,0,0,1,1.56.25,2,2,0,0,1,.91.57.73.73,0,0,1,.24.5c0,.16-.14.33-.41.49a2,2,0,0,1-1.23.41q-1.4.17-4.11.33"/><path class="cls-1" d="M228,203.94l.58-4.52.24-2.14q.66-5.58,1.07-8.37c.05-.39.17-1.07.33-2.06s.27-1.86.33-2.63a12,12,0,0,1,.25-1.76c.1-.52.19-1,.24-1.36l.33-1.89.33-2.71a29.34,29.34,0,0,0,.41-3.12l.66-3.78,1.23-7.06.41-2.22,1.07-4.93.49-2c.49-1.86.74-2.87.74-3a1.17,1.17,0,0,1,1.07-1h.74a1.6,1.6,0,0,1,1.64,1.15l.74,2.71.66,4c0,.17,0,.28.08.33a10.45,10.45,0,0,1,.57,2.51c.11.95.19,1.68.25,2.17l.66,5.59.16,1.48.74,7.06q.17,1.16.33,3.78l.57,3.53A6.16,6.16,0,0,0,245,185a7,7,0,0,0,.16,1.32l.25,2.79.49,6.9q.49,3.61.82,5.83l.25,2.3v.17c0,.49-.3.79-.91.9a3.76,3.76,0,0,1-1.06,0,1.5,1.5,0,0,1-1.48-1.4c-.11-.6-.22-1.5-.33-2.71l-.25-1.15c-.11-.65-.22-1.75-.33-3.28-.11-.66-.22-1.65-.33-3l-.32-3.28-.25-1.57a.43.43,0,0,0-.49-.49h-3c-.55,0-1.22,0-2,0s-1.72,0-2.76,0a1.46,1.46,0,0,0-.61.08,1.07,1.07,0,0,0-.21.58l-.41,2.87-.24,1.81c-.06.66-.2,1.59-.41,2.79-.06.39-.11.85-.17,1.4s-.08,1-.08,1.23l-.66,5.59-.08.49a1.35,1.35,0,0,1-.41.74,1.53,1.53,0,0,1-.82.16,1.91,1.91,0,0,1-1.07-.37,1.3,1.3,0,0,1-.33-1Zm10.6-45.39a12.21,12.21,0,0,0-.5-2.26l-.24.91c-.06.33-.11.74-.17,1.23a13.29,13.29,0,0,1-.32,1.73,24.48,24.48,0,0,0-.58,2.63,13.93,13.93,0,0,1-.33,1.72l-.74,4.27c-.11.77-.32,1.92-.65,3.45l-.41,3.37-.74,5.09-.66,3.86a10,10,0,0,0-.17,1.48c-.05.22,0,.37,0,.45a.54.54,0,0,0,.37.13h.5l2-.09,4.93-.08c.27,0,.44,0,.49-.12a1.17,1.17,0,0,0,.08-.53l-.33-2.14-.24-3c-.11-1.31-.22-2.3-.33-3a17.27,17.27,0,0,0-.16-2l-.25-2L240,172c-.22-1.81-.36-3.24-.42-4.28l-.16-1.64c-.06-.82-.19-2.19-.41-4.11a9.93,9.93,0,0,0-.17-1.39c-.05-.5-.13-1.17-.24-2"/><path class="cls-1" d="M290.34,179.13h1.56a6.09,6.09,0,0,1,3.61,1.32.51.51,0,0,1,.33.49,3.14,3.14,0,0,1,.25,1.23,15.61,15.61,0,0,1,.08,1.72,13.54,13.54,0,0,0,.08,1.73,6.12,6.12,0,0,1,.12,1.64c0,.61,0,1,0,1.32a4.84,4.84,0,0,0,.17,1.15v.66a30.2,30.2,0,0,0-.33,3.53,9.88,9.88,0,0,1-.29,2.87c-.25,1-.4,1.75-.45,2.14a10.4,10.4,0,0,1-1.07,2.21,3.28,3.28,0,0,1-.57.83,7.69,7.69,0,0,1-4.69,3.12c-1.2.11-2.05.16-2.54.16a10.53,10.53,0,0,1-1.48-.08,7.61,7.61,0,0,1-1.69-.41l-1.43-.49a5.47,5.47,0,0,1-1.52-.83c-.52-.38-.92-.65-1.19-.82a7,7,0,0,1-1.89-2.38,18,18,0,0,1-1.4-4.84l-.33-1.89-.24-3.45-.25-3.62-.08-3v-.41c0-.27,0-.64-.08-1.11a3.33,3.33,0,0,1,0-1.1l.16-1.32a3.74,3.74,0,0,1,0-.49,3,3,0,0,0,0-.82,17.4,17.4,0,0,1-.16-2.06,13,13,0,0,1,.16-1.64,1.84,1.84,0,0,0-.08-.66,1.75,1.75,0,0,0,0-.32.43.43,0,0,1,0-.33,9.69,9.69,0,0,0,.08-1.24v-.9l.08-3.78c0-.76,0-1.43.08-2s.11-1,.17-1.44l.24-.74a7.24,7.24,0,0,1,.17-1.15c0-.16,0-.5.08-1a5.42,5.42,0,0,1,.33-1.44,1.52,1.52,0,0,0,.08-.58,1.49,1.49,0,0,1,.08-.57c.11-.33.26-.86.46-1.6s.39-1.41.61-2a26.73,26.73,0,0,1,1.4-3.37,6.38,6.38,0,0,1,5.09-3.54,11.77,11.77,0,0,1,3.78.25,9.55,9.55,0,0,1,1.27.49l1,.5,1.15.74a4.49,4.49,0,0,1,.9.82c.88,1.42,1.51,2.52,1.89,3.28a15.74,15.74,0,0,1,1.07,3.37,3.07,3.07,0,0,1,.08.82,2.31,2.31,0,0,1-.16,1,.77.77,0,0,1-.41.49,4.59,4.59,0,0,1-1,.17,1.59,1.59,0,0,1-1.72-1.32l-.09-.16a5.7,5.7,0,0,0-.53-2.1c-.3-.63-.63-1.26-1-1.89s-.62-1.08-.79-1.35a6.82,6.82,0,0,0-2.71-2.47,3.46,3.46,0,0,1-.74-.41,2.47,2.47,0,0,0-.65-.16,1.75,1.75,0,0,0-1,.41,8,8,0,0,0-1.48,2v.17a11.7,11.7,0,0,0-1.31,3.73c-.28,1.46-.47,2.43-.58,2.92a12.1,12.1,0,0,0-.33,1.81l-.41,1.89c-.05.44-.11,1-.16,1.6s-.08,1.11-.08,1.43c-.11,1.21-.17,2.14-.17,2.8a1,1,0,0,0,.09.49,1.67,1.67,0,0,0,0,.37,1.46,1.46,0,0,1,0,.53c-.12,1.32-.17,2.3-.17,3l.08,3v.25c0,3.28,0,5.75.09,7.39l-.09.82v1.23a3.73,3.73,0,0,0,0,.41,1.73,1.73,0,0,1,0,.66.69.69,0,0,0,0,.66,12.39,12.39,0,0,1,.09,1.64,12.61,12.61,0,0,0,.08,1.64,14.43,14.43,0,0,1,.08,1.73,12.58,12.58,0,0,0,.33,3,4.06,4.06,0,0,0,.29,1.85,10.77,10.77,0,0,1,.45,1.35,3.79,3.79,0,0,0,1.07,2l.24.25a4.48,4.48,0,0,0,2.06,1.64,6.26,6.26,0,0,0,2.79.74,2.61,2.61,0,0,0,1.64-.82c.17-.17.48-.49,1-1a6,6,0,0,0,1-1.39,5.68,5.68,0,0,0,.54-1.4c.13-.55.23-.93.28-1.15a7,7,0,0,0,.33-2.46,4.64,4.64,0,0,1,.09-1c0-.27.1-.52.16-.74a16.16,16.16,0,0,0,.25-3.28v-1.65c0-1-.06-2.41-.17-4.27a6.59,6.59,0,0,0-.57-2,.79.79,0,0,0-.74-.49H289.1a13.88,13.88,0,0,1-3-.25,2.4,2.4,0,0,1-1-.33,1.07,1.07,0,0,1-.49-.74.79.79,0,0,1,.49-.74,4.21,4.21,0,0,1,1.31-.41,18.81,18.81,0,0,1,2-.08,5,5,0,0,1,1.14,0c.33,0,.61,0,.83,0Z"/><path class="cls-1" d="M334.77,150.38a18.32,18.32,0,0,1-3.45-.24,1,1,0,0,0-.49-.09c-.38,0-.62.06-.7.17a1.21,1.21,0,0,0-.12.65c.11,1.43.16,2.44.16,3l-.16,3.37a6.57,6.57,0,0,1-.09,1,2.67,2.67,0,0,0,0,.9,6.82,6.82,0,0,1,.05,1.23c0,.33-.05.61-.05.82l-.16,4.44-.33,3.29v.32c0,1-.05,2.44-.16,4.19l-.08,2.06v1a.84.84,0,0,0,.12.54.8.8,0,0,0,.53.12l2.22-.25c1-.11,1.86-.19,2.63-.24h.66a6.19,6.19,0,0,1,2.13.33c.5.11.74.32.74.65s-.22.55-.66.66a6.88,6.88,0,0,1-1.72.33,21.75,21.75,0,0,0-2.22.16l-3.94.25q-.66,0-.66.57v2.3a18.46,18.46,0,0,1-.08,2c0,1.37,0,2.39-.08,3-.06.83-.08,2.06-.08,3.7q-.09.83-.09,2.46l-.16,3.29.08.74.08.74a1.49,1.49,0,0,0-.08.57l.08,1.15a4,4,0,0,0,1.48,2.88,4,4,0,0,0,.74.41,11.26,11.26,0,0,0,2.14.33,4.25,4.25,0,0,0,1.31-.17.86.86,0,0,0,.41-.08,15.78,15.78,0,0,0,3.12-.33l2.06-.41a13,13,0,0,1,1.72-.16l1.23.08a2.53,2.53,0,0,1,1,.33.61.61,0,0,1,.25.53.61.61,0,0,1-.25.54,6.3,6.3,0,0,1-.82.33,25,25,0,0,1-4.11.74,4.44,4.44,0,0,0-.9.16c-.66.16-1.43.31-2.3.45s-1.56.23-2.06.29a5.12,5.12,0,0,1-1.06.08,17.92,17.92,0,0,1-4-.66,5.93,5.93,0,0,1-2.71-1.8,5.43,5.43,0,0,1-1.07-2.63,38.51,38.51,0,0,1-.33-5.26,33.08,33.08,0,0,0-.08-3.94v-.41a7.17,7.17,0,0,0,.17-1.81v-1.4a7.6,7.6,0,0,1,.08-1.39V186l-.08-.82.08-1.89v-4.19l.16-4,.08-2.88v-.49a12.35,12.35,0,0,0,.25-2.88l.25-3.45.24-3.12c.11-1.09.22-2.68.33-4.76l.33-5.18a13.92,13.92,0,0,1,.08-1.56c.06-.44.11-.82.17-1.15v-.41a1.53,1.53,0,0,1,.16-.82,1,1,0,0,1,.66-.33,16.9,16.9,0,0,1,1.89-.16c.65,0,1.64.05,3,.16a17.28,17.28,0,0,0,2.95.25l5.51.24a10.6,10.6,0,0,1,1.31.17,1.88,1.88,0,0,1,.49.33.67.67,0,0,1,.33.53.5.5,0,0,1-.33.45,2.88,2.88,0,0,1-1.64.5,3.75,3.75,0,0,1-.86,0,5.15,5.15,0,0,0-.62,0c-2.08-.11-3.61-.17-4.6-.17"/><polygon class="cls-1" points="94.41 257.35 94.41 242.47 94.34 242.47 90.14 257.35 88.57 257.35 84.39 242.47 84.32 242.47 84.32 257.35 82.72 257.35 82.72 240.22 85.24 240.22 89.33 254.69 89.43 254.69 93.47 240.22 96.08 240.22 96.08 257.35 94.41 257.35"/><polygon class="cls-1" points="114.51 257.35 114.51 240.22 121.41 240.22 121.41 241.72 116.16 241.72 116.16 247.72 121.07 247.72 121.07 249.17 116.16 249.17 116.16 255.83 121.65 255.83 121.65 257.35 114.51 257.35"/><polygon class="cls-1" points="139.14 257.35 139.14 240.22 140.83 240.22 140.83 255.78 145.72 255.78 145.72 257.35 139.14 257.35"/><path class="cls-1" d="M171.12,252.68a5.1,5.1,0,0,1-.43,2.23,4.31,4.31,0,0,1-1.07,1.44,4,4,0,0,1-1.44.77,5.54,5.54,0,0,1-1.51.23h-4.38V240.22h3.88a6.13,6.13,0,0,1,1.5.2,4,4,0,0,1,1.42.66,3.64,3.64,0,0,1,1.06,1.28,4.56,4.56,0,0,1,.41,2,4.87,4.87,0,0,1-.21,1.51,3.6,3.6,0,0,1-.55,1.11,3.21,3.21,0,0,1-.78.78,3.88,3.88,0,0,1-.9.47v.05a3.56,3.56,0,0,1,2,1.2,4.26,4.26,0,0,1,.74,1.3,5.44,5.44,0,0,1,.29,1.85m-2.16-8a3.54,3.54,0,0,0-.25-1.42,2.61,2.61,0,0,0-.68-.93,2.46,2.46,0,0,0-.95-.49,4,4,0,0,0-1.09-.15h-2.11v6.05H166a3.21,3.21,0,0,0,1.05-.17A2.42,2.42,0,0,0,168,247a3,3,0,0,0,.68-.95,3.46,3.46,0,0,0,.26-1.4m.49,7.91a4.08,4.08,0,0,0-.29-1.62,3.24,3.24,0,0,0-.75-1.08,3.06,3.06,0,0,0-1-.6,3.4,3.4,0,0,0-1.1-.19h-2.4v6.82h2.4a3.82,3.82,0,0,0,1.23-.2,2.51,2.51,0,0,0,1-.6,2.89,2.89,0,0,0,.68-1,4.21,4.21,0,0,0,.24-1.5"/><path class="cls-1" d="M199.15,248.76a16.68,16.68,0,0,1-.38,3.67,9.52,9.52,0,0,1-1.12,2.84,5.56,5.56,0,0,1-1.76,1.84,4.44,4.44,0,0,1-2.37.65,4.51,4.51,0,0,1-2.39-.65,5.74,5.74,0,0,1-1.79-1.84,9.52,9.52,0,0,1-1.12-2.84,16.08,16.08,0,0,1-.39-3.67,16.54,16.54,0,0,1,.38-3.64,9.09,9.09,0,0,1,1.1-2.83,5.35,5.35,0,0,1,1.78-1.82,4.47,4.47,0,0,1,2.43-.66,4.36,4.36,0,0,1,2.37.66,5.49,5.49,0,0,1,1.76,1.82,9.35,9.35,0,0,1,1.12,2.83,16.54,16.54,0,0,1,.38,3.64m-1.76,0a15.66,15.66,0,0,0-.25-2.9,8.66,8.66,0,0,0-.73-2.35,4.68,4.68,0,0,0-1.22-1.57,2.59,2.59,0,0,0-1.67-.58,2.7,2.7,0,0,0-1.73.58,4.33,4.33,0,0,0-1.22,1.57,8.66,8.66,0,0,0-.73,2.35,17.64,17.64,0,0,0,0,5.8,9,9,0,0,0,.73,2.38,4.24,4.24,0,0,0,1.22,1.59,2.7,2.7,0,0,0,1.73.58,2.61,2.61,0,0,0,1.69-.58,4.33,4.33,0,0,0,1.21-1.59,9.39,9.39,0,0,0,.72-2.38,15.66,15.66,0,0,0,.25-2.9"/><path class="cls-1" d="M226.19,253.85a6.2,6.2,0,0,1-.82,2.05,4.1,4.1,0,0,1-1.52,1.37,5.07,5.07,0,0,1-2.32.49,5,5,0,0,1-2.31-.49,4.12,4.12,0,0,1-1.5-1.37,5.79,5.79,0,0,1-.81-2.05,12.41,12.41,0,0,1-.24-2.5V240.22h1.69v10.91a12.73,12.73,0,0,0,.14,1.86,5.07,5.07,0,0,0,.48,1.64,3,3,0,0,0,1,1.15,3.21,3.21,0,0,0,3.21,0,3,3,0,0,0,1-1.15,5.38,5.38,0,0,0,.48-1.62,12.79,12.79,0,0,0,.14-1.88V240.22h1.69v11.13a11.71,11.71,0,0,1-.25,2.5"/><path class="cls-1" d="M251.65,257.35l-3.1-7.93h-2.2v7.93h-1.67V240.22h4.11a5.84,5.84,0,0,1,1.63.23,3.68,3.68,0,0,1,2.4,2.17,5.38,5.38,0,0,1,.37,2.13,5.5,5.5,0,0,1-.28,1.87,4.06,4.06,0,0,1-.72,1.32,3.44,3.44,0,0,1-1,.82,3.09,3.09,0,0,1-1.08.37l3.34,8.22Zm-.1-12.52a4,4,0,0,0-.25-1.53,2.52,2.52,0,0,0-.68-1,2.39,2.39,0,0,0-1-.51,4.2,4.2,0,0,0-1.12-.15h-2.18v6.41h2.25a2.77,2.77,0,0,0,2.16-.85,3.39,3.39,0,0,0,.79-2.4"/><polygon class="cls-1" points="278.33 257.35 272.38 243.1 272.31 243.1 272.31 257.35 270.71 257.35 270.71 240.22 272.81 240.22 278.74 254.47 278.81 254.47 278.81 240.22 280.36 240.22 280.36 257.35 278.33 257.35"/><polygon class="cls-1" points="298.79 257.35 298.79 240.22 305.69 240.22 305.69 241.72 300.44 241.72 300.44 247.72 305.35 247.72 305.35 249.17 300.44 249.17 300.44 255.83 305.93 255.83 305.93 257.35 298.79 257.35"/></svg>