<?xml version="1.0" encoding="utf-8"?>
<!-- Generator: Adobe Illustrator 22.1.0, SVG Export Plug-In . SVG Version: 6.00 Build 0)  -->
<svg version="1.1" id="Layer_1" xmlns="http://www.w3.org/2000/svg" xmlns:xlink="http://www.w3.org/1999/xlink" x="0px" y="0px"
	 viewBox="0 0 21 20" style="enable-background:new 0 0 21 20;" xml:space="preserve">
<style type="text/css">
	.st0{fill:#051331;}
</style>
<title>cart</title>
<desc>Created with Sketch.</desc>
<g id="Page-1_1_">
	<g id="_x31_.-Home_1_" transform="translate(-340.000000, -111.000000)">
		<g id="Nav_1_" transform="translate(0.000000, 92.000000)">
			<g id="basket_1_" transform="translate(340.000000, 19.000000)">
				<g id="cart_1_">
					<path id="Shape_1_" class="st0" d="M21,9.9c0.1-0.5-0.2-1-0.8-1.1c-0.5-0.1-1,0.2-1.1,0.8l-1.3,6.8v0.2c0,0.9-0.7,1.6-1.6,1.6
						l-11.4,0c-0.9,0-1.6-0.7-1.6-1.6v-0.2L2.2,9.7h13.5c0.4,0,0.7-0.2,0.8-0.5c0.2-0.3,0.1-0.7,0-0.9l-5.1-7.8
						C11.2,0.2,10.9,0,10.5,0c-0.3,0-0.6,0.2-0.8,0.4L6.9,5C6.7,5.4,6.8,6,7.3,6.3C7.7,6.5,8.3,6.4,8.6,6l2-3.2l3.4,5.1L1,7.8H0.9
						H0.8c0,0-0.1,0-0.1,0c0,0,0,0-0.1,0c0,0,0,0-0.1,0c0,0,0,0-0.1,0c0,0,0,0,0,0c0,0,0,0-0.1,0c0,0,0,0,0,0.1l0,0c0,0,0,0,0,0.1
						c0,0,0,0,0,0.1c0,0,0,0,0,0.1c0,0,0,0,0,0.1v0.1v0.1v0.1v0.1l1.2,7.7c0,1.8,1.6,3.4,3.5,3.4h11.4c1.9,0,3.5-1.5,3.5-3.4L21,9.9
						z"/>
				</g>
			</g>
		</g>
	</g>
</g>
<path class="st0" d="M8.3,16.7c-0.3,0-0.5-0.2-0.5-0.5c0-0.1,0-0.1,0-0.2c0.7-1.7,2.5-2.5,4.2-1.8c0.8,0.3,1.5,1,1.8,1.8
	c0.1,0.3,0,0.5-0.3,0.7c-0.3,0.1-0.5,0-0.7-0.3c0,0,0,0,0,0c-0.3-0.9-1.2-1.4-2.1-1.4c-0.9,0-1.7,0.6-2.1,1.4
	C8.6,16.5,8.5,16.7,8.3,16.7z"/>
<path class="st0" d="M9.2,12.5c0,0.4-0.4,0.8-0.8,0.8c-0.4,0-0.8-0.4-0.8-0.8c0-0.4,0.4-0.8,0.8-0.8C8.8,11.7,9.2,12,9.2,12.5
	C9.2,12.5,9.2,12.5,9.2,12.5z"/>
<path class="st0" d="M14,12.5c0,0.4-0.4,0.8-0.8,0.8c-0.4,0-0.8-0.4-0.8-0.8c0-0.4,0.4-0.8,0.8-0.8C13.7,11.7,14,12,14,12.5
	C14,12.5,14,12.5,14,12.5z"/>
</svg>
