<svg id="Layer_1" data-name="Layer 1" xmlns="http://www.w3.org/2000/svg" viewBox="0 0 92 111"><defs><style>.cls-1{fill:#262266;}</style></defs><title>Artboard 1</title><path class="cls-1" d="M73.14,71l0-.2c-.12-.75-.26-1.46-.43-2.13H70.09l.09.32c.16.62.31,1.29.44,2l0,.2A26.71,26.71,0,0,1,71,75.5a25.78,25.78,0,0,1-25.75,25.75,25.48,25.48,0,0,1-12.88-3.47A23.55,23.55,0,0,1,30,96.21a4.41,4.41,0,0,1-.53,2.52l-.08.12c.68.47,1.39.9,2.11,1.3A28.22,28.22,0,0,0,73.14,71ZM19.5,75.5a26.71,26.71,0,0,1,.35-4.26l0-.2c.13-.72.28-1.39.44-2l.09-.32H18.1v-1c-.08.23-.14.46-.2.69-.2.76-.37,1.58-.51,2.45a1,1,0,0,0,0,.17A27.29,27.29,0,0,0,17,75.5a28,28,0,0,0,5.41,16.59,24.45,24.45,0,0,0,1.87,2.33,2.68,2.68,0,0,1,.07-.27,18.72,18.72,0,0,1,.92-2.43,21.87,21.87,0,0,1-1.66-2.29A25.56,25.56,0,0,1,19.5,75.5Z"/><path class="cls-1" d="M35.82,83.09a3.14,3.14,0,0,0,4.9-1.94,4.84,4.84,0,0,0-1.41-5.35c-1.71-1.33-4.38-1.19-5.34,1a5.6,5.6,0,0,0,1.85,6.32Z"/><path class="cls-1" d="M55.29,75.8c-1.71-1.33-4.39-1.19-5.35,1a5.52,5.52,0,0,0,1.78,6.32,3.14,3.14,0,0,0,4.9-1.94A4.68,4.68,0,0,0,55.29,75.8Z"/><path class="cls-1" d="M36.43,69.06a13.32,13.32,0,0,1-8.62,3.64c-1.64.08-1.64,2.6,0,2.53a17.6,17.6,0,0,0,10.85-4.72Z"/><path class="cls-1" d="M53.07,69.06a20,20,0,0,0,6.61,4.16,18.94,18.94,0,0,0,2,.67A1.27,1.27,0,0,1,61,76.34a23,23,0,0,1-6.75-3.12,21.46,21.46,0,0,1-2.92-2.33l-.42-.7Z"/><path class="cls-1" d="M44.32,87.36c-3.49.15-9.81,1-8.17,6.1,1.11,3.41,5,3.34,8,3.49,3.34.14,9.95.29,10.62-4.17,0-.07.08-.22.08-.29.15-5.13-6.91-5.27-10.48-5.13Z"/><path class="cls-1" d="M32,93.33a54.93,54.93,0,0,0-3.42-8.9l-1.09-2.3L26.31,84.4c-.38.75-.81,1.54-1.26,2.34s-.88,1.58-1.3,2.4c-.05.1-.1.19-.14.29a25.19,25.19,0,0,0-1.09,2.37c0,.1-.08.19-.11.29a10.08,10.08,0,0,0-.64,6.45v0a5.64,5.64,0,0,0,5.34,3.94,5.26,5.26,0,0,0,2.66-.72,5.2,5.2,0,0,0,1.69-1.64l.07-.09a5.87,5.87,0,0,0,.83-2.28s0-.07,0-.11A9.82,9.82,0,0,0,32,93.33Zm-2.54,5.4-.08.12a2.81,2.81,0,0,1-.85.79A2.87,2.87,0,0,1,26,99.8a3.09,3.09,0,0,1-1.86-2,6.42,6.42,0,0,1,.11-3.41,2.68,2.68,0,0,1,.07-.27,18.72,18.72,0,0,1,.92-2.43l.11-.24c.56-1.19,1.23-2.39,1.86-3.53l.09-.17A46.21,46.21,0,0,1,29.57,94,9.07,9.07,0,0,1,30,96c0,.06,0,.13,0,.2A4.41,4.41,0,0,1,29.44,98.73Z"/><path class="cls-1" d="M67.51,69.13a1,1,0,0,1-.7-.26L59.88,62.6,53,68.87a1.14,1.14,0,0,1-1.42,0L44.61,62.6l-6.93,6.27a1.09,1.09,0,0,1-1.41,0L29.35,62.6l-6.93,6.27a1.13,1.13,0,0,1-1.41,0l-5.94-5.38v5.64a1.86,1.86,0,0,0,2,1.72H72.2a1.86,1.86,0,0,0,2-1.72V63.49l-6,5.38a1,1,0,0,1-.71.26Z"/><path class="cls-1" d="M72.2,58.77H17a1.86,1.86,0,0,0-2,1.72V61l6.64,6,6.93-6.28a1.13,1.13,0,0,1,1.41,0L37,67l6.93-6.27a1.13,1.13,0,0,1,1.41,0L52.24,67l6.93-6.27a1.13,1.13,0,0,1,1.41,0L67.51,67l6.66-6v-.52a1.87,1.87,0,0,0-2-1.72Z"/><path class="cls-1" d="M55,32.24a.47.47,0,0,1,0-.45c1.63-2.27,1.07-4.09-1.7-5.35a.4.4,0,0,1-.19-.5c.69-1.39.76-2.77-.5-3.91a3.24,3.24,0,0,0-4-.44A.35.35,0,0,1,48,21.4,3.22,3.22,0,0,0,44.94,19,3.28,3.28,0,0,0,41.6,21.4a.34.34,0,0,1-.5.19,3.31,3.31,0,0,0-3.9.32c-1.39,1.2-1.32,2.64-.63,4.09a.42.42,0,0,1-.19.5c-2.76,1.13-3.26,3-1.6,5.5-9.72,3.93-16.85,13.53-17.91,25h55.5C71.32,45.74,64.43,36.3,55,32.24Z"/></svg>